M48
; DRILL file {KiCad 5.1.9-1} date Wed Apr 14 11:21:24 2021
; FORMAT={-:-/ absolute / inch / decimal}
; #@! TF.CreationDate,2021-04-14T11:21:24-04:00
; #@! TF.GenerationSoftware,Kicad,Pcbnew,5.1.9-1
; #@! TF.FileFunction,NonPlated,1,2,NPTH
FMAT,2
INCH
T1C0.0472
T2C0.0669
T3C0.1339
%
G90
G05
T1
X1.9445Y-2.6634
X1.9445Y-3.374
X2.3555Y-2.6634
X2.3555Y-3.374
X2.6945Y-1.8846
X2.6945Y-2.5953
X2.6945Y-3.3059
X3.1055Y-1.8846
X3.1055Y-2.5953
X3.1055Y-3.3059
X3.4429Y-1.7846
X3.4445Y-2.4953
X3.4445Y-3.2059
X3.854Y-1.7846
X3.8555Y-2.4953
X3.8555Y-3.2059
X4.1945Y-1.6846
X4.1945Y-2.3953
X4.1945Y-3.1059
X4.1945Y-4.065
X4.6055Y-1.6846
X4.6055Y-2.3953
X4.6055Y-3.1059
X4.6055Y-4.065
X4.9445Y-1.7846
X4.9445Y-2.4953
X4.9445Y-3.2059
X5.0317Y-4.1019
X5.3555Y-1.7846
X5.3555Y-2.4953
X5.3555Y-3.2059
X5.4364Y-4.1733
X5.6945Y-1.8846
X5.6945Y-2.5953
X5.6945Y-3.3059
X5.8473Y-4.2824
X6.1055Y-1.8846
X6.1055Y-2.5953
X6.1055Y-3.3059
X6.2335Y-4.423
X6.4445Y-1.7846
X6.4445Y-2.4953
X6.6185Y-4.6024
X6.8555Y-1.7846
X6.8555Y-2.4953
X6.9404Y-4.2792
X6.9745Y-4.8079
X7.146Y-3.9232
T2
X1.9335Y-2.8287
X1.9335Y-3.5394
X2.3665Y-2.8287
X2.3665Y-3.5394
X2.6835Y-2.05
X2.6835Y-2.7606
X2.6835Y-3.4713
X3.1165Y-2.05
X3.1165Y-2.7606
X3.1165Y-3.4713
X3.4319Y-1.95
X3.4335Y-2.6606
X3.4335Y-3.3713
X3.865Y-1.95
X3.8665Y-2.6606
X3.8665Y-3.3713
X4.1835Y-1.85
X4.1835Y-2.5606
X4.1835Y-3.2713
X4.1835Y-4.2303
X4.6165Y-1.85
X4.6165Y-2.5606
X4.6165Y-3.2713
X4.6165Y-4.2303
X4.9335Y-1.95
X4.9335Y-2.6606
X4.9335Y-3.3713
X4.9921Y-4.2629
X5.3665Y-1.95
X5.3665Y-2.6606
X5.3665Y-3.3713
X5.4186Y-4.3381
X5.6835Y-2.05
X5.6835Y-2.7606
X5.6835Y-3.4713
X5.7804Y-4.434
X6.1165Y-2.05
X6.1165Y-2.7606
X6.1165Y-3.4713
X6.1873Y-4.5821
X6.4335Y-1.95
X6.4335Y-2.6606
X6.5263Y-4.7401
X6.7917Y-4.206
X6.8665Y-1.95
X6.8665Y-2.6606
X6.9013Y-4.9566
X7.0083Y-3.831
T3
X2.15Y-2.8287
X2.15Y-3.5394
X2.9Y-2.05
X2.9Y-2.7606
X2.9Y-3.4713
X3.6485Y-1.95
X3.65Y-2.6606
X3.65Y-3.3713
X4.4Y-1.85
X4.4Y-2.5606
X4.4Y-3.2713
X4.4Y-4.2303
X5.15Y-1.95
X5.15Y-2.6606
X5.15Y-3.3713
X5.2053Y-4.3005
X5.9Y-2.05
X5.9Y-2.7606
X5.9Y-3.4713
X5.9838Y-4.508
X6.65Y-1.95
X6.65Y-2.6606
X6.7138Y-4.8484
X6.9Y-4.0185
T0
M30
