G04 #@! TF.GenerationSoftware,KiCad,Pcbnew,5.1.8-1*
G04 #@! TF.CreationDate,2021-01-06T16:28:38-05:00*
G04 #@! TF.ProjectId,MushyCloud,4d757368-7943-46c6-9f75-642e6b696361,rev?*
G04 #@! TF.SameCoordinates,Original*
G04 #@! TF.FileFunction,Profile,NP*
%FSLAX46Y46*%
G04 Gerber Fmt 4.6, Leading zero omitted, Abs format (unit mm)*
G04 Created by KiCad (PCBNEW 5.1.8-1) date 2021-01-06 16:28:38*
%MOMM*%
%LPD*%
G01*
G04 APERTURE LIST*
G04 #@! TA.AperFunction,Profile*
%ADD10C,0.050000*%
G04 #@! TD*
G04 APERTURE END LIST*
D10*
X190176540Y-74354839D02*
X190177428Y-71407843D01*
X182869437Y-119746927D02*
X176428206Y-130970639D01*
X177800000Y-116840000D02*
X182869437Y-119746927D01*
X163749375Y-130987278D02*
X176428206Y-130970639D01*
X157341953Y-127305870D02*
X163749375Y-130987278D01*
X52070000Y-117614746D02*
X52070000Y-104140000D01*
X52070000Y-104140000D02*
X49530000Y-104140000D01*
X187960000Y-99060000D02*
X184150000Y-96959266D01*
X179070000Y-68580000D02*
X190177428Y-71407843D01*
X179070000Y-67310000D02*
X179070000Y-68580000D01*
X179070000Y-39370000D02*
X179070000Y-67310000D01*
X187960000Y-99060000D02*
X177800000Y-116840000D01*
X63500000Y-60960000D02*
X44450000Y-60960000D01*
X63500000Y-41910000D02*
X63500000Y-60960000D01*
X63500000Y-41910000D02*
X82550000Y-41910000D01*
X44450000Y-104140000D02*
X49530000Y-104140000D01*
X44450000Y-99060000D02*
X44450000Y-104140000D01*
X44450000Y-99060000D02*
X44450000Y-60960000D01*
X102230235Y-117632957D02*
X52070000Y-117614746D01*
X121337223Y-117712570D02*
X102230235Y-117632957D01*
X139727699Y-120857261D02*
X121337223Y-117712570D01*
X157341953Y-127305870D02*
X139727699Y-120857261D01*
X190176540Y-74354839D02*
X184150000Y-96959266D01*
X158750000Y-39370000D02*
X179070000Y-39370000D01*
X158750000Y-41910000D02*
X158750000Y-39370000D01*
X140970000Y-41910000D02*
X158750000Y-41910000D01*
X140970000Y-39370000D02*
X140970000Y-41910000D01*
X121920000Y-39370000D02*
X140970000Y-39370000D01*
X121920000Y-36830000D02*
X121920000Y-39370000D01*
X101600000Y-36830000D02*
X121920000Y-36830000D01*
X101600000Y-39370000D02*
X101600000Y-36830000D01*
X82550000Y-39370000D02*
X101600000Y-39370000D01*
X82550000Y-41910000D02*
X82550000Y-39370000D01*
M02*
