M48
; DRILL file {KiCad 5.1.9-1} date Wed Apr 14 11:21:24 2021
; FORMAT={-:-/ absolute / inch / decimal}
; #@! TF.CreationDate,2021-04-14T11:21:24-04:00
; #@! TF.GenerationSoftware,Kicad,Pcbnew,5.1.9-1
; #@! TF.FileFunction,Plated,1,2,PTH
FMAT,2
INCH
T1C0.0157
T2C0.0390
T3C0.0394
T4C0.0430
T5C0.0472
T6C0.0791
%
G90
G05
T1
X1.85Y-2.75
X1.85Y-2.8
X1.85Y-2.85
X2.1161Y-4.1
X2.1161Y-4.15
X2.1161Y-4.2
X2.2Y-4.0
X2.2Y-4.05
X2.2Y-4.3
X2.2Y-4.35
X2.2Y-4.4
X2.3Y-4.05
X2.3Y-4.3
X2.3Y-4.35
X2.3Y-4.4
X2.35Y-4.05
X2.55Y-3.85
X2.6Y-4.45
X2.65Y-4.45
X3.05Y-4.25
X3.3Y-4.1
X3.3Y-4.2
X3.55Y-4.1
X3.7Y-4.4
X3.8Y-4.4
X3.85Y-3.8
X3.9047Y-4.1547
X3.95Y-3.8
X3.95Y-3.9
X3.95Y-4.55
X4.0Y-4.15
X4.05Y-4.2
X4.1Y-1.55
X4.15Y-3.85
X4.2Y-1.55
X4.45Y-3.75
X4.5Y-3.7
X4.6Y-1.55
X4.7Y-1.55
X4.75Y-3.65
X5.05Y-4.45
X5.5Y-4.5
X5.65Y-4.3
X6.4Y-4.8
X6.7Y-4.35
X6.75Y-4.45
X6.8Y-4.3
X6.9022Y-3.0978
T2
X2.0Y-2.4894
X2.0Y-3.1894
X2.3Y-2.4894
X2.3Y-3.1894
X2.75Y-2.4
X2.75Y-3.1106
X2.75Y-3.8213
X3.05Y-2.4
X3.05Y-3.1106
X3.05Y-3.8213
X3.5Y-2.3
X3.5Y-3.0106
X3.5Y-3.7213
X3.8Y-2.3
X3.8Y-3.0106
X3.8Y-3.7213
X4.25Y-2.2
X4.25Y-2.9106
X4.25Y-3.6213
X4.25Y-3.8854
X4.55Y-2.2
X4.55Y-2.9106
X4.55Y-3.6213
X4.55Y-3.8854
X5.0Y-2.3
X5.0Y-3.0106
X5.0Y-3.7213
X5.1164Y-3.9322
X5.3Y-2.3
X5.3Y-3.0106
X5.3Y-3.7213
X5.4118Y-3.9843
X5.75Y-2.4
X5.75Y-3.1106
X5.75Y-3.8213
X5.9626Y-4.1289
X6.05Y-2.4
X6.05Y-3.1106
X6.05Y-3.8213
X6.2445Y-4.2315
X6.5Y-2.3
X6.5Y-3.0106
X6.5146Y-3.9679
X6.6402Y-4.4
X6.6646Y-3.7081
X6.8Y-2.3
X6.8Y-3.0106
X6.9Y-4.55
T3
X1.85Y-4.0
X1.95Y-4.0
X2.05Y-4.0
X3.7Y-4.3
X3.8Y-4.3
X6.9488Y-3.5236
X7.009Y-3.3934
X7.0394Y-3.5659
X7.0996Y-3.4357
X7.1063Y-2.7953
X7.1063Y-2.8953
X7.1063Y-2.9953
X7.1063Y-3.0953
X7.1301Y-3.6081
X7.1903Y-3.478
X7.2207Y-3.6504
X7.2809Y-3.5202
T4
X2.3Y-3.941
X2.3Y-4.559
X2.4Y-3.959
X2.4Y-4.541
X2.5Y-3.941
X2.5Y-4.559
X2.6Y-3.959
X2.6Y-4.541
X2.7Y-3.941
X2.7Y-4.559
X2.8Y-3.959
X2.8Y-4.541
X2.9Y-3.941
X2.9Y-4.559
X3.0Y-3.959
X3.0Y-4.541
X3.1Y-3.941
X3.1Y-4.559
X3.2Y-3.959
X3.2Y-4.541
X3.3Y-3.941
X3.3Y-4.559
X3.4Y-3.959
X3.4Y-4.541
X6.3Y-3.2
X6.3Y-3.3
X6.3Y-3.4
X6.3Y-3.5
X6.3Y-3.6
X6.3Y-3.7
X6.3Y-3.8
X6.4Y-3.2
X6.4Y-3.3
X6.4Y-3.4
X6.4Y-3.5
X6.4Y-3.6
X6.4Y-3.7
X6.4Y-3.8
X6.5Y-3.2
X6.5Y-3.3
X6.5Y-3.4
X6.5Y-3.5
X6.5Y-3.6
X6.5Y-3.7
X6.5Y-3.8
X6.6Y-3.2
X6.6Y-3.3
X6.6Y-3.4
X6.6Y-3.5
X6.6Y-3.6
X6.7Y-3.2
X6.7Y-3.3
X6.7Y-3.4
X6.7Y-3.5
X6.7Y-3.6
X6.8Y-3.2
X6.8Y-3.3
X6.8Y-3.4
X6.8Y-3.5
T5
X1.9531Y-2.9783
X1.9531Y-3.689
X2.15Y-3.061
X2.15Y-3.7717
X2.3469Y-2.9783
X2.3469Y-3.689
X2.7031Y-2.1996
X2.7031Y-2.9102
X2.7031Y-3.6209
X2.9Y-2.2823
X2.9Y-2.9929
X2.9Y-3.7035
X3.0969Y-2.1996
X3.0969Y-2.9102
X3.0969Y-3.6209
X3.4516Y-2.0996
X3.4531Y-2.8102
X3.4531Y-3.5209
X3.6485Y-2.1823
X3.65Y-2.8929
X3.65Y-3.6035
X3.8453Y-2.0996
X3.8469Y-2.8102
X3.8469Y-3.5209
X4.2031Y-1.9996
X4.2031Y-2.7102
X4.2031Y-3.4209
X4.2031Y-4.3799
X4.4Y-2.0823
X4.4Y-2.7929
X4.4Y-3.5035
X4.4Y-4.4626
X4.5969Y-1.9996
X4.5969Y-2.7102
X4.5969Y-3.4209
X4.5969Y-4.3799
X4.9531Y-2.0996
X4.9531Y-2.8102
X4.9531Y-3.5209
X4.9855Y-4.4136
X5.15Y-2.1823
X5.15Y-2.8929
X5.15Y-3.6035
X5.165Y-4.5292
X5.3469Y-2.0996
X5.3469Y-2.8102
X5.3469Y-3.5209
X5.3732Y-4.482
X5.7031Y-2.1996
X5.7031Y-2.9102
X5.7031Y-3.6209
X5.7477Y-4.5813
X5.9Y-2.2823
X5.9Y-2.9929
X5.9Y-3.7035
X5.9044Y-4.7263
X6.0969Y-2.1996
X6.0969Y-2.9102
X6.0969Y-3.6209
X6.1177Y-4.716
X6.4531Y-2.0996
X6.4531Y-2.8102
X6.4685Y-4.8795
X6.5977Y-5.0495
X6.65Y-2.1823
X6.65Y-2.8929
X6.672Y-4.1142
X6.6988Y-3.9024
X6.8095Y-5.0763
X6.8469Y-2.0996
X6.8469Y-2.8102
X6.8689Y-3.7732
T6
X3.7934Y-3.9788
T0
M30
