G04 #@! TF.GenerationSoftware,KiCad,Pcbnew,5.1.9-1*
G04 #@! TF.CreationDate,2021-04-14T11:21:22-04:00*
G04 #@! TF.ProjectId,MushyCloud,4d757368-7943-46c6-9f75-642e6b696361,rev?*
G04 #@! TF.SameCoordinates,Original*
G04 #@! TF.FileFunction,Legend,Top*
G04 #@! TF.FilePolarity,Positive*
%FSLAX46Y46*%
G04 Gerber Fmt 4.6, Leading zero omitted, Abs format (unit mm)*
G04 Created by KiCad (PCBNEW 5.1.9-1) date 2021-04-14 11:21:22*
%MOMM*%
%LPD*%
G01*
G04 APERTURE LIST*
%ADD10C,0.010000*%
%ADD11C,0.100000*%
%ADD12O,1.700000X1.700000*%
%ADD13R,1.700000X1.700000*%
%ADD14R,1.752600X1.752600*%
%ADD15C,1.752600*%
%ADD16C,1.651000*%
%ADD17R,1.651000X1.651000*%
%ADD18C,1.700000*%
%ADD19C,2.000000*%
%ADD20C,3.400000*%
G04 APERTURE END LIST*
D10*
G36*
X82014915Y-102244480D02*
G01*
X82253862Y-102263695D01*
X82430670Y-102304405D01*
X82555833Y-102369325D01*
X82639846Y-102461171D01*
X82656734Y-102490743D01*
X82687026Y-102596552D01*
X82708117Y-102764184D01*
X82719995Y-102971342D01*
X82722647Y-103195732D01*
X82716061Y-103415058D01*
X82700225Y-103607023D01*
X82675127Y-103749334D01*
X82657459Y-103798188D01*
X82584574Y-103895691D01*
X82474056Y-103967143D01*
X82315106Y-104015513D01*
X82096924Y-104043770D01*
X81808711Y-104054885D01*
X81722314Y-104055333D01*
X81482742Y-104052746D01*
X81318049Y-104044355D01*
X81218586Y-104029209D01*
X81174704Y-104006361D01*
X81171911Y-104001222D01*
X81166109Y-103943877D01*
X81162086Y-103815664D01*
X81159984Y-103630367D01*
X81159963Y-103505000D01*
X81788000Y-103505000D01*
X82087757Y-103505000D01*
X82075462Y-103155750D01*
X82063166Y-102806500D01*
X81788000Y-102779968D01*
X81788000Y-103505000D01*
X81159963Y-103505000D01*
X81159945Y-103401768D01*
X81162111Y-103143650D01*
X81162657Y-103101639D01*
X81174166Y-102256166D01*
X81703333Y-102244045D01*
X82014915Y-102244480D01*
G37*
X82014915Y-102244480D02*
X82253862Y-102263695D01*
X82430670Y-102304405D01*
X82555833Y-102369325D01*
X82639846Y-102461171D01*
X82656734Y-102490743D01*
X82687026Y-102596552D01*
X82708117Y-102764184D01*
X82719995Y-102971342D01*
X82722647Y-103195732D01*
X82716061Y-103415058D01*
X82700225Y-103607023D01*
X82675127Y-103749334D01*
X82657459Y-103798188D01*
X82584574Y-103895691D01*
X82474056Y-103967143D01*
X82315106Y-104015513D01*
X82096924Y-104043770D01*
X81808711Y-104054885D01*
X81722314Y-104055333D01*
X81482742Y-104052746D01*
X81318049Y-104044355D01*
X81218586Y-104029209D01*
X81174704Y-104006361D01*
X81171911Y-104001222D01*
X81166109Y-103943877D01*
X81162086Y-103815664D01*
X81159984Y-103630367D01*
X81159963Y-103505000D01*
X81788000Y-103505000D01*
X82087757Y-103505000D01*
X82075462Y-103155750D01*
X82063166Y-102806500D01*
X81788000Y-102779968D01*
X81788000Y-103505000D01*
X81159963Y-103505000D01*
X81159945Y-103401768D01*
X81162111Y-103143650D01*
X81162657Y-103101639D01*
X81174166Y-102256166D01*
X81703333Y-102244045D01*
X82014915Y-102244480D01*
G36*
X76625596Y-103505000D02*
G01*
X76730298Y-103505000D01*
X76796349Y-103496240D01*
X76826846Y-103454496D01*
X76835371Y-103356572D01*
X76835648Y-103325083D01*
X76843314Y-103180032D01*
X76876217Y-103094010D01*
X76951152Y-103053393D01*
X77084913Y-103044555D01*
X77177521Y-103047721D01*
X77448833Y-103060500D01*
X77460921Y-103522738D01*
X77463680Y-103746412D01*
X77457526Y-103896786D01*
X77441522Y-103984851D01*
X77418588Y-104019506D01*
X77359267Y-104031381D01*
X77231141Y-104041577D01*
X77050066Y-104049322D01*
X76831898Y-104053844D01*
X76696088Y-104054685D01*
X76426469Y-104053139D01*
X76232064Y-104047414D01*
X76103492Y-104036782D01*
X76031369Y-104020514D01*
X76007245Y-104001222D01*
X76001442Y-103943877D01*
X75997419Y-103815664D01*
X75995317Y-103630367D01*
X75995278Y-103401768D01*
X75997444Y-103143650D01*
X75997990Y-103101639D01*
X76009500Y-102256166D01*
X76602166Y-102256166D01*
X76625596Y-103505000D01*
G37*
X76625596Y-103505000D02*
X76730298Y-103505000D01*
X76796349Y-103496240D01*
X76826846Y-103454496D01*
X76835371Y-103356572D01*
X76835648Y-103325083D01*
X76843314Y-103180032D01*
X76876217Y-103094010D01*
X76951152Y-103053393D01*
X77084913Y-103044555D01*
X77177521Y-103047721D01*
X77448833Y-103060500D01*
X77460921Y-103522738D01*
X77463680Y-103746412D01*
X77457526Y-103896786D01*
X77441522Y-103984851D01*
X77418588Y-104019506D01*
X77359267Y-104031381D01*
X77231141Y-104041577D01*
X77050066Y-104049322D01*
X76831898Y-104053844D01*
X76696088Y-104054685D01*
X76426469Y-104053139D01*
X76232064Y-104047414D01*
X76103492Y-104036782D01*
X76031369Y-104020514D01*
X76007245Y-104001222D01*
X76001442Y-103943877D01*
X75997419Y-103815664D01*
X75995317Y-103630367D01*
X75995278Y-103401768D01*
X75997444Y-103143650D01*
X75997990Y-103101639D01*
X76009500Y-102256166D01*
X76602166Y-102256166D01*
X76625596Y-103505000D01*
G36*
X75797833Y-102764166D02*
G01*
X75503264Y-102776885D01*
X75347114Y-102789711D01*
X75221006Y-102811107D01*
X75152293Y-102836413D01*
X75119703Y-102900464D01*
X75106200Y-103028878D01*
X75108195Y-103183528D01*
X75120500Y-103483833D01*
X75459166Y-103505000D01*
X75797833Y-103526166D01*
X75797833Y-104034166D01*
X75353333Y-104043809D01*
X75079644Y-104042533D01*
X74886034Y-104024884D01*
X74781833Y-103996676D01*
X74669925Y-103939989D01*
X74589949Y-103876031D01*
X74536192Y-103789907D01*
X74502938Y-103666718D01*
X74484472Y-103491569D01*
X74475080Y-103249561D01*
X74473829Y-103193775D01*
X74471093Y-102933169D01*
X74478126Y-102741381D01*
X74498905Y-102602763D01*
X74537407Y-102501665D01*
X74597609Y-102422437D01*
X74683487Y-102349430D01*
X74689532Y-102344914D01*
X74750990Y-102306112D01*
X74823052Y-102280464D01*
X74923890Y-102265343D01*
X75071674Y-102258122D01*
X75284577Y-102256173D01*
X75303366Y-102256166D01*
X75797833Y-102256166D01*
X75797833Y-102764166D01*
G37*
X75797833Y-102764166D02*
X75503264Y-102776885D01*
X75347114Y-102789711D01*
X75221006Y-102811107D01*
X75152293Y-102836413D01*
X75119703Y-102900464D01*
X75106200Y-103028878D01*
X75108195Y-103183528D01*
X75120500Y-103483833D01*
X75459166Y-103505000D01*
X75797833Y-103526166D01*
X75797833Y-104034166D01*
X75353333Y-104043809D01*
X75079644Y-104042533D01*
X74886034Y-104024884D01*
X74781833Y-103996676D01*
X74669925Y-103939989D01*
X74589949Y-103876031D01*
X74536192Y-103789907D01*
X74502938Y-103666718D01*
X74484472Y-103491569D01*
X74475080Y-103249561D01*
X74473829Y-103193775D01*
X74471093Y-102933169D01*
X74478126Y-102741381D01*
X74498905Y-102602763D01*
X74537407Y-102501665D01*
X74597609Y-102422437D01*
X74683487Y-102349430D01*
X74689532Y-102344914D01*
X74750990Y-102306112D01*
X74823052Y-102280464D01*
X74923890Y-102265343D01*
X75071674Y-102258122D01*
X75284577Y-102256173D01*
X75303366Y-102256166D01*
X75797833Y-102256166D01*
X75797833Y-102764166D01*
G36*
X74244750Y-102266493D02*
G01*
X74304973Y-102332671D01*
X74331452Y-102454456D01*
X74337333Y-102645133D01*
X74333905Y-102815061D01*
X74317327Y-102944005D01*
X74278160Y-103057516D01*
X74206965Y-103181143D01*
X74094301Y-103340437D01*
X74066573Y-103378000D01*
X73955579Y-103547223D01*
X73894726Y-103696755D01*
X73872338Y-103822500D01*
X73850500Y-104034166D01*
X73573539Y-104046483D01*
X73427244Y-104048532D01*
X73316194Y-104041824D01*
X73266622Y-104028844D01*
X73247858Y-103971020D01*
X73237427Y-103863018D01*
X73236666Y-103822884D01*
X73228350Y-103724496D01*
X73196627Y-103628776D01*
X73131331Y-103514503D01*
X73022299Y-103360456D01*
X73002369Y-103333709D01*
X72768071Y-103020539D01*
X72780119Y-102638353D01*
X72792166Y-102256166D01*
X73384833Y-102256166D01*
X73406000Y-102552500D01*
X73428364Y-102733513D01*
X73464109Y-102878042D01*
X73495545Y-102945358D01*
X73563924Y-103041883D01*
X73631089Y-102939376D01*
X73672928Y-102830661D01*
X73701885Y-102664034D01*
X73710877Y-102546518D01*
X73723500Y-102256166D01*
X73970488Y-102243364D01*
X74137637Y-102241523D01*
X74244750Y-102266493D01*
G37*
X74244750Y-102266493D02*
X74304973Y-102332671D01*
X74331452Y-102454456D01*
X74337333Y-102645133D01*
X74333905Y-102815061D01*
X74317327Y-102944005D01*
X74278160Y-103057516D01*
X74206965Y-103181143D01*
X74094301Y-103340437D01*
X74066573Y-103378000D01*
X73955579Y-103547223D01*
X73894726Y-103696755D01*
X73872338Y-103822500D01*
X73850500Y-104034166D01*
X73573539Y-104046483D01*
X73427244Y-104048532D01*
X73316194Y-104041824D01*
X73266622Y-104028844D01*
X73247858Y-103971020D01*
X73237427Y-103863018D01*
X73236666Y-103822884D01*
X73228350Y-103724496D01*
X73196627Y-103628776D01*
X73131331Y-103514503D01*
X73022299Y-103360456D01*
X73002369Y-103333709D01*
X72768071Y-103020539D01*
X72780119Y-102638353D01*
X72792166Y-102256166D01*
X73384833Y-102256166D01*
X73406000Y-102552500D01*
X73428364Y-102733513D01*
X73464109Y-102878042D01*
X73495545Y-102945358D01*
X73563924Y-103041883D01*
X73631089Y-102939376D01*
X73672928Y-102830661D01*
X73701885Y-102664034D01*
X73710877Y-102546518D01*
X73723500Y-102256166D01*
X73970488Y-102243364D01*
X74137637Y-102241523D01*
X74244750Y-102266493D01*
G36*
X71661684Y-102541916D02*
G01*
X71674201Y-102827666D01*
X71962798Y-102827666D01*
X71975315Y-102541916D01*
X71987833Y-102256166D01*
X72580500Y-102256166D01*
X72580500Y-104034166D01*
X71987833Y-104034166D01*
X71975395Y-103727250D01*
X71962957Y-103420333D01*
X71674042Y-103420333D01*
X71661604Y-103727250D01*
X71649166Y-104034166D01*
X71362835Y-104046697D01*
X71193170Y-104048452D01*
X71094576Y-104034226D01*
X71054992Y-104003169D01*
X71048959Y-103945204D01*
X71044735Y-103816411D01*
X71042473Y-103630615D01*
X71042327Y-103401639D01*
X71044450Y-103143306D01*
X71044990Y-103101639D01*
X71056500Y-102256166D01*
X71649166Y-102256166D01*
X71661684Y-102541916D01*
G37*
X71661684Y-102541916D02*
X71674201Y-102827666D01*
X71962798Y-102827666D01*
X71975315Y-102541916D01*
X71987833Y-102256166D01*
X72580500Y-102256166D01*
X72580500Y-104034166D01*
X71987833Y-104034166D01*
X71975395Y-103727250D01*
X71962957Y-103420333D01*
X71674042Y-103420333D01*
X71661604Y-103727250D01*
X71649166Y-104034166D01*
X71362835Y-104046697D01*
X71193170Y-104048452D01*
X71094576Y-104034226D01*
X71054992Y-104003169D01*
X71048959Y-103945204D01*
X71044735Y-103816411D01*
X71042473Y-103630615D01*
X71042327Y-103401639D01*
X71044450Y-103143306D01*
X71044990Y-103101639D01*
X71056500Y-102256166D01*
X71649166Y-102256166D01*
X71661684Y-102541916D01*
G36*
X70307102Y-102244171D02*
G01*
X70760166Y-102256166D01*
X70760166Y-102764166D01*
X70421500Y-102785333D01*
X70259875Y-102799284D01*
X70167889Y-102815952D01*
X70152265Y-102833975D01*
X70160379Y-102838250D01*
X70265703Y-102863885D01*
X70341655Y-102870000D01*
X70476419Y-102892167D01*
X70626091Y-102947936D01*
X70753467Y-103021208D01*
X70807398Y-103071532D01*
X70839625Y-103159048D01*
X70859657Y-103309178D01*
X70864653Y-103442663D01*
X70853274Y-103650549D01*
X70810656Y-103807145D01*
X70727274Y-103919098D01*
X70593605Y-103993054D01*
X70400127Y-104035660D01*
X70137317Y-104053562D01*
X69986826Y-104055333D01*
X69741636Y-104050214D01*
X69573189Y-104035082D01*
X69484872Y-104010276D01*
X69477466Y-104004533D01*
X69444248Y-103927906D01*
X69428128Y-103804532D01*
X69431229Y-103670997D01*
X69452362Y-103571962D01*
X69481012Y-103538997D01*
X69546690Y-103518166D01*
X69664927Y-103506847D01*
X69851257Y-103502421D01*
X69865112Y-103502316D01*
X70048285Y-103496863D01*
X70147441Y-103484190D01*
X70162446Y-103465140D01*
X70093166Y-103440558D01*
X69939468Y-103411288D01*
X69880956Y-103402319D01*
X69681262Y-103350633D01*
X69548590Y-103257027D01*
X69471045Y-103108844D01*
X69439802Y-102932882D01*
X69436478Y-102715732D01*
X69474008Y-102543726D01*
X69483710Y-102519088D01*
X69547896Y-102405396D01*
X69638916Y-102325206D01*
X69769784Y-102274173D01*
X69953518Y-102247950D01*
X70203132Y-102242192D01*
X70307102Y-102244171D01*
G37*
X70307102Y-102244171D02*
X70760166Y-102256166D01*
X70760166Y-102764166D01*
X70421500Y-102785333D01*
X70259875Y-102799284D01*
X70167889Y-102815952D01*
X70152265Y-102833975D01*
X70160379Y-102838250D01*
X70265703Y-102863885D01*
X70341655Y-102870000D01*
X70476419Y-102892167D01*
X70626091Y-102947936D01*
X70753467Y-103021208D01*
X70807398Y-103071532D01*
X70839625Y-103159048D01*
X70859657Y-103309178D01*
X70864653Y-103442663D01*
X70853274Y-103650549D01*
X70810656Y-103807145D01*
X70727274Y-103919098D01*
X70593605Y-103993054D01*
X70400127Y-104035660D01*
X70137317Y-104053562D01*
X69986826Y-104055333D01*
X69741636Y-104050214D01*
X69573189Y-104035082D01*
X69484872Y-104010276D01*
X69477466Y-104004533D01*
X69444248Y-103927906D01*
X69428128Y-103804532D01*
X69431229Y-103670997D01*
X69452362Y-103571962D01*
X69481012Y-103538997D01*
X69546690Y-103518166D01*
X69664927Y-103506847D01*
X69851257Y-103502421D01*
X69865112Y-103502316D01*
X70048285Y-103496863D01*
X70147441Y-103484190D01*
X70162446Y-103465140D01*
X70093166Y-103440558D01*
X69939468Y-103411288D01*
X69880956Y-103402319D01*
X69681262Y-103350633D01*
X69548590Y-103257027D01*
X69471045Y-103108844D01*
X69439802Y-102932882D01*
X69436478Y-102715732D01*
X69474008Y-102543726D01*
X69483710Y-102519088D01*
X69547896Y-102405396D01*
X69638916Y-102325206D01*
X69769784Y-102274173D01*
X69953518Y-102247950D01*
X70203132Y-102242192D01*
X70307102Y-102244171D01*
G36*
X66104900Y-102242946D02*
G01*
X66237465Y-102258501D01*
X66319995Y-102295912D01*
X66387054Y-102373629D01*
X66407257Y-102404333D01*
X66505829Y-102557912D01*
X66570737Y-102645494D01*
X66616572Y-102670653D01*
X66657925Y-102636962D01*
X66709384Y-102547996D01*
X66742144Y-102486362D01*
X66865500Y-102256166D01*
X67458166Y-102256166D01*
X67458166Y-104034166D01*
X67211178Y-104046969D01*
X67045420Y-104048945D01*
X66938607Y-104024643D01*
X66877867Y-103959740D01*
X66850326Y-103839914D01*
X66843111Y-103650844D01*
X66843046Y-103637399D01*
X66839497Y-103474746D01*
X66829549Y-103388845D01*
X66811816Y-103371930D01*
X66798609Y-103388583D01*
X66722336Y-103445261D01*
X66606154Y-103461117D01*
X66484526Y-103435793D01*
X66413750Y-103392605D01*
X66375543Y-103362635D01*
X66352555Y-103366958D01*
X66340929Y-103419048D01*
X66336812Y-103532378D01*
X66336333Y-103663243D01*
X66332927Y-103841391D01*
X66320711Y-103951482D01*
X66296685Y-104009925D01*
X66269370Y-104029637D01*
X66165730Y-104050340D01*
X66028831Y-104055090D01*
X65891354Y-104045472D01*
X65785982Y-104023073D01*
X65752133Y-104004533D01*
X65732631Y-103953712D01*
X65718143Y-103841520D01*
X65708328Y-103661995D01*
X65702845Y-103409174D01*
X65701333Y-103116339D01*
X65701333Y-102278946D01*
X65799388Y-102254336D01*
X65900466Y-102242204D01*
X66041589Y-102240200D01*
X66104900Y-102242946D01*
G37*
X66104900Y-102242946D02*
X66237465Y-102258501D01*
X66319995Y-102295912D01*
X66387054Y-102373629D01*
X66407257Y-102404333D01*
X66505829Y-102557912D01*
X66570737Y-102645494D01*
X66616572Y-102670653D01*
X66657925Y-102636962D01*
X66709384Y-102547996D01*
X66742144Y-102486362D01*
X66865500Y-102256166D01*
X67458166Y-102256166D01*
X67458166Y-104034166D01*
X67211178Y-104046969D01*
X67045420Y-104048945D01*
X66938607Y-104024643D01*
X66877867Y-103959740D01*
X66850326Y-103839914D01*
X66843111Y-103650844D01*
X66843046Y-103637399D01*
X66839497Y-103474746D01*
X66829549Y-103388845D01*
X66811816Y-103371930D01*
X66798609Y-103388583D01*
X66722336Y-103445261D01*
X66606154Y-103461117D01*
X66484526Y-103435793D01*
X66413750Y-103392605D01*
X66375543Y-103362635D01*
X66352555Y-103366958D01*
X66340929Y-103419048D01*
X66336812Y-103532378D01*
X66336333Y-103663243D01*
X66332927Y-103841391D01*
X66320711Y-103951482D01*
X66296685Y-104009925D01*
X66269370Y-104029637D01*
X66165730Y-104050340D01*
X66028831Y-104055090D01*
X65891354Y-104045472D01*
X65785982Y-104023073D01*
X65752133Y-104004533D01*
X65732631Y-103953712D01*
X65718143Y-103841520D01*
X65708328Y-103661995D01*
X65702845Y-103409174D01*
X65701333Y-103116339D01*
X65701333Y-102278946D01*
X65799388Y-102254336D01*
X65900466Y-102242204D01*
X66041589Y-102240200D01*
X66104900Y-102242946D01*
G36*
X80012263Y-103505000D02*
G01*
X80304069Y-103505000D01*
X80315784Y-102880583D01*
X80327500Y-102256166D01*
X80920166Y-102256166D01*
X80930655Y-102975833D01*
X80933264Y-103270712D01*
X80929416Y-103493682D01*
X80916254Y-103657425D01*
X80890919Y-103774622D01*
X80850551Y-103857956D01*
X80792293Y-103920107D01*
X80713286Y-103973757D01*
X80704542Y-103978904D01*
X80583157Y-104023649D01*
X80407266Y-104057688D01*
X80206658Y-104078255D01*
X80011118Y-104082587D01*
X79850436Y-104067920D01*
X79819500Y-104061039D01*
X79606694Y-103979506D01*
X79463727Y-103862726D01*
X79437475Y-103826877D01*
X79413380Y-103775362D01*
X79396590Y-103697927D01*
X79386307Y-103581967D01*
X79381731Y-103414878D01*
X79382064Y-103184057D01*
X79384558Y-102992283D01*
X79396166Y-102256166D01*
X79988833Y-102256166D01*
X80012263Y-103505000D01*
G37*
X80012263Y-103505000D02*
X80304069Y-103505000D01*
X80315784Y-102880583D01*
X80327500Y-102256166D01*
X80920166Y-102256166D01*
X80930655Y-102975833D01*
X80933264Y-103270712D01*
X80929416Y-103493682D01*
X80916254Y-103657425D01*
X80890919Y-103774622D01*
X80850551Y-103857956D01*
X80792293Y-103920107D01*
X80713286Y-103973757D01*
X80704542Y-103978904D01*
X80583157Y-104023649D01*
X80407266Y-104057688D01*
X80206658Y-104078255D01*
X80011118Y-104082587D01*
X79850436Y-104067920D01*
X79819500Y-104061039D01*
X79606694Y-103979506D01*
X79463727Y-103862726D01*
X79437475Y-103826877D01*
X79413380Y-103775362D01*
X79396590Y-103697927D01*
X79386307Y-103581967D01*
X79381731Y-103414878D01*
X79382064Y-103184057D01*
X79384558Y-102992283D01*
X79396166Y-102256166D01*
X79988833Y-102256166D01*
X80012263Y-103505000D01*
G36*
X78608942Y-102216984D02*
G01*
X78833638Y-102271766D01*
X79011030Y-102364038D01*
X79061786Y-102408777D01*
X79184500Y-102536833D01*
X79184500Y-103120222D01*
X79181385Y-103395451D01*
X79169327Y-103599736D01*
X79144256Y-103746664D01*
X79102103Y-103849815D01*
X79038796Y-103922776D01*
X78950267Y-103979129D01*
X78923151Y-103992483D01*
X78774651Y-104038583D01*
X78575711Y-104068815D01*
X78359470Y-104080849D01*
X78159063Y-104072356D01*
X78049554Y-104053874D01*
X77888183Y-104003653D01*
X77769685Y-103937613D01*
X77687723Y-103843028D01*
X77635959Y-103707171D01*
X77608054Y-103517316D01*
X77598739Y-103287138D01*
X78235781Y-103287138D01*
X78245393Y-103406698D01*
X78275350Y-103472623D01*
X78331661Y-103500224D01*
X78400004Y-103505000D01*
X78528333Y-103505000D01*
X78528333Y-102779968D01*
X78390750Y-102793234D01*
X78253166Y-102806500D01*
X78240503Y-103098633D01*
X78235781Y-103287138D01*
X77598739Y-103287138D01*
X77597670Y-103260736D01*
X77597000Y-103145166D01*
X77603047Y-102862778D01*
X77623846Y-102651884D01*
X77663382Y-102500001D01*
X77725640Y-102394645D01*
X77814605Y-102323331D01*
X77867519Y-102297713D01*
X78104234Y-102227944D01*
X78358591Y-102201706D01*
X78608942Y-102216984D01*
G37*
X78608942Y-102216984D02*
X78833638Y-102271766D01*
X79011030Y-102364038D01*
X79061786Y-102408777D01*
X79184500Y-102536833D01*
X79184500Y-103120222D01*
X79181385Y-103395451D01*
X79169327Y-103599736D01*
X79144256Y-103746664D01*
X79102103Y-103849815D01*
X79038796Y-103922776D01*
X78950267Y-103979129D01*
X78923151Y-103992483D01*
X78774651Y-104038583D01*
X78575711Y-104068815D01*
X78359470Y-104080849D01*
X78159063Y-104072356D01*
X78049554Y-104053874D01*
X77888183Y-104003653D01*
X77769685Y-103937613D01*
X77687723Y-103843028D01*
X77635959Y-103707171D01*
X77608054Y-103517316D01*
X77598739Y-103287138D01*
X78235781Y-103287138D01*
X78245393Y-103406698D01*
X78275350Y-103472623D01*
X78331661Y-103500224D01*
X78400004Y-103505000D01*
X78528333Y-103505000D01*
X78528333Y-102779968D01*
X78390750Y-102793234D01*
X78253166Y-102806500D01*
X78240503Y-103098633D01*
X78235781Y-103287138D01*
X77598739Y-103287138D01*
X77597670Y-103260736D01*
X77597000Y-103145166D01*
X77603047Y-102862778D01*
X77623846Y-102651884D01*
X77663382Y-102500001D01*
X77725640Y-102394645D01*
X77814605Y-102323331D01*
X77867519Y-102297713D01*
X78104234Y-102227944D01*
X78358591Y-102201706D01*
X78608942Y-102216984D01*
G36*
X68169794Y-102243594D02*
G01*
X68277986Y-102265703D01*
X68317533Y-102285799D01*
X68341447Y-102350406D01*
X68357672Y-102490669D01*
X68366462Y-102709785D01*
X68368333Y-102920799D01*
X68368333Y-103505000D01*
X68622333Y-103505000D01*
X68622333Y-102917516D01*
X68624356Y-102667342D01*
X68631172Y-102489836D01*
X68643902Y-102373079D01*
X68663666Y-102305152D01*
X68682261Y-102280297D01*
X68761415Y-102252833D01*
X68898562Y-102241558D01*
X68989178Y-102243364D01*
X69236166Y-102256166D01*
X69247708Y-103003195D01*
X69251558Y-103271161D01*
X69252587Y-103468104D01*
X69249297Y-103607656D01*
X69240189Y-103703450D01*
X69223763Y-103769119D01*
X69198521Y-103818296D01*
X69162963Y-103864615D01*
X69151468Y-103878316D01*
X69010373Y-103986434D01*
X68810310Y-104058419D01*
X68570346Y-104090986D01*
X68309548Y-104080852D01*
X68145380Y-104051596D01*
X67939513Y-103977477D01*
X67804080Y-103865593D01*
X67734357Y-103722897D01*
X67715675Y-103613071D01*
X67702227Y-103449069D01*
X67693919Y-103248735D01*
X67690659Y-103029914D01*
X67692355Y-102810450D01*
X67698915Y-102608188D01*
X67710246Y-102440973D01*
X67726255Y-102326647D01*
X67741800Y-102285799D01*
X67810093Y-102257614D01*
X67931716Y-102239168D01*
X68029666Y-102235000D01*
X68169794Y-102243594D01*
G37*
X68169794Y-102243594D02*
X68277986Y-102265703D01*
X68317533Y-102285799D01*
X68341447Y-102350406D01*
X68357672Y-102490669D01*
X68366462Y-102709785D01*
X68368333Y-102920799D01*
X68368333Y-103505000D01*
X68622333Y-103505000D01*
X68622333Y-102917516D01*
X68624356Y-102667342D01*
X68631172Y-102489836D01*
X68643902Y-102373079D01*
X68663666Y-102305152D01*
X68682261Y-102280297D01*
X68761415Y-102252833D01*
X68898562Y-102241558D01*
X68989178Y-102243364D01*
X69236166Y-102256166D01*
X69247708Y-103003195D01*
X69251558Y-103271161D01*
X69252587Y-103468104D01*
X69249297Y-103607656D01*
X69240189Y-103703450D01*
X69223763Y-103769119D01*
X69198521Y-103818296D01*
X69162963Y-103864615D01*
X69151468Y-103878316D01*
X69010373Y-103986434D01*
X68810310Y-104058419D01*
X68570346Y-104090986D01*
X68309548Y-104080852D01*
X68145380Y-104051596D01*
X67939513Y-103977477D01*
X67804080Y-103865593D01*
X67734357Y-103722897D01*
X67715675Y-103613071D01*
X67702227Y-103449069D01*
X67693919Y-103248735D01*
X67690659Y-103029914D01*
X67692355Y-102810450D01*
X67698915Y-102608188D01*
X67710246Y-102440973D01*
X67726255Y-102326647D01*
X67741800Y-102285799D01*
X67810093Y-102257614D01*
X67931716Y-102239168D01*
X68029666Y-102235000D01*
X68169794Y-102243594D01*
G36*
X75550844Y-107916030D02*
G01*
X75797833Y-107928833D01*
X75810474Y-108245834D01*
X75815413Y-108447278D01*
X75805331Y-108593188D01*
X75771450Y-108712470D01*
X75704994Y-108834026D01*
X75597189Y-108986760D01*
X75577379Y-109013512D01*
X75462657Y-109180422D01*
X75394768Y-109316069D01*
X75360539Y-109448925D01*
X75354579Y-109495166D01*
X75332166Y-109706833D01*
X75055206Y-109719150D01*
X74908911Y-109721199D01*
X74797860Y-109714491D01*
X74748289Y-109701511D01*
X74729422Y-109643598D01*
X74719034Y-109535819D01*
X74718333Y-109497787D01*
X74708385Y-109393427D01*
X74671567Y-109289474D01*
X74597414Y-109163025D01*
X74505793Y-109032486D01*
X74387869Y-108866180D01*
X74312894Y-108738987D01*
X74272171Y-108622935D01*
X74257002Y-108490048D01*
X74258688Y-108312352D01*
X74261191Y-108245834D01*
X74273833Y-107928833D01*
X74866500Y-107928833D01*
X74887666Y-108225166D01*
X74910031Y-108406179D01*
X74945776Y-108550709D01*
X74977212Y-108618025D01*
X75045591Y-108714550D01*
X75114795Y-108608931D01*
X75164011Y-108475712D01*
X75183770Y-108279453D01*
X75184000Y-108253006D01*
X75193098Y-108081946D01*
X75230769Y-107977766D01*
X75312577Y-107926170D01*
X75454086Y-107912860D01*
X75550844Y-107916030D01*
G37*
X75550844Y-107916030D02*
X75797833Y-107928833D01*
X75810474Y-108245834D01*
X75815413Y-108447278D01*
X75805331Y-108593188D01*
X75771450Y-108712470D01*
X75704994Y-108834026D01*
X75597189Y-108986760D01*
X75577379Y-109013512D01*
X75462657Y-109180422D01*
X75394768Y-109316069D01*
X75360539Y-109448925D01*
X75354579Y-109495166D01*
X75332166Y-109706833D01*
X75055206Y-109719150D01*
X74908911Y-109721199D01*
X74797860Y-109714491D01*
X74748289Y-109701511D01*
X74729422Y-109643598D01*
X74719034Y-109535819D01*
X74718333Y-109497787D01*
X74708385Y-109393427D01*
X74671567Y-109289474D01*
X74597414Y-109163025D01*
X74505793Y-109032486D01*
X74387869Y-108866180D01*
X74312894Y-108738987D01*
X74272171Y-108622935D01*
X74257002Y-108490048D01*
X74258688Y-108312352D01*
X74261191Y-108245834D01*
X74273833Y-107928833D01*
X74866500Y-107928833D01*
X74887666Y-108225166D01*
X74910031Y-108406179D01*
X74945776Y-108550709D01*
X74977212Y-108618025D01*
X75045591Y-108714550D01*
X75114795Y-108608931D01*
X75164011Y-108475712D01*
X75183770Y-108279453D01*
X75184000Y-108253006D01*
X75193098Y-108081946D01*
X75230769Y-107977766D01*
X75312577Y-107926170D01*
X75454086Y-107912860D01*
X75550844Y-107916030D01*
G36*
X73675758Y-107937035D02*
G01*
X73844683Y-107985475D01*
X73955668Y-108065438D01*
X74017026Y-108181663D01*
X74037070Y-108338891D01*
X74034414Y-108431011D01*
X74032788Y-108584009D01*
X74056062Y-108683983D01*
X74101071Y-108750496D01*
X74159746Y-108862911D01*
X74195558Y-109026945D01*
X74205420Y-109211893D01*
X74186242Y-109387049D01*
X74170843Y-109444217D01*
X74125015Y-109545343D01*
X74055924Y-109620002D01*
X73951710Y-109671891D01*
X73800516Y-109704708D01*
X73590481Y-109722149D01*
X73309748Y-109727913D01*
X73260690Y-109728000D01*
X73010505Y-109725736D01*
X72835287Y-109718368D01*
X72725444Y-109705026D01*
X72671380Y-109684842D01*
X72662911Y-109673889D01*
X72657109Y-109616544D01*
X72653086Y-109488331D01*
X72650984Y-109303034D01*
X72650956Y-109135333D01*
X73279000Y-109135333D01*
X73295574Y-109193687D01*
X73360277Y-109217232D01*
X73427166Y-109220000D01*
X73529286Y-109210529D01*
X73570490Y-109173555D01*
X73575333Y-109135333D01*
X73558759Y-109076979D01*
X73494055Y-109053434D01*
X73427166Y-109050666D01*
X73325047Y-109060137D01*
X73283843Y-109097111D01*
X73279000Y-109135333D01*
X72650956Y-109135333D01*
X72650945Y-109074434D01*
X72653111Y-108816316D01*
X72653657Y-108774305D01*
X72657386Y-108500333D01*
X73279000Y-108500333D01*
X73308934Y-108571085D01*
X73363666Y-108585000D01*
X73434418Y-108555065D01*
X73448333Y-108500333D01*
X73418399Y-108429581D01*
X73363666Y-108415666D01*
X73292914Y-108445600D01*
X73279000Y-108500333D01*
X72657386Y-108500333D01*
X72665166Y-107928833D01*
X73130833Y-107915757D01*
X73440579Y-107915376D01*
X73675758Y-107937035D01*
G37*
X73675758Y-107937035D02*
X73844683Y-107985475D01*
X73955668Y-108065438D01*
X74017026Y-108181663D01*
X74037070Y-108338891D01*
X74034414Y-108431011D01*
X74032788Y-108584009D01*
X74056062Y-108683983D01*
X74101071Y-108750496D01*
X74159746Y-108862911D01*
X74195558Y-109026945D01*
X74205420Y-109211893D01*
X74186242Y-109387049D01*
X74170843Y-109444217D01*
X74125015Y-109545343D01*
X74055924Y-109620002D01*
X73951710Y-109671891D01*
X73800516Y-109704708D01*
X73590481Y-109722149D01*
X73309748Y-109727913D01*
X73260690Y-109728000D01*
X73010505Y-109725736D01*
X72835287Y-109718368D01*
X72725444Y-109705026D01*
X72671380Y-109684842D01*
X72662911Y-109673889D01*
X72657109Y-109616544D01*
X72653086Y-109488331D01*
X72650984Y-109303034D01*
X72650956Y-109135333D01*
X73279000Y-109135333D01*
X73295574Y-109193687D01*
X73360277Y-109217232D01*
X73427166Y-109220000D01*
X73529286Y-109210529D01*
X73570490Y-109173555D01*
X73575333Y-109135333D01*
X73558759Y-109076979D01*
X73494055Y-109053434D01*
X73427166Y-109050666D01*
X73325047Y-109060137D01*
X73283843Y-109097111D01*
X73279000Y-109135333D01*
X72650956Y-109135333D01*
X72650945Y-109074434D01*
X72653111Y-108816316D01*
X72653657Y-108774305D01*
X72657386Y-108500333D01*
X73279000Y-108500333D01*
X73308934Y-108571085D01*
X73363666Y-108585000D01*
X73434418Y-108555065D01*
X73448333Y-108500333D01*
X73418399Y-108429581D01*
X73363666Y-108415666D01*
X73292914Y-108445600D01*
X73279000Y-108500333D01*
X72657386Y-108500333D01*
X72665166Y-107928833D01*
X73130833Y-107915757D01*
X73440579Y-107915376D01*
X73675758Y-107937035D01*
G36*
X82381256Y-110755108D02*
G01*
X82527182Y-110766094D01*
X82607235Y-110784294D01*
X82620429Y-110792084D01*
X82660865Y-110870711D01*
X82670169Y-111018488D01*
X82668392Y-111057739D01*
X82655833Y-111273166D01*
X82444166Y-111294333D01*
X82232500Y-111315500D01*
X82190166Y-112543166D01*
X81913206Y-112555483D01*
X81766911Y-112557532D01*
X81655860Y-112550824D01*
X81606289Y-112537844D01*
X81595585Y-112486877D01*
X81586572Y-112367218D01*
X81580001Y-112194838D01*
X81576623Y-111985705D01*
X81576333Y-111901111D01*
X81576333Y-111294333D01*
X81148959Y-111294333D01*
X81161563Y-111029750D01*
X81174166Y-110765166D01*
X81867036Y-110753510D01*
X82163270Y-110751019D01*
X82381256Y-110755108D01*
G37*
X82381256Y-110755108D02*
X82527182Y-110766094D01*
X82607235Y-110784294D01*
X82620429Y-110792084D01*
X82660865Y-110870711D01*
X82670169Y-111018488D01*
X82668392Y-111057739D01*
X82655833Y-111273166D01*
X82444166Y-111294333D01*
X82232500Y-111315500D01*
X82190166Y-112543166D01*
X81913206Y-112555483D01*
X81766911Y-112557532D01*
X81655860Y-112550824D01*
X81606289Y-112537844D01*
X81595585Y-112486877D01*
X81586572Y-112367218D01*
X81580001Y-112194838D01*
X81576623Y-111985705D01*
X81576333Y-111901111D01*
X81576333Y-111294333D01*
X81148959Y-111294333D01*
X81161563Y-111029750D01*
X81174166Y-110765166D01*
X81867036Y-110753510D01*
X82163270Y-110751019D01*
X82381256Y-110755108D01*
G36*
X78600837Y-110765645D02*
G01*
X78764157Y-110768862D01*
X78874556Y-110777486D01*
X78947908Y-110794186D01*
X79000086Y-110821632D01*
X79046961Y-110862493D01*
X79067223Y-110882631D01*
X79130604Y-110955076D01*
X79165983Y-111030521D01*
X79181300Y-111136612D01*
X79184500Y-111290917D01*
X79191233Y-111469985D01*
X79214347Y-111586866D01*
X79258216Y-111663182D01*
X79260243Y-111665453D01*
X79296576Y-111719215D01*
X79317854Y-111794509D01*
X79326622Y-111910580D01*
X79325421Y-112086675D01*
X79323743Y-112146167D01*
X79311500Y-112543166D01*
X79064511Y-112555969D01*
X78887364Y-112555940D01*
X78777624Y-112524722D01*
X78719984Y-112449198D01*
X78699135Y-112316252D01*
X78697666Y-112241649D01*
X78697666Y-112014000D01*
X78401333Y-112014000D01*
X78401333Y-112238366D01*
X78392256Y-112375047D01*
X78369032Y-112479546D01*
X78350533Y-112513533D01*
X78280227Y-112543919D01*
X78162658Y-112560713D01*
X78026138Y-112564079D01*
X77898975Y-112554183D01*
X77809481Y-112531192D01*
X77785245Y-112510222D01*
X77779442Y-112452877D01*
X77775419Y-112324664D01*
X77773317Y-112139367D01*
X77773278Y-111910768D01*
X77775444Y-111652650D01*
X77775990Y-111610639D01*
X77779143Y-111379000D01*
X78401333Y-111379000D01*
X78431267Y-111449752D01*
X78486000Y-111463666D01*
X78556752Y-111433732D01*
X78570666Y-111379000D01*
X78540732Y-111308247D01*
X78486000Y-111294333D01*
X78415247Y-111324267D01*
X78401333Y-111379000D01*
X77779143Y-111379000D01*
X77787500Y-110765166D01*
X78368723Y-110765166D01*
X78600837Y-110765645D01*
G37*
X78600837Y-110765645D02*
X78764157Y-110768862D01*
X78874556Y-110777486D01*
X78947908Y-110794186D01*
X79000086Y-110821632D01*
X79046961Y-110862493D01*
X79067223Y-110882631D01*
X79130604Y-110955076D01*
X79165983Y-111030521D01*
X79181300Y-111136612D01*
X79184500Y-111290917D01*
X79191233Y-111469985D01*
X79214347Y-111586866D01*
X79258216Y-111663182D01*
X79260243Y-111665453D01*
X79296576Y-111719215D01*
X79317854Y-111794509D01*
X79326622Y-111910580D01*
X79325421Y-112086675D01*
X79323743Y-112146167D01*
X79311500Y-112543166D01*
X79064511Y-112555969D01*
X78887364Y-112555940D01*
X78777624Y-112524722D01*
X78719984Y-112449198D01*
X78699135Y-112316252D01*
X78697666Y-112241649D01*
X78697666Y-112014000D01*
X78401333Y-112014000D01*
X78401333Y-112238366D01*
X78392256Y-112375047D01*
X78369032Y-112479546D01*
X78350533Y-112513533D01*
X78280227Y-112543919D01*
X78162658Y-112560713D01*
X78026138Y-112564079D01*
X77898975Y-112554183D01*
X77809481Y-112531192D01*
X77785245Y-112510222D01*
X77779442Y-112452877D01*
X77775419Y-112324664D01*
X77773317Y-112139367D01*
X77773278Y-111910768D01*
X77775444Y-111652650D01*
X77775990Y-111610639D01*
X77779143Y-111379000D01*
X78401333Y-111379000D01*
X78431267Y-111449752D01*
X78486000Y-111463666D01*
X78556752Y-111433732D01*
X78570666Y-111379000D01*
X78540732Y-111308247D01*
X78486000Y-111294333D01*
X78415247Y-111324267D01*
X78401333Y-111379000D01*
X77779143Y-111379000D01*
X77787500Y-110765166D01*
X78368723Y-110765166D01*
X78600837Y-110765645D01*
G36*
X77046851Y-110770370D02*
G01*
X77218569Y-110815055D01*
X77332674Y-110890280D01*
X77397730Y-111001169D01*
X77422296Y-111152848D01*
X77418752Y-111304251D01*
X77411768Y-111455211D01*
X77421592Y-111547614D01*
X77453446Y-111606773D01*
X77487769Y-111638849D01*
X77531616Y-111686167D01*
X77560006Y-111755202D01*
X77577400Y-111865437D01*
X77588263Y-112036353D01*
X77590314Y-112086481D01*
X77594105Y-112295495D01*
X77579399Y-112433769D01*
X77535813Y-112514839D01*
X77452962Y-112552242D01*
X77320462Y-112559514D01*
X77230155Y-112555969D01*
X76983166Y-112543166D01*
X76970563Y-112278583D01*
X76957959Y-112014000D01*
X76627373Y-112014000D01*
X76614770Y-112278583D01*
X76602166Y-112543166D01*
X76348166Y-112554113D01*
X76203001Y-112554442D01*
X76088760Y-112544018D01*
X76040349Y-112529892D01*
X76021374Y-112497078D01*
X76007841Y-112421239D01*
X75999329Y-112293474D01*
X75995420Y-112104882D01*
X75995697Y-111846562D01*
X75998016Y-111629945D01*
X76001348Y-111379000D01*
X76623333Y-111379000D01*
X76653267Y-111449752D01*
X76708000Y-111463666D01*
X76778752Y-111433732D01*
X76792666Y-111379000D01*
X76762732Y-111308247D01*
X76708000Y-111294333D01*
X76637247Y-111324267D01*
X76623333Y-111379000D01*
X76001348Y-111379000D01*
X76009500Y-110765166D01*
X76496333Y-110752119D01*
X76808960Y-110751099D01*
X77046851Y-110770370D01*
G37*
X77046851Y-110770370D02*
X77218569Y-110815055D01*
X77332674Y-110890280D01*
X77397730Y-111001169D01*
X77422296Y-111152848D01*
X77418752Y-111304251D01*
X77411768Y-111455211D01*
X77421592Y-111547614D01*
X77453446Y-111606773D01*
X77487769Y-111638849D01*
X77531616Y-111686167D01*
X77560006Y-111755202D01*
X77577400Y-111865437D01*
X77588263Y-112036353D01*
X77590314Y-112086481D01*
X77594105Y-112295495D01*
X77579399Y-112433769D01*
X77535813Y-112514839D01*
X77452962Y-112552242D01*
X77320462Y-112559514D01*
X77230155Y-112555969D01*
X76983166Y-112543166D01*
X76970563Y-112278583D01*
X76957959Y-112014000D01*
X76627373Y-112014000D01*
X76614770Y-112278583D01*
X76602166Y-112543166D01*
X76348166Y-112554113D01*
X76203001Y-112554442D01*
X76088760Y-112544018D01*
X76040349Y-112529892D01*
X76021374Y-112497078D01*
X76007841Y-112421239D01*
X75999329Y-112293474D01*
X75995420Y-112104882D01*
X75995697Y-111846562D01*
X75998016Y-111629945D01*
X76001348Y-111379000D01*
X76623333Y-111379000D01*
X76653267Y-111449752D01*
X76708000Y-111463666D01*
X76778752Y-111433732D01*
X76792666Y-111379000D01*
X76762732Y-111308247D01*
X76708000Y-111294333D01*
X76637247Y-111324267D01*
X76623333Y-111379000D01*
X76001348Y-111379000D01*
X76009500Y-110765166D01*
X76496333Y-110752119D01*
X76808960Y-110751099D01*
X77046851Y-110770370D01*
G36*
X75494657Y-110858956D02*
G01*
X75534949Y-110950918D01*
X75592124Y-111098094D01*
X75656566Y-111275288D01*
X75686999Y-111362857D01*
X75757404Y-111587098D01*
X75798171Y-111773805D01*
X75816202Y-111961819D01*
X75819000Y-112105807D01*
X75812688Y-112304723D01*
X75794852Y-112445374D01*
X75768200Y-112513533D01*
X75700262Y-112541352D01*
X75578322Y-112559804D01*
X75473356Y-112564333D01*
X75304661Y-112551804D01*
X75203125Y-112505394D01*
X75153796Y-112411872D01*
X75141666Y-112270783D01*
X75133474Y-112183152D01*
X75091636Y-112147572D01*
X74995819Y-112141000D01*
X74907667Y-112145290D01*
X74863098Y-112173076D01*
X74844449Y-112246731D01*
X74837069Y-112342083D01*
X74824166Y-112543166D01*
X74566298Y-112555595D01*
X74402194Y-112556365D01*
X74302357Y-112537060D01*
X74254564Y-112503119D01*
X74228514Y-112439740D01*
X74215752Y-112321427D01*
X74215497Y-112136801D01*
X74220360Y-112003857D01*
X74233954Y-111784078D01*
X74256826Y-111613091D01*
X74275496Y-111539445D01*
X74915388Y-111539445D01*
X74926206Y-111581163D01*
X74983576Y-111590558D01*
X75002051Y-111590666D01*
X75075748Y-111580823D01*
X75091565Y-111533954D01*
X75079760Y-111474250D01*
X75041204Y-111359307D01*
X75002469Y-111328767D01*
X74962460Y-111382369D01*
X74941385Y-111441456D01*
X74915388Y-111539445D01*
X74275496Y-111539445D01*
X74296897Y-111455029D01*
X74362088Y-111274029D01*
X74405094Y-111167333D01*
X74570166Y-110765166D01*
X75002240Y-110753122D01*
X75434315Y-110741078D01*
X75494657Y-110858956D01*
G37*
X75494657Y-110858956D02*
X75534949Y-110950918D01*
X75592124Y-111098094D01*
X75656566Y-111275288D01*
X75686999Y-111362857D01*
X75757404Y-111587098D01*
X75798171Y-111773805D01*
X75816202Y-111961819D01*
X75819000Y-112105807D01*
X75812688Y-112304723D01*
X75794852Y-112445374D01*
X75768200Y-112513533D01*
X75700262Y-112541352D01*
X75578322Y-112559804D01*
X75473356Y-112564333D01*
X75304661Y-112551804D01*
X75203125Y-112505394D01*
X75153796Y-112411872D01*
X75141666Y-112270783D01*
X75133474Y-112183152D01*
X75091636Y-112147572D01*
X74995819Y-112141000D01*
X74907667Y-112145290D01*
X74863098Y-112173076D01*
X74844449Y-112246731D01*
X74837069Y-112342083D01*
X74824166Y-112543166D01*
X74566298Y-112555595D01*
X74402194Y-112556365D01*
X74302357Y-112537060D01*
X74254564Y-112503119D01*
X74228514Y-112439740D01*
X74215752Y-112321427D01*
X74215497Y-112136801D01*
X74220360Y-112003857D01*
X74233954Y-111784078D01*
X74256826Y-111613091D01*
X74275496Y-111539445D01*
X74915388Y-111539445D01*
X74926206Y-111581163D01*
X74983576Y-111590558D01*
X75002051Y-111590666D01*
X75075748Y-111580823D01*
X75091565Y-111533954D01*
X75079760Y-111474250D01*
X75041204Y-111359307D01*
X75002469Y-111328767D01*
X74962460Y-111382369D01*
X74941385Y-111441456D01*
X74915388Y-111539445D01*
X74275496Y-111539445D01*
X74296897Y-111455029D01*
X74362088Y-111274029D01*
X74405094Y-111167333D01*
X74570166Y-110765166D01*
X75002240Y-110753122D01*
X75434315Y-110741078D01*
X75494657Y-110858956D01*
G36*
X73720889Y-110771902D02*
G01*
X73893321Y-110820931D01*
X74010619Y-110904476D01*
X74082148Y-111028860D01*
X74117274Y-111200410D01*
X74125508Y-111395292D01*
X74114561Y-111638681D01*
X74076791Y-111813033D01*
X74004417Y-111931810D01*
X73889655Y-112008471D01*
X73745751Y-112052145D01*
X73599010Y-112079377D01*
X73470687Y-112096124D01*
X73425082Y-112098666D01*
X73359936Y-112107382D01*
X73329797Y-112148904D01*
X73321525Y-112246290D01*
X73321333Y-112280700D01*
X73310160Y-112405443D01*
X73282221Y-112496950D01*
X73270533Y-112513533D01*
X73200227Y-112543919D01*
X73082658Y-112560713D01*
X72946138Y-112564079D01*
X72818975Y-112554183D01*
X72729481Y-112531192D01*
X72705245Y-112510222D01*
X72699442Y-112452877D01*
X72695419Y-112324664D01*
X72693317Y-112139367D01*
X72693278Y-111910768D01*
X72695444Y-111652650D01*
X72695990Y-111610639D01*
X72698607Y-111418389D01*
X73321333Y-111418389D01*
X73331966Y-111510351D01*
X73378271Y-111544664D01*
X73429978Y-111548333D01*
X73507386Y-111536132D01*
X73528735Y-111481983D01*
X73525228Y-111431916D01*
X73490151Y-111336191D01*
X73416583Y-111301972D01*
X73349483Y-111305314D01*
X73324121Y-111356954D01*
X73321333Y-111418389D01*
X72698607Y-111418389D01*
X72707500Y-110765166D01*
X73173166Y-110752091D01*
X73483959Y-110751064D01*
X73720889Y-110771902D01*
G37*
X73720889Y-110771902D02*
X73893321Y-110820931D01*
X74010619Y-110904476D01*
X74082148Y-111028860D01*
X74117274Y-111200410D01*
X74125508Y-111395292D01*
X74114561Y-111638681D01*
X74076791Y-111813033D01*
X74004417Y-111931810D01*
X73889655Y-112008471D01*
X73745751Y-112052145D01*
X73599010Y-112079377D01*
X73470687Y-112096124D01*
X73425082Y-112098666D01*
X73359936Y-112107382D01*
X73329797Y-112148904D01*
X73321525Y-112246290D01*
X73321333Y-112280700D01*
X73310160Y-112405443D01*
X73282221Y-112496950D01*
X73270533Y-112513533D01*
X73200227Y-112543919D01*
X73082658Y-112560713D01*
X72946138Y-112564079D01*
X72818975Y-112554183D01*
X72729481Y-112531192D01*
X72705245Y-112510222D01*
X72699442Y-112452877D01*
X72695419Y-112324664D01*
X72693317Y-112139367D01*
X72693278Y-111910768D01*
X72695444Y-111652650D01*
X72695990Y-111610639D01*
X72698607Y-111418389D01*
X73321333Y-111418389D01*
X73331966Y-111510351D01*
X73378271Y-111544664D01*
X73429978Y-111548333D01*
X73507386Y-111536132D01*
X73528735Y-111481983D01*
X73525228Y-111431916D01*
X73490151Y-111336191D01*
X73416583Y-111301972D01*
X73349483Y-111305314D01*
X73324121Y-111356954D01*
X73321333Y-111418389D01*
X72698607Y-111418389D01*
X72707500Y-110765166D01*
X73173166Y-110752091D01*
X73483959Y-110751064D01*
X73720889Y-110771902D01*
G36*
X72453500Y-111273166D02*
G01*
X72104250Y-111285462D01*
X71926748Y-111297853D01*
X71810647Y-111317484D01*
X71760554Y-111339868D01*
X71781079Y-111360519D01*
X71876827Y-111374949D01*
X72008193Y-111379000D01*
X72150606Y-111382125D01*
X72230363Y-111396756D01*
X72269395Y-111430770D01*
X72286479Y-111478975D01*
X72300241Y-111593159D01*
X72297869Y-111722392D01*
X72284166Y-111865833D01*
X72019583Y-111878436D01*
X71863109Y-111891849D01*
X71778951Y-111915553D01*
X71755000Y-111950807D01*
X71776103Y-111982565D01*
X71848025Y-112003847D01*
X71983685Y-112017316D01*
X72104250Y-112022871D01*
X72453500Y-112035166D01*
X72453500Y-112543166D01*
X71807013Y-112554857D01*
X71546283Y-112557918D01*
X71359619Y-112555751D01*
X71236542Y-112547672D01*
X71166572Y-112532998D01*
X71139336Y-112511329D01*
X71133403Y-112453631D01*
X71129266Y-112325089D01*
X71127073Y-112139508D01*
X71126973Y-111910694D01*
X71129114Y-111652454D01*
X71129657Y-111610639D01*
X71141166Y-110765166D01*
X72453500Y-110765166D01*
X72453500Y-111273166D01*
G37*
X72453500Y-111273166D02*
X72104250Y-111285462D01*
X71926748Y-111297853D01*
X71810647Y-111317484D01*
X71760554Y-111339868D01*
X71781079Y-111360519D01*
X71876827Y-111374949D01*
X72008193Y-111379000D01*
X72150606Y-111382125D01*
X72230363Y-111396756D01*
X72269395Y-111430770D01*
X72286479Y-111478975D01*
X72300241Y-111593159D01*
X72297869Y-111722392D01*
X72284166Y-111865833D01*
X72019583Y-111878436D01*
X71863109Y-111891849D01*
X71778951Y-111915553D01*
X71755000Y-111950807D01*
X71776103Y-111982565D01*
X71848025Y-112003847D01*
X71983685Y-112017316D01*
X72104250Y-112022871D01*
X72453500Y-112035166D01*
X72453500Y-112543166D01*
X71807013Y-112554857D01*
X71546283Y-112557918D01*
X71359619Y-112555751D01*
X71236542Y-112547672D01*
X71166572Y-112532998D01*
X71139336Y-112511329D01*
X71133403Y-112453631D01*
X71129266Y-112325089D01*
X71127073Y-112139508D01*
X71126973Y-111910694D01*
X71129114Y-111652454D01*
X71129657Y-111610639D01*
X71141166Y-110765166D01*
X72453500Y-110765166D01*
X72453500Y-111273166D01*
G36*
X70677170Y-110757753D02*
G01*
X70804435Y-110772997D01*
X70849643Y-110790325D01*
X70888732Y-110870158D01*
X70907166Y-111021381D01*
X70908333Y-111082173D01*
X70905878Y-111195337D01*
X70891930Y-111282980D01*
X70856616Y-111365975D01*
X70790060Y-111465198D01*
X70682388Y-111601524D01*
X70635447Y-111659072D01*
X70362560Y-111992833D01*
X70646030Y-112014000D01*
X70929500Y-112035166D01*
X70942523Y-112263993D01*
X70940861Y-112429153D01*
X70912203Y-112517207D01*
X70900190Y-112527928D01*
X70840537Y-112540181D01*
X70716060Y-112549950D01*
X70544814Y-112557125D01*
X70344857Y-112561598D01*
X70134243Y-112563260D01*
X69931030Y-112562004D01*
X69753273Y-112557719D01*
X69619029Y-112550299D01*
X69546353Y-112539633D01*
X69539555Y-112536111D01*
X69524635Y-112481781D01*
X69514406Y-112369162D01*
X69511333Y-112248922D01*
X69513157Y-112130734D01*
X69525138Y-112041477D01*
X69557034Y-111960415D01*
X69618607Y-111866813D01*
X69719616Y-111739936D01*
X69791963Y-111652728D01*
X70072593Y-111315500D01*
X69811163Y-111302845D01*
X69549734Y-111290191D01*
X69562283Y-111027678D01*
X69574833Y-110765166D01*
X70182893Y-110753391D01*
X70470855Y-110751266D01*
X70677170Y-110757753D01*
G37*
X70677170Y-110757753D02*
X70804435Y-110772997D01*
X70849643Y-110790325D01*
X70888732Y-110870158D01*
X70907166Y-111021381D01*
X70908333Y-111082173D01*
X70905878Y-111195337D01*
X70891930Y-111282980D01*
X70856616Y-111365975D01*
X70790060Y-111465198D01*
X70682388Y-111601524D01*
X70635447Y-111659072D01*
X70362560Y-111992833D01*
X70646030Y-112014000D01*
X70929500Y-112035166D01*
X70942523Y-112263993D01*
X70940861Y-112429153D01*
X70912203Y-112517207D01*
X70900190Y-112527928D01*
X70840537Y-112540181D01*
X70716060Y-112549950D01*
X70544814Y-112557125D01*
X70344857Y-112561598D01*
X70134243Y-112563260D01*
X69931030Y-112562004D01*
X69753273Y-112557719D01*
X69619029Y-112550299D01*
X69546353Y-112539633D01*
X69539555Y-112536111D01*
X69524635Y-112481781D01*
X69514406Y-112369162D01*
X69511333Y-112248922D01*
X69513157Y-112130734D01*
X69525138Y-112041477D01*
X69557034Y-111960415D01*
X69618607Y-111866813D01*
X69719616Y-111739936D01*
X69791963Y-111652728D01*
X70072593Y-111315500D01*
X69811163Y-111302845D01*
X69549734Y-111290191D01*
X69562283Y-111027678D01*
X69574833Y-110765166D01*
X70182893Y-110753391D01*
X70470855Y-110751266D01*
X70677170Y-110757753D01*
G36*
X66369059Y-110774689D02*
G01*
X66429799Y-110839592D01*
X66457340Y-110959418D01*
X66464554Y-111148489D01*
X66464620Y-111161933D01*
X66468169Y-111324586D01*
X66478117Y-111410487D01*
X66495850Y-111427403D01*
X66509057Y-111410750D01*
X66584115Y-111354081D01*
X66720765Y-111336666D01*
X66848815Y-111350882D01*
X66913315Y-111397730D01*
X66919745Y-111410750D01*
X66935870Y-111407716D01*
X66952184Y-111332193D01*
X66966495Y-111196325D01*
X66971333Y-111125000D01*
X66992500Y-110765166D01*
X67239488Y-110752364D01*
X67397553Y-110753446D01*
X67511699Y-110772411D01*
X67546405Y-110789297D01*
X67578073Y-110858936D01*
X67599432Y-110994533D01*
X67610795Y-111178050D01*
X67612474Y-111391446D01*
X67604781Y-111616683D01*
X67588031Y-111835721D01*
X67562534Y-112030522D01*
X67528604Y-112183044D01*
X67521890Y-112203848D01*
X67458138Y-112376150D01*
X67400007Y-112482670D01*
X67330009Y-112539076D01*
X67230653Y-112561036D01*
X67119500Y-112564333D01*
X66976419Y-112557544D01*
X66885469Y-112525406D01*
X66825244Y-112450258D01*
X66774336Y-112314442D01*
X66760277Y-112268000D01*
X66703730Y-112077500D01*
X66648382Y-112262035D01*
X66593004Y-112419158D01*
X66529700Y-112510260D01*
X66436401Y-112552797D01*
X66291034Y-112564222D01*
X66266145Y-112564333D01*
X66036991Y-112564333D01*
X65943725Y-112363250D01*
X65908582Y-112280097D01*
X65883475Y-112195546D01*
X65866737Y-112093587D01*
X65856699Y-111958212D01*
X65851693Y-111773412D01*
X65850051Y-111523177D01*
X65849980Y-111463666D01*
X65849500Y-110765166D01*
X66096488Y-110752364D01*
X66262246Y-110750387D01*
X66369059Y-110774689D01*
G37*
X66369059Y-110774689D02*
X66429799Y-110839592D01*
X66457340Y-110959418D01*
X66464554Y-111148489D01*
X66464620Y-111161933D01*
X66468169Y-111324586D01*
X66478117Y-111410487D01*
X66495850Y-111427403D01*
X66509057Y-111410750D01*
X66584115Y-111354081D01*
X66720765Y-111336666D01*
X66848815Y-111350882D01*
X66913315Y-111397730D01*
X66919745Y-111410750D01*
X66935870Y-111407716D01*
X66952184Y-111332193D01*
X66966495Y-111196325D01*
X66971333Y-111125000D01*
X66992500Y-110765166D01*
X67239488Y-110752364D01*
X67397553Y-110753446D01*
X67511699Y-110772411D01*
X67546405Y-110789297D01*
X67578073Y-110858936D01*
X67599432Y-110994533D01*
X67610795Y-111178050D01*
X67612474Y-111391446D01*
X67604781Y-111616683D01*
X67588031Y-111835721D01*
X67562534Y-112030522D01*
X67528604Y-112183044D01*
X67521890Y-112203848D01*
X67458138Y-112376150D01*
X67400007Y-112482670D01*
X67330009Y-112539076D01*
X67230653Y-112561036D01*
X67119500Y-112564333D01*
X66976419Y-112557544D01*
X66885469Y-112525406D01*
X66825244Y-112450258D01*
X66774336Y-112314442D01*
X66760277Y-112268000D01*
X66703730Y-112077500D01*
X66648382Y-112262035D01*
X66593004Y-112419158D01*
X66529700Y-112510260D01*
X66436401Y-112552797D01*
X66291034Y-112564222D01*
X66266145Y-112564333D01*
X66036991Y-112564333D01*
X65943725Y-112363250D01*
X65908582Y-112280097D01*
X65883475Y-112195546D01*
X65866737Y-112093587D01*
X65856699Y-111958212D01*
X65851693Y-111773412D01*
X65850051Y-111523177D01*
X65849980Y-111463666D01*
X65849500Y-110765166D01*
X66096488Y-110752364D01*
X66262246Y-110750387D01*
X66369059Y-110774689D01*
G36*
X80563907Y-110742060D02*
G01*
X80740378Y-110784734D01*
X80776454Y-110800161D01*
X80877109Y-110858267D01*
X80949582Y-110928254D01*
X80998347Y-111024230D01*
X81027875Y-111160302D01*
X81042637Y-111350577D01*
X81047107Y-111609163D01*
X81047166Y-111654166D01*
X81043741Y-111924958D01*
X81030615Y-112125122D01*
X81003510Y-112268523D01*
X80958152Y-112369026D01*
X80890262Y-112440496D01*
X80795565Y-112496798D01*
X80785817Y-112501483D01*
X80637790Y-112547445D01*
X80439338Y-112577703D01*
X80223644Y-112589906D01*
X80023891Y-112581701D01*
X79914047Y-112563253D01*
X79752083Y-112511857D01*
X79632940Y-112442860D01*
X79550395Y-112343707D01*
X79498226Y-112201844D01*
X79470210Y-112004717D01*
X79460125Y-111739770D01*
X79459666Y-111646489D01*
X79465099Y-111373312D01*
X79472649Y-111294333D01*
X80137000Y-111294333D01*
X80137000Y-112014000D01*
X80391000Y-112014000D01*
X80391000Y-111294333D01*
X80137000Y-111294333D01*
X79472649Y-111294333D01*
X79484507Y-111170313D01*
X79522551Y-111023518D01*
X79583893Y-110918952D01*
X79673196Y-110842640D01*
X79740208Y-110805540D01*
X79902521Y-110754862D01*
X80114336Y-110727283D01*
X80345012Y-110722963D01*
X80563907Y-110742060D01*
G37*
X80563907Y-110742060D02*
X80740378Y-110784734D01*
X80776454Y-110800161D01*
X80877109Y-110858267D01*
X80949582Y-110928254D01*
X80998347Y-111024230D01*
X81027875Y-111160302D01*
X81042637Y-111350577D01*
X81047107Y-111609163D01*
X81047166Y-111654166D01*
X81043741Y-111924958D01*
X81030615Y-112125122D01*
X81003510Y-112268523D01*
X80958152Y-112369026D01*
X80890262Y-112440496D01*
X80795565Y-112496798D01*
X80785817Y-112501483D01*
X80637790Y-112547445D01*
X80439338Y-112577703D01*
X80223644Y-112589906D01*
X80023891Y-112581701D01*
X79914047Y-112563253D01*
X79752083Y-112511857D01*
X79632940Y-112442860D01*
X79550395Y-112343707D01*
X79498226Y-112201844D01*
X79470210Y-112004717D01*
X79460125Y-111739770D01*
X79459666Y-111646489D01*
X79465099Y-111373312D01*
X79472649Y-111294333D01*
X80137000Y-111294333D01*
X80137000Y-112014000D01*
X80391000Y-112014000D01*
X80391000Y-111294333D01*
X80137000Y-111294333D01*
X79472649Y-111294333D01*
X79484507Y-111170313D01*
X79522551Y-111023518D01*
X79583893Y-110918952D01*
X79673196Y-110842640D01*
X79740208Y-110805540D01*
X79902521Y-110754862D01*
X80114336Y-110727283D01*
X80345012Y-110722963D01*
X80563907Y-110742060D01*
G36*
X68558833Y-110724069D02*
G01*
X68785802Y-110731251D01*
X68947466Y-110752841D01*
X69062370Y-110791492D01*
X69074846Y-110797911D01*
X69173669Y-110857074D01*
X69244700Y-110921396D01*
X69292473Y-111005411D01*
X69321524Y-111123654D01*
X69336386Y-111290659D01*
X69341596Y-111520961D01*
X69342000Y-111654166D01*
X69339643Y-111919883D01*
X69329656Y-112115307D01*
X69307663Y-112254749D01*
X69269290Y-112352523D01*
X69210160Y-112422938D01*
X69125900Y-112480307D01*
X69082254Y-112503804D01*
X68953375Y-112545841D01*
X68771150Y-112575248D01*
X68566275Y-112589650D01*
X68369446Y-112586676D01*
X68234393Y-112569355D01*
X68036748Y-112500711D01*
X67889021Y-112394715D01*
X67816110Y-112284196D01*
X67796568Y-112186818D01*
X67783612Y-112029194D01*
X67777024Y-111832345D01*
X67776590Y-111617293D01*
X67782093Y-111405058D01*
X67788689Y-111294333D01*
X68410666Y-111294333D01*
X68410666Y-112014000D01*
X68707000Y-112014000D01*
X68707000Y-111294333D01*
X68410666Y-111294333D01*
X67788689Y-111294333D01*
X67793317Y-111216663D01*
X67810046Y-111073128D01*
X67829302Y-111000317D01*
X67925971Y-110873529D01*
X68072217Y-110787707D01*
X68277879Y-110739124D01*
X68552794Y-110724055D01*
X68558833Y-110724069D01*
G37*
X68558833Y-110724069D02*
X68785802Y-110731251D01*
X68947466Y-110752841D01*
X69062370Y-110791492D01*
X69074846Y-110797911D01*
X69173669Y-110857074D01*
X69244700Y-110921396D01*
X69292473Y-111005411D01*
X69321524Y-111123654D01*
X69336386Y-111290659D01*
X69341596Y-111520961D01*
X69342000Y-111654166D01*
X69339643Y-111919883D01*
X69329656Y-112115307D01*
X69307663Y-112254749D01*
X69269290Y-112352523D01*
X69210160Y-112422938D01*
X69125900Y-112480307D01*
X69082254Y-112503804D01*
X68953375Y-112545841D01*
X68771150Y-112575248D01*
X68566275Y-112589650D01*
X68369446Y-112586676D01*
X68234393Y-112569355D01*
X68036748Y-112500711D01*
X67889021Y-112394715D01*
X67816110Y-112284196D01*
X67796568Y-112186818D01*
X67783612Y-112029194D01*
X67777024Y-111832345D01*
X67776590Y-111617293D01*
X67782093Y-111405058D01*
X67788689Y-111294333D01*
X68410666Y-111294333D01*
X68410666Y-112014000D01*
X68707000Y-112014000D01*
X68707000Y-111294333D01*
X68410666Y-111294333D01*
X67788689Y-111294333D01*
X67793317Y-111216663D01*
X67810046Y-111073128D01*
X67829302Y-111000317D01*
X67925971Y-110873529D01*
X68072217Y-110787707D01*
X68277879Y-110739124D01*
X68552794Y-110724055D01*
X68558833Y-110724069D01*
G36*
X84574767Y-91688523D02*
G01*
X85102279Y-91795158D01*
X85588679Y-91973167D01*
X86029813Y-92220035D01*
X86421522Y-92533243D01*
X86759650Y-92910278D01*
X86884516Y-93086801D01*
X86982946Y-93250626D01*
X87081466Y-93438674D01*
X87170657Y-93629964D01*
X87241104Y-93803513D01*
X87283389Y-93938339D01*
X87291333Y-93993214D01*
X87327692Y-94047334D01*
X87407750Y-94084342D01*
X87549594Y-94134104D01*
X87737345Y-94219971D01*
X87947602Y-94329415D01*
X88156966Y-94449908D01*
X88342036Y-94568924D01*
X88423827Y-94628315D01*
X88817650Y-94977361D01*
X89140018Y-95365097D01*
X89395732Y-95798954D01*
X89589593Y-96286363D01*
X89663479Y-96547070D01*
X89716163Y-96843190D01*
X89741161Y-97180306D01*
X89739015Y-97530400D01*
X89710273Y-97865453D01*
X89655477Y-98157448D01*
X89630492Y-98243530D01*
X89544844Y-98506561D01*
X89650819Y-98645697D01*
X89760127Y-98814925D01*
X89880092Y-99043075D01*
X90000515Y-99307011D01*
X90111201Y-99583596D01*
X90201950Y-99849695D01*
X90238742Y-99979592D01*
X90286092Y-100178502D01*
X90317185Y-100356229D01*
X90335014Y-100540988D01*
X90342575Y-100760991D01*
X90343311Y-100965000D01*
X90339910Y-101190656D01*
X90332203Y-101398408D01*
X90321283Y-101567026D01*
X90308243Y-101675277D01*
X90306249Y-101684666D01*
X90292456Y-101779136D01*
X90309275Y-101861959D01*
X90366159Y-101963268D01*
X90416290Y-102035470D01*
X90497804Y-102164191D01*
X90588398Y-102330137D01*
X90678267Y-102512235D01*
X90757605Y-102689412D01*
X90816605Y-102840596D01*
X90845462Y-102944713D01*
X90846816Y-102960660D01*
X90884939Y-103022638D01*
X90963750Y-103059008D01*
X91106213Y-103108992D01*
X91294595Y-103195227D01*
X91505586Y-103305218D01*
X91715877Y-103426472D01*
X91902160Y-103546494D01*
X91983715Y-103605741D01*
X92377039Y-103959108D01*
X92703709Y-104358680D01*
X92961090Y-104796535D01*
X93146551Y-105264750D01*
X93257457Y-105755404D01*
X93291175Y-106260574D01*
X93245071Y-106772340D01*
X93159942Y-107144010D01*
X93061210Y-107484887D01*
X93165835Y-107622193D01*
X93274361Y-107790286D01*
X93393638Y-108017315D01*
X93513498Y-108280173D01*
X93623772Y-108555753D01*
X93714292Y-108820951D01*
X93752038Y-108954258D01*
X93812027Y-109260861D01*
X93850141Y-109611795D01*
X93865317Y-109977219D01*
X93856488Y-110327291D01*
X93822590Y-110632170D01*
X93813634Y-110680500D01*
X93655524Y-111261732D01*
X93422660Y-111806959D01*
X93119305Y-112310585D01*
X92749719Y-112767015D01*
X92318166Y-113170655D01*
X91828908Y-113515911D01*
X91524666Y-113685034D01*
X91359620Y-113760855D01*
X91161991Y-113840089D01*
X90953183Y-113915459D01*
X90754594Y-113979692D01*
X90587627Y-114025512D01*
X90473683Y-114045645D01*
X90462819Y-114046000D01*
X90418938Y-114048414D01*
X90388229Y-114065976D01*
X90364256Y-114114161D01*
X90340582Y-114208444D01*
X90310769Y-114364300D01*
X90295535Y-114448166D01*
X90157442Y-114978772D01*
X89944336Y-115476767D01*
X89661820Y-115935413D01*
X89315496Y-116347971D01*
X88910969Y-116707704D01*
X88453841Y-117007872D01*
X87983215Y-117228912D01*
X87461591Y-117388041D01*
X86916953Y-117473093D01*
X86364511Y-117483896D01*
X85819471Y-117420280D01*
X85297044Y-117282074D01*
X85234765Y-117259795D01*
X85094033Y-117204431D01*
X84981861Y-117154036D01*
X84930226Y-117124670D01*
X84890782Y-117097744D01*
X84862765Y-117106700D01*
X84830995Y-117166777D01*
X84792106Y-117263333D01*
X84611931Y-117631998D01*
X84365154Y-118006740D01*
X84066357Y-118369613D01*
X83730125Y-118702666D01*
X83417833Y-118954681D01*
X82895003Y-119286265D01*
X82354921Y-119535687D01*
X81792756Y-119704537D01*
X81203675Y-119794404D01*
X80813754Y-119811193D01*
X80193506Y-119773548D01*
X79599970Y-119657606D01*
X79037701Y-119465283D01*
X78511255Y-119198498D01*
X78025185Y-118859166D01*
X77588176Y-118453600D01*
X77275317Y-118121028D01*
X77076350Y-118222145D01*
X76942984Y-118282613D01*
X76761379Y-118355438D01*
X76564120Y-118427755D01*
X76499872Y-118449741D01*
X76286402Y-118532476D01*
X76061414Y-118637568D01*
X75867004Y-118745014D01*
X75833097Y-118766600D01*
X75358293Y-119029406D01*
X74849949Y-119218657D01*
X74317735Y-119333608D01*
X73771324Y-119373511D01*
X73220388Y-119337621D01*
X72674600Y-119225190D01*
X72174642Y-119048939D01*
X71980450Y-118965584D01*
X71927044Y-119113276D01*
X71780969Y-119430817D01*
X71571233Y-119765600D01*
X71311602Y-120100608D01*
X71015840Y-120418826D01*
X70697713Y-120703236D01*
X70548500Y-120817415D01*
X70020056Y-121149053D01*
X69461600Y-121402136D01*
X68877530Y-121575471D01*
X68272241Y-121667862D01*
X67650131Y-121678115D01*
X67437000Y-121662813D01*
X66855857Y-121567770D01*
X66294391Y-121396294D01*
X65763017Y-121153403D01*
X65272152Y-120844114D01*
X64832212Y-120473445D01*
X64710225Y-120349439D01*
X64405983Y-120026028D01*
X64209106Y-120126084D01*
X63742222Y-120320288D01*
X63225176Y-120457898D01*
X62671459Y-120538151D01*
X62094562Y-120560281D01*
X61507976Y-120523525D01*
X60925191Y-120427118D01*
X60557833Y-120332994D01*
X60279645Y-120235212D01*
X59965008Y-120098721D01*
X59643443Y-119937878D01*
X59344475Y-119767040D01*
X59194173Y-119669794D01*
X58969852Y-119500654D01*
X58727116Y-119291373D01*
X58486301Y-119061708D01*
X58267747Y-118831418D01*
X58091793Y-118620262D01*
X58039769Y-118548328D01*
X57892371Y-118332857D01*
X57547134Y-118308493D01*
X57038292Y-118233757D01*
X56565491Y-118086691D01*
X56134372Y-117871864D01*
X55750577Y-117593844D01*
X55419747Y-117257200D01*
X55147524Y-116866500D01*
X54939549Y-116426313D01*
X54842027Y-116117884D01*
X54804993Y-115935343D01*
X54786863Y-115732652D01*
X54785699Y-115482873D01*
X54788935Y-115379500D01*
X54818261Y-115018566D01*
X54882313Y-114705454D01*
X54990461Y-114407205D01*
X55152075Y-114090860D01*
X55158442Y-114079706D01*
X55320913Y-113795913D01*
X54990291Y-113460368D01*
X54681774Y-113090543D01*
X54447786Y-112688207D01*
X54288640Y-112261589D01*
X54204645Y-111818920D01*
X54196745Y-111401892D01*
X54709671Y-111401892D01*
X54719897Y-111791010D01*
X54800418Y-112176253D01*
X54952883Y-112548644D01*
X55178940Y-112899206D01*
X55367007Y-113112005D01*
X55704967Y-113398016D01*
X56084108Y-113615515D01*
X56510499Y-113767259D01*
X56990208Y-113856008D01*
X57007678Y-113857968D01*
X57150330Y-113875617D01*
X57230290Y-113897896D01*
X57269041Y-113938539D01*
X57288065Y-114011278D01*
X57292962Y-114040348D01*
X57317575Y-114208957D01*
X57317693Y-114311130D01*
X57285605Y-114363418D01*
X57213601Y-114382370D01*
X57132557Y-114384666D01*
X56909196Y-114368600D01*
X56642913Y-114325184D01*
X56368095Y-114261594D01*
X56119127Y-114185004D01*
X56050406Y-114158870D01*
X55794121Y-114055352D01*
X55710908Y-114161141D01*
X55540112Y-114434284D01*
X55407292Y-114760988D01*
X55320648Y-115115557D01*
X55288382Y-115472294D01*
X55288338Y-115485333D01*
X55328674Y-115914784D01*
X55446330Y-116317839D01*
X55636279Y-116687778D01*
X55893493Y-117017884D01*
X56212945Y-117301438D01*
X56589606Y-117531722D01*
X56924455Y-117671613D01*
X57105081Y-117727929D01*
X57267498Y-117762568D01*
X57444630Y-117780400D01*
X57669404Y-117786300D01*
X57700333Y-117786435D01*
X58022740Y-117776076D01*
X58272879Y-117742296D01*
X58374282Y-117716159D01*
X58499580Y-117679119D01*
X58585833Y-117657464D01*
X58610815Y-117655060D01*
X58640788Y-117719069D01*
X58681862Y-117828098D01*
X58722594Y-117948770D01*
X58751542Y-118047706D01*
X58758666Y-118086326D01*
X58722023Y-118135995D01*
X58633732Y-118173041D01*
X58632152Y-118173393D01*
X58536566Y-118202519D01*
X58486062Y-118232853D01*
X58500311Y-118282310D01*
X58562017Y-118376141D01*
X58658416Y-118499207D01*
X58776745Y-118636370D01*
X58904240Y-118772489D01*
X59028138Y-118892426D01*
X59080902Y-118938406D01*
X59590912Y-119315346D01*
X60120822Y-119611641D01*
X60677673Y-119830037D01*
X61268504Y-119973283D01*
X61900354Y-120044127D01*
X61915814Y-120044946D01*
X62510027Y-120037910D01*
X63088986Y-119956659D01*
X63638772Y-119803626D01*
X63908818Y-119696354D01*
X64130872Y-119598150D01*
X64005936Y-119340234D01*
X63942836Y-119205662D01*
X63897950Y-119101711D01*
X63881083Y-119051242D01*
X63917235Y-119020401D01*
X64010803Y-118972406D01*
X64111046Y-118929932D01*
X64340925Y-118839699D01*
X64507607Y-119183932D01*
X64759817Y-119609799D01*
X65082450Y-119998462D01*
X65467074Y-120343543D01*
X65905253Y-120638659D01*
X66388555Y-120877430D01*
X66908545Y-121053475D01*
X67013666Y-121079991D01*
X67373589Y-121139431D01*
X67780409Y-121162414D01*
X68204926Y-121149601D01*
X68617939Y-121101652D01*
X68927068Y-121036704D01*
X69462450Y-120853350D01*
X69959129Y-120597814D01*
X70410414Y-120275558D01*
X70809614Y-119892043D01*
X71150037Y-119452731D01*
X71397706Y-119020166D01*
X71495179Y-118800438D01*
X71586265Y-118558946D01*
X71632842Y-118414602D01*
X72187205Y-118414602D01*
X72198810Y-118462012D01*
X72247486Y-118503388D01*
X72347828Y-118552150D01*
X72481094Y-118607965D01*
X72708497Y-118693383D01*
X72941268Y-118761237D01*
X73211343Y-118820209D01*
X73363666Y-118847921D01*
X73492860Y-118858245D01*
X73679624Y-118858407D01*
X73898312Y-118849991D01*
X74123282Y-118834584D01*
X74328887Y-118813771D01*
X74489486Y-118789137D01*
X74549000Y-118774640D01*
X74739500Y-118715615D01*
X74485500Y-118685229D01*
X73903474Y-118590297D01*
X73372533Y-118448213D01*
X72869347Y-118252202D01*
X72676315Y-118160043D01*
X72271430Y-117956981D01*
X72248778Y-118086407D01*
X72222066Y-118229268D01*
X72198074Y-118347736D01*
X72187205Y-118414602D01*
X71632842Y-118414602D01*
X71664044Y-118317910D01*
X71721593Y-118099549D01*
X71751991Y-117926081D01*
X71755000Y-117873206D01*
X71778634Y-117795679D01*
X71862729Y-117763897D01*
X71865426Y-117763561D01*
X71913412Y-117753334D01*
X71923567Y-117731182D01*
X71888253Y-117686484D01*
X71799830Y-117608619D01*
X71688523Y-117517577D01*
X71526983Y-117375159D01*
X71345790Y-117196856D01*
X71162584Y-117001949D01*
X70995007Y-116809717D01*
X70860701Y-116639443D01*
X70793172Y-116539023D01*
X70754256Y-116484687D01*
X70702419Y-116449451D01*
X70617800Y-116426970D01*
X70480534Y-116410895D01*
X70362964Y-116401561D01*
X70020008Y-116362866D01*
X69867018Y-116328816D01*
X71312467Y-116328816D01*
X71326077Y-116380312D01*
X71389740Y-116475944D01*
X71491483Y-116602219D01*
X71619332Y-116745643D01*
X71761315Y-116892723D01*
X71905457Y-117029965D01*
X72026263Y-117133227D01*
X72556006Y-117504464D01*
X73110086Y-117795909D01*
X73684801Y-118006756D01*
X74276450Y-118136198D01*
X74881330Y-118183429D01*
X75495739Y-118147642D01*
X76115975Y-118028031D01*
X76124133Y-118025901D01*
X76305681Y-117973027D01*
X76493639Y-117909471D01*
X76670626Y-117842243D01*
X76819263Y-117778356D01*
X76922169Y-117724820D01*
X76961962Y-117688646D01*
X76962000Y-117687896D01*
X76942996Y-117637620D01*
X76893577Y-117537084D01*
X76835766Y-117428846D01*
X76768982Y-117301442D01*
X76722963Y-117201731D01*
X76708850Y-117157500D01*
X76744701Y-117120647D01*
X76838332Y-117068435D01*
X76940298Y-117024046D01*
X77172430Y-116932926D01*
X77303968Y-117193379D01*
X77583428Y-117655151D01*
X77931917Y-118077345D01*
X78339035Y-118449700D01*
X78794384Y-118761956D01*
X79015166Y-118881586D01*
X79394436Y-119052699D01*
X79753732Y-119172475D01*
X80121189Y-119247464D01*
X80524944Y-119284213D01*
X80772000Y-119290494D01*
X81042584Y-119288314D01*
X81261194Y-119275073D01*
X81460172Y-119247404D01*
X81671861Y-119201943D01*
X81707786Y-119193113D01*
X82263974Y-119013868D01*
X82773754Y-118766023D01*
X83233189Y-118452711D01*
X83638343Y-118077067D01*
X83985280Y-117642224D01*
X84268713Y-117154086D01*
X84406331Y-116831313D01*
X84508520Y-116506456D01*
X84568336Y-116204602D01*
X84581264Y-116025083D01*
X84587934Y-115934412D01*
X84617714Y-115883153D01*
X84686821Y-115865350D01*
X84811469Y-115875047D01*
X84936997Y-115894437D01*
X85101495Y-115921610D01*
X85074847Y-116268297D01*
X85048198Y-116614985D01*
X85164349Y-116668236D01*
X85592440Y-116834050D01*
X86017093Y-116932243D01*
X86470135Y-116969688D01*
X86564051Y-116970499D01*
X86951682Y-116955446D01*
X87291276Y-116906963D01*
X87615385Y-116817569D01*
X87956564Y-116679784D01*
X88078094Y-116622591D01*
X88509868Y-116369330D01*
X88886221Y-116058946D01*
X89204089Y-115699861D01*
X89460412Y-115300502D01*
X89652127Y-114869291D01*
X89776171Y-114414654D01*
X89829483Y-113945014D01*
X89809000Y-113468796D01*
X89711661Y-112994423D01*
X89551997Y-112567740D01*
X89342436Y-112190873D01*
X89077209Y-111835484D01*
X88772045Y-111518467D01*
X88442678Y-111256715D01*
X88193601Y-111109029D01*
X88096221Y-111052484D01*
X88036486Y-111004261D01*
X88033333Y-110999888D01*
X88037209Y-110942512D01*
X88073741Y-110837327D01*
X88116562Y-110744533D01*
X88225160Y-110530225D01*
X88424997Y-110644372D01*
X88911839Y-110967140D01*
X89332317Y-111340278D01*
X89684400Y-111760986D01*
X89966058Y-112226465D01*
X90175260Y-112733915D01*
X90301190Y-113231083D01*
X90336960Y-113389901D01*
X90374565Y-113497678D01*
X90408254Y-113537992D01*
X90408646Y-113538000D01*
X90474728Y-113523724D01*
X90598394Y-113485911D01*
X90758462Y-113432077D01*
X90933751Y-113369742D01*
X91103080Y-113306423D01*
X91245267Y-113249638D01*
X91334166Y-113209493D01*
X91635456Y-113030172D01*
X91946056Y-112801833D01*
X92243773Y-112543738D01*
X92506410Y-112275151D01*
X92711774Y-112015335D01*
X92714233Y-112011709D01*
X92992751Y-111532030D01*
X93189835Y-111034248D01*
X93307643Y-110511307D01*
X93348333Y-109956149D01*
X93348386Y-109938307D01*
X93341947Y-109641343D01*
X93318082Y-109390694D01*
X93270870Y-109148822D01*
X93194395Y-108878190D01*
X93168399Y-108796666D01*
X93117800Y-108655477D01*
X93052929Y-108494770D01*
X92982450Y-108333509D01*
X92915025Y-108190661D01*
X92859320Y-108085191D01*
X92823998Y-108036065D01*
X92820310Y-108034666D01*
X92789162Y-108065816D01*
X92721748Y-108147786D01*
X92632188Y-108263356D01*
X92625155Y-108272655D01*
X92502525Y-108425677D01*
X92368491Y-108578834D01*
X92275263Y-108675826D01*
X92176806Y-108768155D01*
X92116093Y-108808380D01*
X92071076Y-108804343D01*
X92021957Y-108765921D01*
X91936708Y-108676101D01*
X91855029Y-108573220D01*
X91771197Y-108455607D01*
X92027978Y-108181107D01*
X92302351Y-107828324D01*
X92519068Y-107425420D01*
X92673000Y-106988675D01*
X92759022Y-106534371D01*
X92772006Y-106078787D01*
X92752880Y-105879341D01*
X92646296Y-105398030D01*
X92465814Y-104954362D01*
X92215512Y-104554088D01*
X91899468Y-104202960D01*
X91521758Y-103906730D01*
X91238570Y-103743020D01*
X91089293Y-103670858D01*
X90999833Y-103639383D01*
X90956721Y-103646889D01*
X90946485Y-103691665D01*
X90947287Y-103706083D01*
X90938501Y-103747758D01*
X90891643Y-103770319D01*
X90788594Y-103779176D01*
X90699166Y-103780166D01*
X90445166Y-103780166D01*
X90416336Y-103488447D01*
X90331529Y-103047274D01*
X90170535Y-102634115D01*
X89939273Y-102256310D01*
X89643660Y-101921200D01*
X89289616Y-101636126D01*
X88883057Y-101408428D01*
X88668868Y-101320895D01*
X88236955Y-101205744D01*
X87783210Y-101160745D01*
X87326283Y-101184911D01*
X86884823Y-101277255D01*
X86477480Y-101436789D01*
X86477228Y-101436916D01*
X86319289Y-101516226D01*
X86468562Y-101749577D01*
X86705052Y-102193608D01*
X86870994Y-102669058D01*
X86964732Y-103162890D01*
X86984609Y-103662062D01*
X86928971Y-104153536D01*
X86823840Y-104547473D01*
X86747969Y-104767997D01*
X86855381Y-104909082D01*
X86965612Y-105079658D01*
X87086360Y-105309134D01*
X87207393Y-105574323D01*
X87318477Y-105852042D01*
X87409380Y-106119104D01*
X87444981Y-106244925D01*
X87537789Y-106758882D01*
X87561460Y-107299644D01*
X87516720Y-107846186D01*
X87404291Y-108377479D01*
X87367333Y-108500333D01*
X87156552Y-109023645D01*
X86871580Y-109516150D01*
X86519859Y-109969511D01*
X86108830Y-110375389D01*
X85645934Y-110725446D01*
X85138612Y-111011343D01*
X85117765Y-111021202D01*
X84963330Y-111089353D01*
X84797377Y-111152482D01*
X84601640Y-111216619D01*
X84357853Y-111287793D01*
X84084583Y-111362231D01*
X84045069Y-111410033D01*
X84031666Y-111487034D01*
X84017045Y-111618865D01*
X83977707Y-111804944D01*
X83920436Y-112020930D01*
X83852019Y-112242484D01*
X83779242Y-112445267D01*
X83735318Y-112549983D01*
X83477095Y-113019413D01*
X83148858Y-113451402D01*
X82760401Y-113836772D01*
X82321522Y-114166345D01*
X81842015Y-114430943D01*
X81633215Y-114519579D01*
X81110148Y-114679070D01*
X80564092Y-114764042D01*
X80010108Y-114774322D01*
X79463256Y-114709739D01*
X78938599Y-114570121D01*
X78884765Y-114550865D01*
X78746911Y-114496900D01*
X78640398Y-114449058D01*
X78593950Y-114421772D01*
X78532510Y-114387512D01*
X78490087Y-114426817D01*
X78466601Y-114498528D01*
X78431949Y-114588992D01*
X78366141Y-114725193D01*
X78282157Y-114880616D01*
X78264551Y-114911278D01*
X77918793Y-115427597D01*
X77520177Y-115879531D01*
X77073110Y-116264541D01*
X76582000Y-116580083D01*
X76051254Y-116823617D01*
X75485281Y-116992600D01*
X74888486Y-117084491D01*
X74466185Y-117101641D01*
X73837121Y-117060368D01*
X73240524Y-116941105D01*
X72674675Y-116743321D01*
X72137854Y-116466486D01*
X71890555Y-116305765D01*
X71744904Y-116205358D01*
X71655055Y-116148108D01*
X71607542Y-116128480D01*
X71588900Y-116140942D01*
X71585666Y-116179960D01*
X71585666Y-116180469D01*
X71549017Y-116230744D01*
X71460714Y-116268045D01*
X71459152Y-116268393D01*
X71363336Y-116297827D01*
X71312467Y-116328816D01*
X69867018Y-116328816D01*
X69717590Y-116295559D01*
X69413528Y-116189079D01*
X69270502Y-116128055D01*
X69142987Y-116074492D01*
X69028386Y-116036872D01*
X68905137Y-116011362D01*
X68751680Y-115994123D01*
X68546453Y-115981320D01*
X68410666Y-115975080D01*
X67900288Y-115935432D01*
X67443257Y-115859696D01*
X67366115Y-115838558D01*
X70034335Y-115838558D01*
X70107983Y-115864042D01*
X70209833Y-115882038D01*
X70338534Y-115891161D01*
X70514261Y-115890342D01*
X70710037Y-115881259D01*
X70898886Y-115865588D01*
X71053833Y-115845009D01*
X71140790Y-115824143D01*
X71251526Y-115782041D01*
X71094308Y-115593956D01*
X70937089Y-115405872D01*
X70763961Y-115494509D01*
X70636857Y-115553590D01*
X70465419Y-115625592D01*
X70285272Y-115695595D01*
X70273333Y-115700006D01*
X70115021Y-115762240D01*
X70036018Y-115806523D01*
X70034335Y-115838558D01*
X67366115Y-115838558D01*
X67013841Y-115742030D01*
X66586306Y-115576592D01*
X66514929Y-115544648D01*
X66075512Y-115311095D01*
X65641121Y-115017837D01*
X65232545Y-114681696D01*
X64870574Y-114319489D01*
X64621833Y-114013058D01*
X64410166Y-113720801D01*
X64050333Y-113693022D01*
X63548163Y-113618058D01*
X63091854Y-113473081D01*
X62676699Y-113255986D01*
X62297994Y-112964669D01*
X62188743Y-112860444D01*
X61872089Y-112501154D01*
X61634869Y-112131790D01*
X61471867Y-111740760D01*
X61377864Y-111316469D01*
X61350493Y-110998000D01*
X61350579Y-110644250D01*
X61380269Y-110360104D01*
X61393731Y-110294466D01*
X61454101Y-110035432D01*
X61072321Y-110006611D01*
X60425209Y-109918029D01*
X59807247Y-109751271D01*
X59213388Y-109504586D01*
X58638584Y-109176224D01*
X58594171Y-109146972D01*
X58361639Y-108976210D01*
X58111132Y-108765108D01*
X57862092Y-108532369D01*
X57633960Y-108296696D01*
X57446178Y-108076795D01*
X57361666Y-107961250D01*
X57277265Y-107845811D01*
X57205364Y-107765514D01*
X57166122Y-107739424D01*
X57127045Y-107778058D01*
X57097432Y-107886176D01*
X57077675Y-108049080D01*
X57068164Y-108252075D01*
X57069292Y-108480465D01*
X57081450Y-108719555D01*
X57105030Y-108954647D01*
X57129477Y-109114166D01*
X57157841Y-109271380D01*
X57179446Y-109391559D01*
X57190686Y-109454631D01*
X57191500Y-109459437D01*
X57156428Y-109477371D01*
X57067937Y-109509174D01*
X56954151Y-109545927D01*
X56843194Y-109578715D01*
X56763190Y-109598620D01*
X56745003Y-109601000D01*
X56704675Y-109563853D01*
X56670220Y-109472083D01*
X56665007Y-109447760D01*
X56640596Y-109347708D01*
X56599644Y-109310345D01*
X56512687Y-109314686D01*
X56484442Y-109319156D01*
X56371366Y-109349880D01*
X56215200Y-109407824D01*
X56047905Y-109481017D01*
X56032229Y-109488505D01*
X55655291Y-109712361D01*
X55338760Y-109986203D01*
X55084285Y-110301054D01*
X54893513Y-110647937D01*
X54768092Y-111017875D01*
X54709671Y-111401892D01*
X54196745Y-111401892D01*
X54196111Y-111368428D01*
X54263348Y-110918343D01*
X54406667Y-110476896D01*
X54626379Y-110052315D01*
X54849985Y-109739377D01*
X55068988Y-109515165D01*
X55348256Y-109298008D01*
X55663734Y-109102646D01*
X55991371Y-108943817D01*
X56307114Y-108836259D01*
X56335083Y-108829370D01*
X56557333Y-108776630D01*
X56557333Y-108368606D01*
X56559867Y-108176175D01*
X56566655Y-108002898D01*
X56576473Y-107875141D01*
X56581954Y-107837475D01*
X56591551Y-107770445D01*
X56575357Y-107728899D01*
X56516247Y-107700397D01*
X56397097Y-107672504D01*
X56338538Y-107660682D01*
X56179600Y-107617044D01*
X55979297Y-107545316D01*
X55770663Y-107457824D01*
X55678061Y-107414242D01*
X55267093Y-107166393D01*
X54910222Y-106854615D01*
X54610906Y-106482833D01*
X54372602Y-106054972D01*
X54279259Y-105826331D01*
X54231165Y-105685382D01*
X54198867Y-105560100D01*
X54179293Y-105427160D01*
X54169368Y-105263238D01*
X54166020Y-105045008D01*
X54165839Y-104965500D01*
X54177425Y-104603474D01*
X54216978Y-104297605D01*
X54290957Y-104022159D01*
X54405818Y-103751405D01*
X54525981Y-103530274D01*
X54686528Y-103255537D01*
X54355599Y-102919680D01*
X54042065Y-102544661D01*
X53805348Y-102135613D01*
X53646944Y-101696524D01*
X53568348Y-101231381D01*
X53566957Y-101011927D01*
X54070791Y-101011927D01*
X54112531Y-101404646D01*
X54220861Y-101781768D01*
X54391771Y-102134772D01*
X54621253Y-102455140D01*
X54905297Y-102734350D01*
X55239895Y-102963884D01*
X55621039Y-103135221D01*
X55987341Y-103230309D01*
X56169755Y-103259563D01*
X56340323Y-103281384D01*
X56465746Y-103291592D01*
X56477711Y-103291856D01*
X56579252Y-103299928D01*
X56628552Y-103338266D01*
X56653769Y-103432011D01*
X56657161Y-103452083D01*
X56675106Y-103587059D01*
X56683746Y-103703701D01*
X56683867Y-103712331D01*
X56684333Y-103813830D01*
X56273688Y-103784964D01*
X55787065Y-103714815D01*
X55509119Y-103637720D01*
X55155197Y-103519342D01*
X55073946Y-103622635D01*
X54905296Y-103892529D01*
X54773522Y-104216274D01*
X54686840Y-104568054D01*
X54653466Y-104922053D01*
X54653338Y-104944333D01*
X54693318Y-105370864D01*
X54808941Y-105769919D01*
X54993728Y-106134631D01*
X55241203Y-106458135D01*
X55544887Y-106733564D01*
X55898304Y-106954053D01*
X56294975Y-107112735D01*
X56728424Y-107202745D01*
X56790166Y-107209333D01*
X56986071Y-107216217D01*
X57224992Y-107207711D01*
X57473869Y-107186518D01*
X57699645Y-107155341D01*
X57849816Y-107122692D01*
X57906036Y-107120711D01*
X57950113Y-107163975D01*
X57996797Y-107269115D01*
X58008775Y-107301902D01*
X58059301Y-107452947D01*
X58073785Y-107544679D01*
X58047793Y-107596335D01*
X57976889Y-107627147D01*
X57931073Y-107638877D01*
X57780813Y-107674833D01*
X58009700Y-107952132D01*
X58348523Y-108305094D01*
X58752779Y-108629473D01*
X59205297Y-108915264D01*
X59688905Y-109152462D01*
X60186431Y-109331060D01*
X60515500Y-109412257D01*
X60748996Y-109455920D01*
X60943927Y-109483701D01*
X61139668Y-109499878D01*
X61375597Y-109508730D01*
X61410901Y-109509558D01*
X61568648Y-109511548D01*
X61665134Y-109503273D01*
X61723740Y-109476538D01*
X61767847Y-109423148D01*
X61797609Y-109374010D01*
X61881582Y-109231686D01*
X61535913Y-108875758D01*
X61213671Y-108489780D01*
X60970114Y-108077793D01*
X60806509Y-107643081D01*
X60724122Y-107188925D01*
X60722135Y-106950976D01*
X61223159Y-106950976D01*
X61268935Y-107347562D01*
X61294897Y-107456929D01*
X61446726Y-107877055D01*
X61666454Y-108251288D01*
X61947720Y-108574407D01*
X62284166Y-108841190D01*
X62669433Y-109046416D01*
X63097160Y-109184866D01*
X63472395Y-109244657D01*
X63787013Y-109273166D01*
X63812374Y-109426500D01*
X63838726Y-109595236D01*
X63840622Y-109699466D01*
X63804340Y-109753019D01*
X63716156Y-109769727D01*
X63562347Y-109763421D01*
X63483615Y-109757852D01*
X63206198Y-109727399D01*
X62932851Y-109678066D01*
X62689099Y-109615529D01*
X62500462Y-109545462D01*
X62477433Y-109534104D01*
X62399553Y-109500644D01*
X62345613Y-109511231D01*
X62284528Y-109576849D01*
X62258141Y-109611602D01*
X62065581Y-109934578D01*
X61931568Y-110301316D01*
X61860123Y-110690805D01*
X61855265Y-111082036D01*
X61911878Y-111421013D01*
X62063759Y-111831824D01*
X62287118Y-112202292D01*
X62575918Y-112526125D01*
X62924119Y-112797033D01*
X63325684Y-113008726D01*
X63500000Y-113075449D01*
X63743605Y-113134856D01*
X64034505Y-113168235D01*
X64341490Y-113174995D01*
X64633347Y-113154544D01*
X64878867Y-113106292D01*
X64893616Y-113101825D01*
X65018913Y-113064785D01*
X65105167Y-113043131D01*
X65130148Y-113040727D01*
X65160121Y-113104736D01*
X65201195Y-113213765D01*
X65241927Y-113334436D01*
X65270875Y-113433373D01*
X65278000Y-113471993D01*
X65241356Y-113521662D01*
X65153065Y-113558708D01*
X65151485Y-113559060D01*
X65055046Y-113589328D01*
X65003197Y-113622076D01*
X65016822Y-113673719D01*
X65080885Y-113769995D01*
X65183893Y-113897810D01*
X65314351Y-114044066D01*
X65460767Y-114195666D01*
X65611646Y-114339515D01*
X65703382Y-114419899D01*
X66188262Y-114775182D01*
X66711784Y-115061149D01*
X67264447Y-115274838D01*
X67836746Y-115413288D01*
X68419181Y-115473539D01*
X69002247Y-115452630D01*
X69013916Y-115451356D01*
X69518789Y-115372966D01*
X69981995Y-115255905D01*
X70382485Y-115105904D01*
X70650483Y-114984389D01*
X70525408Y-114726186D01*
X70462269Y-114591540D01*
X70417339Y-114487508D01*
X70400417Y-114436908D01*
X70436568Y-114406068D01*
X70530136Y-114358073D01*
X70630379Y-114315599D01*
X70860258Y-114225365D01*
X71026940Y-114569599D01*
X71280102Y-114997616D01*
X71603703Y-115389171D01*
X71988954Y-115737658D01*
X72427065Y-116036468D01*
X72909248Y-116278993D01*
X73426711Y-116458627D01*
X73596500Y-116501332D01*
X73922279Y-116554913D01*
X74291601Y-116581273D01*
X74672845Y-116580386D01*
X75034387Y-116552225D01*
X75319943Y-116502794D01*
X75885814Y-116329553D01*
X76397752Y-116091114D01*
X76855421Y-115787747D01*
X77258489Y-115419723D01*
X77606620Y-114987315D01*
X77899481Y-114490793D01*
X77963003Y-114358881D01*
X78051846Y-114145011D01*
X78134277Y-113907908D01*
X78203371Y-113671627D01*
X78252205Y-113460223D01*
X78273854Y-113297753D01*
X78274333Y-113277228D01*
X78283879Y-113204828D01*
X78322985Y-113166097D01*
X78407354Y-113156849D01*
X78552688Y-113172901D01*
X78623583Y-113184171D01*
X78728603Y-113209598D01*
X78773393Y-113253411D01*
X78782333Y-113329788D01*
X78773332Y-113441825D01*
X78750471Y-113591364D01*
X78735371Y-113668140D01*
X78712620Y-113780561D01*
X78710622Y-113857247D01*
X78741855Y-113912568D01*
X78818796Y-113960891D01*
X78953923Y-114016585D01*
X79078666Y-114063469D01*
X79403520Y-114169065D01*
X79714729Y-114231978D01*
X80050982Y-114258946D01*
X80214051Y-114261166D01*
X80600075Y-114246280D01*
X80938201Y-114198273D01*
X81261001Y-114109638D01*
X81601043Y-113972869D01*
X81732200Y-113911251D01*
X82169385Y-113656161D01*
X82550904Y-113345511D01*
X82873720Y-112987447D01*
X83134794Y-112590110D01*
X83331089Y-112161644D01*
X83459565Y-111710192D01*
X83517185Y-111243898D01*
X83500911Y-110770905D01*
X83407703Y-110299355D01*
X83244331Y-109858407D01*
X83034770Y-109481539D01*
X82769542Y-109126151D01*
X82464379Y-108809134D01*
X82135011Y-108547381D01*
X81885934Y-108399695D01*
X81788555Y-108343151D01*
X81728819Y-108294928D01*
X81725667Y-108290554D01*
X81729542Y-108233179D01*
X81766074Y-108127994D01*
X81808896Y-108035200D01*
X81917494Y-107820892D01*
X82117330Y-107935038D01*
X82604172Y-108257807D01*
X83024650Y-108630945D01*
X83376733Y-109051653D01*
X83658391Y-109517132D01*
X83867594Y-110024582D01*
X83993523Y-110521750D01*
X84029293Y-110680567D01*
X84066898Y-110788345D01*
X84100588Y-110828659D01*
X84100980Y-110828666D01*
X84167062Y-110814391D01*
X84290727Y-110776578D01*
X84450796Y-110722744D01*
X84626085Y-110660409D01*
X84795413Y-110597090D01*
X84937600Y-110540305D01*
X85026500Y-110500160D01*
X85327789Y-110320839D01*
X85638390Y-110092499D01*
X85936106Y-109834405D01*
X86198743Y-109565818D01*
X86404107Y-109306002D01*
X86406566Y-109302376D01*
X86646230Y-108889489D01*
X86842357Y-108432840D01*
X86979802Y-107968434D01*
X86992600Y-107909223D01*
X87018129Y-107725766D01*
X87033662Y-107489501D01*
X87039141Y-107227968D01*
X87034503Y-106968701D01*
X87019688Y-106739239D01*
X86995551Y-106571249D01*
X86945038Y-106371558D01*
X86878823Y-106155016D01*
X86802869Y-105936495D01*
X86723136Y-105730869D01*
X86645586Y-105553011D01*
X86576179Y-105417795D01*
X86520878Y-105340093D01*
X86496973Y-105327265D01*
X86458733Y-105359721D01*
X86384692Y-105444248D01*
X86288922Y-105564500D01*
X86259779Y-105602812D01*
X86138216Y-105753270D01*
X86010852Y-105893528D01*
X85903591Y-105995208D01*
X85895803Y-106001502D01*
X85737881Y-106126578D01*
X85634073Y-106011705D01*
X85533739Y-105900052D01*
X85475920Y-105819463D01*
X85463347Y-105750852D01*
X85498747Y-105675131D01*
X85584849Y-105573216D01*
X85716625Y-105434189D01*
X86012287Y-105062943D01*
X86237492Y-104650462D01*
X86388902Y-104207121D01*
X86463179Y-103743293D01*
X86456983Y-103269355D01*
X86445213Y-103170007D01*
X86338629Y-102688697D01*
X86158147Y-102245029D01*
X85907845Y-101844755D01*
X85591801Y-101493626D01*
X85214091Y-101197397D01*
X84930903Y-101033687D01*
X84781626Y-100961525D01*
X84692166Y-100930050D01*
X84649054Y-100937555D01*
X84638818Y-100982332D01*
X84639620Y-100996750D01*
X84630834Y-101038425D01*
X84583977Y-101060986D01*
X84480927Y-101069842D01*
X84391500Y-101070833D01*
X84137500Y-101070833D01*
X84108670Y-100779114D01*
X84024278Y-100337286D01*
X83865376Y-99926565D01*
X83638389Y-99553198D01*
X83349742Y-99223430D01*
X83005858Y-98943507D01*
X82613164Y-98719674D01*
X82178082Y-98558178D01*
X81731608Y-98468216D01*
X81272363Y-98451145D01*
X80821638Y-98510857D01*
X80389885Y-98642245D01*
X79987555Y-98840201D01*
X79625101Y-99099620D01*
X79312975Y-99415395D01*
X79069104Y-99769083D01*
X78999987Y-99886479D01*
X78947180Y-99967027D01*
X78925051Y-99991333D01*
X78880189Y-99973746D01*
X78783942Y-99928385D01*
X78695690Y-99884498D01*
X78484861Y-99777663D01*
X78555295Y-99641081D01*
X78624160Y-99516041D01*
X78708541Y-99373561D01*
X78731296Y-99336930D01*
X78836863Y-99169360D01*
X78664441Y-99016349D01*
X78335363Y-98779415D01*
X77956236Y-98603696D01*
X77539973Y-98493797D01*
X77099486Y-98454326D01*
X77089000Y-98454283D01*
X76628384Y-98490869D01*
X76197782Y-98599488D01*
X75804454Y-98775377D01*
X75455659Y-99013773D01*
X75158658Y-99309910D01*
X74920710Y-99659025D01*
X74778886Y-99970166D01*
X74725506Y-100100662D01*
X74678078Y-100191568D01*
X74648950Y-100222071D01*
X74588521Y-100214162D01*
X74476642Y-100196480D01*
X74411416Y-100185514D01*
X74289244Y-100156946D01*
X74225584Y-100112097D01*
X74213559Y-100033217D01*
X74246289Y-99902558D01*
X74272263Y-99826450D01*
X74334192Y-99650922D01*
X74155846Y-99520814D01*
X73751320Y-99273685D01*
X73311595Y-99091747D01*
X72851343Y-98978060D01*
X72385238Y-98935686D01*
X71927953Y-98967686D01*
X71712666Y-99011164D01*
X71226423Y-99171621D01*
X70791008Y-99398832D01*
X70402572Y-99694908D01*
X70314240Y-99778083D01*
X70137703Y-99952156D01*
X70018477Y-100079792D01*
X69954213Y-100174630D01*
X69942563Y-100250310D01*
X69981177Y-100320471D01*
X70067707Y-100398751D01*
X70191228Y-100492368D01*
X70323565Y-100595082D01*
X70424951Y-100680779D01*
X70479685Y-100735886D01*
X70485000Y-100746319D01*
X70459503Y-100795038D01*
X70393918Y-100884044D01*
X70334436Y-100956326D01*
X70183873Y-101132225D01*
X69880605Y-100901171D01*
X69401663Y-100588129D01*
X68888637Y-100349100D01*
X68350470Y-100185295D01*
X67796105Y-100097930D01*
X67234485Y-100088217D01*
X66674553Y-100157371D01*
X66125253Y-100306605D01*
X65959335Y-100368992D01*
X65472631Y-100606113D01*
X65032824Y-100903374D01*
X64643805Y-101253105D01*
X64309464Y-101647634D01*
X64033691Y-102079290D01*
X63820376Y-102540400D01*
X63673411Y-103023294D01*
X63596685Y-103520299D01*
X63594090Y-104023744D01*
X63669514Y-104525958D01*
X63732969Y-104759218D01*
X63739295Y-104816730D01*
X63702966Y-104858936D01*
X63607059Y-104901327D01*
X63559536Y-104917968D01*
X63405911Y-104966356D01*
X63312409Y-104979901D01*
X63260554Y-104955233D01*
X63231869Y-104888981D01*
X63224205Y-104856806D01*
X63187903Y-104757359D01*
X63124654Y-104708754D01*
X63020008Y-104707995D01*
X62859515Y-104752088D01*
X62807215Y-104770400D01*
X62395462Y-104960576D01*
X62038419Y-105214265D01*
X61738908Y-105529171D01*
X61570423Y-105775624D01*
X61372741Y-106172098D01*
X61257373Y-106561519D01*
X61223159Y-106950976D01*
X60722135Y-106950976D01*
X60720578Y-106764666D01*
X60768230Y-106426778D01*
X60858648Y-106075827D01*
X60980424Y-105753183D01*
X61024746Y-105661522D01*
X61236935Y-105328018D01*
X61512667Y-105012748D01*
X61835053Y-104729097D01*
X62187206Y-104490448D01*
X62552237Y-104310185D01*
X62849688Y-104215241D01*
X63067209Y-104164543D01*
X63087809Y-103633688D01*
X63120966Y-103200229D01*
X63188644Y-102816903D01*
X63297690Y-102453827D01*
X63432586Y-102128899D01*
X63725756Y-101591381D01*
X64080477Y-101109323D01*
X64491400Y-100686295D01*
X64953177Y-100325864D01*
X65460458Y-100031598D01*
X66007895Y-99807065D01*
X66590140Y-99655834D01*
X67201844Y-99581471D01*
X67255367Y-99578794D01*
X67809373Y-99582411D01*
X68327581Y-99647932D01*
X68836516Y-99779956D01*
X69208586Y-99917326D01*
X69435006Y-100010369D01*
X69521599Y-99884434D01*
X69585886Y-99805190D01*
X69695634Y-99684312D01*
X69835098Y-99538668D01*
X69978458Y-99395000D01*
X70168431Y-99215406D01*
X70333087Y-99079569D01*
X70501619Y-98966462D01*
X70703220Y-98855060D01*
X70787278Y-98812439D01*
X71066610Y-98679012D01*
X71306633Y-98581811D01*
X71531289Y-98515459D01*
X71764516Y-98474582D01*
X72030252Y-98453802D01*
X72352438Y-98447745D01*
X72411166Y-98447784D01*
X72661848Y-98449415D01*
X72849363Y-98454751D01*
X72995210Y-98466674D01*
X73120883Y-98488064D01*
X73247881Y-98521801D01*
X73397699Y-98570767D01*
X73441644Y-98585865D01*
X73755083Y-98704526D01*
X74026836Y-98834145D01*
X74299273Y-98995839D01*
X74407835Y-99067420D01*
X74584170Y-99186139D01*
X74762342Y-98973331D01*
X75077817Y-98659005D01*
X75456636Y-98388876D01*
X75885477Y-98171217D01*
X76272001Y-98035728D01*
X76571673Y-97974961D01*
X76915521Y-97944427D01*
X77270486Y-97944530D01*
X77603508Y-97975676D01*
X77808666Y-98016898D01*
X78153791Y-98131492D01*
X78498580Y-98288547D01*
X78803418Y-98469707D01*
X78837270Y-98493513D01*
X78951252Y-98571807D01*
X79027483Y-98603762D01*
X79079364Y-98580959D01*
X79120296Y-98494980D01*
X79163677Y-98337405D01*
X79178063Y-98279406D01*
X79260799Y-97789937D01*
X79261532Y-97320020D01*
X79179672Y-96865951D01*
X79014624Y-96424023D01*
X78827019Y-96084196D01*
X78637733Y-95829511D01*
X78396327Y-95571260D01*
X78129095Y-95334430D01*
X77862329Y-95144004D01*
X77797460Y-95105831D01*
X77630641Y-95015902D01*
X77523723Y-94968810D01*
X77465132Y-94962005D01*
X77443294Y-94992938D01*
X77442953Y-95027750D01*
X77434167Y-95069425D01*
X77387310Y-95091986D01*
X77284260Y-95100842D01*
X77194833Y-95101833D01*
X76940833Y-95101833D01*
X76912003Y-94810114D01*
X76827284Y-94367813D01*
X76677707Y-93982388D01*
X77264127Y-93982388D01*
X77274933Y-94030438D01*
X77306033Y-94149922D01*
X77328144Y-94244583D01*
X77362159Y-94328932D01*
X77403447Y-94361000D01*
X77470699Y-94380489D01*
X77592195Y-94432503D01*
X77748781Y-94507361D01*
X77921304Y-94595379D01*
X78090611Y-94686877D01*
X78237550Y-94772172D01*
X78315211Y-94821891D01*
X78617504Y-95063793D01*
X78913149Y-95365636D01*
X79182514Y-95703699D01*
X79405961Y-96054258D01*
X79514074Y-96270296D01*
X79652221Y-96667127D01*
X79741574Y-97108206D01*
X79778879Y-97566410D01*
X79760884Y-98014611D01*
X79741041Y-98163347D01*
X79704915Y-98388527D01*
X79910374Y-98285633D01*
X80387481Y-98091012D01*
X80876794Y-97974333D01*
X81369970Y-97932913D01*
X81858667Y-97964067D01*
X82334542Y-98065111D01*
X82789253Y-98233361D01*
X83214457Y-98466132D01*
X83601812Y-98760740D01*
X83942976Y-99114501D01*
X84229606Y-99524730D01*
X84328758Y-99707293D01*
X84408727Y-99877080D01*
X84474800Y-100036250D01*
X84515572Y-100156753D01*
X84520943Y-100179968D01*
X84561789Y-100292357D01*
X84640330Y-100345750D01*
X84652941Y-100349251D01*
X84832004Y-100411669D01*
X85052838Y-100514507D01*
X85291882Y-100644328D01*
X85525578Y-100787698D01*
X85730365Y-100931179D01*
X85855397Y-101035014D01*
X85964628Y-101136405D01*
X86157346Y-101028693D01*
X86555940Y-100848094D01*
X86998511Y-100721061D01*
X87459843Y-100652367D01*
X87914723Y-100646784D01*
X88088434Y-100663190D01*
X88550865Y-100753517D01*
X88994881Y-100899850D01*
X89398412Y-101093839D01*
X89640833Y-101250472D01*
X89810166Y-101374521D01*
X89831333Y-101159177D01*
X89837987Y-101007634D01*
X89835475Y-100812771D01*
X89824370Y-100615374D01*
X89823514Y-100605166D01*
X89794893Y-100394194D01*
X89746356Y-100152562D01*
X89687819Y-99928851D01*
X89680957Y-99906666D01*
X89614159Y-99712170D01*
X89538117Y-99517697D01*
X89460262Y-99339347D01*
X89388026Y-99193219D01*
X89328842Y-99095411D01*
X89290973Y-99061932D01*
X89252733Y-99094388D01*
X89178692Y-99178915D01*
X89082922Y-99299166D01*
X89053779Y-99337478D01*
X88932216Y-99487937D01*
X88804852Y-99628194D01*
X88697591Y-99729874D01*
X88689803Y-99736169D01*
X88531881Y-99861245D01*
X88428073Y-99746372D01*
X88327739Y-99634719D01*
X88269920Y-99554130D01*
X88257347Y-99485518D01*
X88292747Y-99409798D01*
X88378849Y-99307883D01*
X88510625Y-99168856D01*
X88804758Y-98807030D01*
X89020406Y-98420893D01*
X89159847Y-98004179D01*
X89225363Y-97550621D01*
X89228023Y-97197333D01*
X89167048Y-96703758D01*
X89030291Y-96241718D01*
X88821733Y-95817471D01*
X88545353Y-95437271D01*
X88205132Y-95107375D01*
X87805051Y-94834039D01*
X87682570Y-94768354D01*
X87533293Y-94696191D01*
X87443833Y-94664717D01*
X87400721Y-94672222D01*
X87390485Y-94716998D01*
X87391287Y-94731416D01*
X87382501Y-94773092D01*
X87335643Y-94795652D01*
X87232594Y-94804509D01*
X87143166Y-94805500D01*
X86889166Y-94805500D01*
X86861919Y-94530333D01*
X86818824Y-94225322D01*
X86748465Y-93961645D01*
X86638323Y-93697259D01*
X86578329Y-93578074D01*
X86335591Y-93199738D01*
X86038847Y-92879108D01*
X85697180Y-92617428D01*
X85319671Y-92415939D01*
X84915403Y-92275885D01*
X84493460Y-92198507D01*
X84062924Y-92185049D01*
X83632877Y-92236752D01*
X83212402Y-92354860D01*
X82810582Y-92540614D01*
X82436500Y-92795257D01*
X82227825Y-92982939D01*
X82084741Y-93138978D01*
X81946925Y-93311839D01*
X81841631Y-93467048D01*
X81832201Y-93483338D01*
X81760020Y-93606648D01*
X81703942Y-93694007D01*
X81676718Y-93726000D01*
X81631856Y-93708413D01*
X81535608Y-93663051D01*
X81447356Y-93619165D01*
X81236528Y-93512330D01*
X81306962Y-93375748D01*
X81375826Y-93250708D01*
X81460208Y-93108227D01*
X81482963Y-93071597D01*
X81588530Y-92904027D01*
X81416107Y-92751015D01*
X81087029Y-92514082D01*
X80707903Y-92338363D01*
X80291640Y-92228464D01*
X79851153Y-92188993D01*
X79840666Y-92188950D01*
X79482912Y-92206890D01*
X79164988Y-92267991D01*
X78849526Y-92380651D01*
X78716623Y-92441567D01*
X78343192Y-92667322D01*
X78024306Y-92955243D01*
X77766555Y-93298066D01*
X77576529Y-93688529D01*
X77570657Y-93704414D01*
X77516839Y-93842663D01*
X77473921Y-93917475D01*
X77427050Y-93946066D01*
X77362415Y-93945772D01*
X77281982Y-93944997D01*
X77264127Y-93982388D01*
X76677707Y-93982388D01*
X76667074Y-93954990D01*
X76437464Y-93578482D01*
X76144546Y-93245124D01*
X75996319Y-93125161D01*
X76744603Y-93125161D01*
X76903676Y-93346580D01*
X76991077Y-93463029D01*
X77044639Y-93516959D01*
X77076105Y-93517204D01*
X77091984Y-93488249D01*
X77090606Y-93388969D01*
X77065616Y-93345000D01*
X76991517Y-93280329D01*
X76886300Y-93208696D01*
X76877308Y-93203330D01*
X76744603Y-93125161D01*
X75996319Y-93125161D01*
X75794411Y-92961754D01*
X75393151Y-92735206D01*
X74946858Y-92572318D01*
X74908833Y-92562095D01*
X74699138Y-92523851D01*
X74440859Y-92501151D01*
X74164888Y-92494509D01*
X73902118Y-92504436D01*
X73683440Y-92531445D01*
X73638833Y-92541034D01*
X73507400Y-92582126D01*
X73329247Y-92650255D01*
X73133112Y-92734055D01*
X73028749Y-92782342D01*
X72811088Y-92893674D01*
X72636514Y-93004405D01*
X72472290Y-93137836D01*
X72306442Y-93296426D01*
X72156852Y-93454025D01*
X72017510Y-93614917D01*
X71908166Y-93755629D01*
X71864753Y-93821324D01*
X71796915Y-93931834D01*
X71746200Y-94004843D01*
X71728403Y-94022333D01*
X71683530Y-94004746D01*
X71587275Y-93959384D01*
X71499023Y-93915498D01*
X71288194Y-93808663D01*
X71357261Y-93672081D01*
X71430411Y-93545043D01*
X71520507Y-93410169D01*
X71534900Y-93390599D01*
X71643471Y-93245698D01*
X71440246Y-93061707D01*
X71233375Y-92905963D01*
X70973737Y-92757123D01*
X70692762Y-92631006D01*
X70421879Y-92543431D01*
X70400333Y-92538273D01*
X70163141Y-92502642D01*
X69882263Y-92489650D01*
X69595559Y-92499155D01*
X69340887Y-92531018D01*
X69286877Y-92542410D01*
X69019703Y-92628165D01*
X68733109Y-92758473D01*
X68462381Y-92915291D01*
X68254326Y-93070371D01*
X68004978Y-93333533D01*
X67789527Y-93648427D01*
X67629722Y-93982995D01*
X67623190Y-94000748D01*
X67570509Y-94131466D01*
X67523571Y-94222524D01*
X67494617Y-94253071D01*
X67434188Y-94245162D01*
X67322309Y-94227480D01*
X67257083Y-94216514D01*
X67134894Y-94187939D01*
X67071237Y-94143076D01*
X67059226Y-94064174D01*
X67091979Y-93933479D01*
X67117889Y-93857564D01*
X67179778Y-93682151D01*
X66980306Y-93535637D01*
X66642877Y-93333982D01*
X66250765Y-93177675D01*
X65822984Y-93070380D01*
X65378546Y-93015766D01*
X64936465Y-93017497D01*
X64561316Y-93069205D01*
X64148358Y-93188595D01*
X63747718Y-93365685D01*
X63380276Y-93588958D01*
X63066913Y-93846895D01*
X62970945Y-93946484D01*
X62838640Y-94095457D01*
X62762182Y-94199393D01*
X62742361Y-94277574D01*
X62779965Y-94349285D01*
X62875784Y-94433809D01*
X62994561Y-94523368D01*
X63126898Y-94626082D01*
X63228284Y-94711779D01*
X63283018Y-94766886D01*
X63288333Y-94777319D01*
X63262836Y-94826038D01*
X63197251Y-94915044D01*
X63137770Y-94987326D01*
X62987206Y-95163225D01*
X62683939Y-94932171D01*
X62205367Y-94618782D01*
X61695547Y-94380086D01*
X61162953Y-94216610D01*
X60616062Y-94128883D01*
X60063348Y-94117432D01*
X59513288Y-94182786D01*
X58974357Y-94325473D01*
X58455031Y-94546021D01*
X58254668Y-94656172D01*
X57786524Y-94977172D01*
X57384483Y-95350958D01*
X57047425Y-95778838D01*
X56774232Y-96262121D01*
X56664228Y-96517289D01*
X56529501Y-96960022D01*
X56451217Y-97442811D01*
X56430759Y-97941395D01*
X56469513Y-98431511D01*
X56535767Y-98769143D01*
X56545486Y-98837626D01*
X56519135Y-98882445D01*
X56439093Y-98921911D01*
X56362599Y-98949060D01*
X56209962Y-98997251D01*
X56117616Y-99010090D01*
X56067027Y-98983131D01*
X56039660Y-98911928D01*
X56030959Y-98869500D01*
X56000878Y-98776064D01*
X55945397Y-98729070D01*
X55850643Y-98726568D01*
X55702740Y-98766606D01*
X55589905Y-98807499D01*
X55241446Y-98979528D01*
X54910941Y-99217144D01*
X54620216Y-99501907D01*
X54391096Y-99815374D01*
X54385195Y-99825382D01*
X54203114Y-100213775D01*
X54099649Y-100612130D01*
X54070791Y-101011927D01*
X53566957Y-101011927D01*
X53565701Y-100813953D01*
X53618769Y-100435675D01*
X53723443Y-100052453D01*
X53869114Y-99699521D01*
X53941485Y-99566233D01*
X54205716Y-99195193D01*
X54528956Y-98865165D01*
X54896657Y-98587284D01*
X55294265Y-98372688D01*
X55673066Y-98240957D01*
X55901166Y-98182656D01*
X55911546Y-97764078D01*
X55966364Y-97167509D01*
X56097368Y-96600392D01*
X56299733Y-96067558D01*
X56568639Y-95573838D01*
X56899262Y-95124063D01*
X57286779Y-94723064D01*
X57726368Y-94375671D01*
X58213206Y-94086717D01*
X58742471Y-93861031D01*
X59309340Y-93703444D01*
X59908991Y-93618788D01*
X60058701Y-93609794D01*
X60613741Y-93613500D01*
X61133011Y-93679340D01*
X61642809Y-93811870D01*
X62010326Y-93947666D01*
X62235153Y-94040049D01*
X62345585Y-93893607D01*
X62429121Y-93793238D01*
X62550396Y-93659968D01*
X62685955Y-93519410D01*
X62713425Y-93491975D01*
X63118351Y-93149070D01*
X63568649Y-92875597D01*
X64057571Y-92674266D01*
X64578372Y-92547786D01*
X65124303Y-92498864D01*
X65188326Y-92498333D01*
X65748107Y-92533797D01*
X66266926Y-92641265D01*
X66750873Y-92822352D01*
X67084459Y-93001245D01*
X67415833Y-93203062D01*
X67733333Y-92878161D01*
X68110277Y-92544369D01*
X68515243Y-92288688D01*
X68956652Y-92106861D01*
X69442928Y-91994632D01*
X69497507Y-91986633D01*
X69932954Y-91965161D01*
X70379864Y-92014913D01*
X70820692Y-92130279D01*
X71237891Y-92305650D01*
X71613914Y-92535416D01*
X71860481Y-92742117D01*
X71987130Y-92864679D01*
X72244321Y-92662561D01*
X72644038Y-92396170D01*
X73090663Y-92183038D01*
X73427166Y-92070009D01*
X73691916Y-92016323D01*
X73998784Y-91985310D01*
X74319584Y-91977294D01*
X74626128Y-91992600D01*
X74890229Y-92031552D01*
X74972333Y-92052251D01*
X75113624Y-92089896D01*
X75308247Y-92137014D01*
X75526492Y-92186572D01*
X75670833Y-92217576D01*
X76040194Y-92301758D01*
X76345825Y-92388579D01*
X76608525Y-92485481D01*
X76849096Y-92599906D01*
X77032704Y-92704858D01*
X77364166Y-92906728D01*
X77681666Y-92581827D01*
X78055788Y-92249956D01*
X78456922Y-91995683D01*
X78894532Y-91814270D01*
X79378086Y-91700979D01*
X79467203Y-91687929D01*
X79899166Y-91666744D01*
X80341650Y-91712860D01*
X80776487Y-91820958D01*
X81185508Y-91985720D01*
X81550545Y-92201823D01*
X81740499Y-92353560D01*
X81937265Y-92530469D01*
X82084882Y-92405569D01*
X82451378Y-92146640D01*
X82871333Y-91938038D01*
X83326541Y-91785006D01*
X83798795Y-91692786D01*
X84269890Y-91666622D01*
X84574767Y-91688523D01*
G37*
X84574767Y-91688523D02*
X85102279Y-91795158D01*
X85588679Y-91973167D01*
X86029813Y-92220035D01*
X86421522Y-92533243D01*
X86759650Y-92910278D01*
X86884516Y-93086801D01*
X86982946Y-93250626D01*
X87081466Y-93438674D01*
X87170657Y-93629964D01*
X87241104Y-93803513D01*
X87283389Y-93938339D01*
X87291333Y-93993214D01*
X87327692Y-94047334D01*
X87407750Y-94084342D01*
X87549594Y-94134104D01*
X87737345Y-94219971D01*
X87947602Y-94329415D01*
X88156966Y-94449908D01*
X88342036Y-94568924D01*
X88423827Y-94628315D01*
X88817650Y-94977361D01*
X89140018Y-95365097D01*
X89395732Y-95798954D01*
X89589593Y-96286363D01*
X89663479Y-96547070D01*
X89716163Y-96843190D01*
X89741161Y-97180306D01*
X89739015Y-97530400D01*
X89710273Y-97865453D01*
X89655477Y-98157448D01*
X89630492Y-98243530D01*
X89544844Y-98506561D01*
X89650819Y-98645697D01*
X89760127Y-98814925D01*
X89880092Y-99043075D01*
X90000515Y-99307011D01*
X90111201Y-99583596D01*
X90201950Y-99849695D01*
X90238742Y-99979592D01*
X90286092Y-100178502D01*
X90317185Y-100356229D01*
X90335014Y-100540988D01*
X90342575Y-100760991D01*
X90343311Y-100965000D01*
X90339910Y-101190656D01*
X90332203Y-101398408D01*
X90321283Y-101567026D01*
X90308243Y-101675277D01*
X90306249Y-101684666D01*
X90292456Y-101779136D01*
X90309275Y-101861959D01*
X90366159Y-101963268D01*
X90416290Y-102035470D01*
X90497804Y-102164191D01*
X90588398Y-102330137D01*
X90678267Y-102512235D01*
X90757605Y-102689412D01*
X90816605Y-102840596D01*
X90845462Y-102944713D01*
X90846816Y-102960660D01*
X90884939Y-103022638D01*
X90963750Y-103059008D01*
X91106213Y-103108992D01*
X91294595Y-103195227D01*
X91505586Y-103305218D01*
X91715877Y-103426472D01*
X91902160Y-103546494D01*
X91983715Y-103605741D01*
X92377039Y-103959108D01*
X92703709Y-104358680D01*
X92961090Y-104796535D01*
X93146551Y-105264750D01*
X93257457Y-105755404D01*
X93291175Y-106260574D01*
X93245071Y-106772340D01*
X93159942Y-107144010D01*
X93061210Y-107484887D01*
X93165835Y-107622193D01*
X93274361Y-107790286D01*
X93393638Y-108017315D01*
X93513498Y-108280173D01*
X93623772Y-108555753D01*
X93714292Y-108820951D01*
X93752038Y-108954258D01*
X93812027Y-109260861D01*
X93850141Y-109611795D01*
X93865317Y-109977219D01*
X93856488Y-110327291D01*
X93822590Y-110632170D01*
X93813634Y-110680500D01*
X93655524Y-111261732D01*
X93422660Y-111806959D01*
X93119305Y-112310585D01*
X92749719Y-112767015D01*
X92318166Y-113170655D01*
X91828908Y-113515911D01*
X91524666Y-113685034D01*
X91359620Y-113760855D01*
X91161991Y-113840089D01*
X90953183Y-113915459D01*
X90754594Y-113979692D01*
X90587627Y-114025512D01*
X90473683Y-114045645D01*
X90462819Y-114046000D01*
X90418938Y-114048414D01*
X90388229Y-114065976D01*
X90364256Y-114114161D01*
X90340582Y-114208444D01*
X90310769Y-114364300D01*
X90295535Y-114448166D01*
X90157442Y-114978772D01*
X89944336Y-115476767D01*
X89661820Y-115935413D01*
X89315496Y-116347971D01*
X88910969Y-116707704D01*
X88453841Y-117007872D01*
X87983215Y-117228912D01*
X87461591Y-117388041D01*
X86916953Y-117473093D01*
X86364511Y-117483896D01*
X85819471Y-117420280D01*
X85297044Y-117282074D01*
X85234765Y-117259795D01*
X85094033Y-117204431D01*
X84981861Y-117154036D01*
X84930226Y-117124670D01*
X84890782Y-117097744D01*
X84862765Y-117106700D01*
X84830995Y-117166777D01*
X84792106Y-117263333D01*
X84611931Y-117631998D01*
X84365154Y-118006740D01*
X84066357Y-118369613D01*
X83730125Y-118702666D01*
X83417833Y-118954681D01*
X82895003Y-119286265D01*
X82354921Y-119535687D01*
X81792756Y-119704537D01*
X81203675Y-119794404D01*
X80813754Y-119811193D01*
X80193506Y-119773548D01*
X79599970Y-119657606D01*
X79037701Y-119465283D01*
X78511255Y-119198498D01*
X78025185Y-118859166D01*
X77588176Y-118453600D01*
X77275317Y-118121028D01*
X77076350Y-118222145D01*
X76942984Y-118282613D01*
X76761379Y-118355438D01*
X76564120Y-118427755D01*
X76499872Y-118449741D01*
X76286402Y-118532476D01*
X76061414Y-118637568D01*
X75867004Y-118745014D01*
X75833097Y-118766600D01*
X75358293Y-119029406D01*
X74849949Y-119218657D01*
X74317735Y-119333608D01*
X73771324Y-119373511D01*
X73220388Y-119337621D01*
X72674600Y-119225190D01*
X72174642Y-119048939D01*
X71980450Y-118965584D01*
X71927044Y-119113276D01*
X71780969Y-119430817D01*
X71571233Y-119765600D01*
X71311602Y-120100608D01*
X71015840Y-120418826D01*
X70697713Y-120703236D01*
X70548500Y-120817415D01*
X70020056Y-121149053D01*
X69461600Y-121402136D01*
X68877530Y-121575471D01*
X68272241Y-121667862D01*
X67650131Y-121678115D01*
X67437000Y-121662813D01*
X66855857Y-121567770D01*
X66294391Y-121396294D01*
X65763017Y-121153403D01*
X65272152Y-120844114D01*
X64832212Y-120473445D01*
X64710225Y-120349439D01*
X64405983Y-120026028D01*
X64209106Y-120126084D01*
X63742222Y-120320288D01*
X63225176Y-120457898D01*
X62671459Y-120538151D01*
X62094562Y-120560281D01*
X61507976Y-120523525D01*
X60925191Y-120427118D01*
X60557833Y-120332994D01*
X60279645Y-120235212D01*
X59965008Y-120098721D01*
X59643443Y-119937878D01*
X59344475Y-119767040D01*
X59194173Y-119669794D01*
X58969852Y-119500654D01*
X58727116Y-119291373D01*
X58486301Y-119061708D01*
X58267747Y-118831418D01*
X58091793Y-118620262D01*
X58039769Y-118548328D01*
X57892371Y-118332857D01*
X57547134Y-118308493D01*
X57038292Y-118233757D01*
X56565491Y-118086691D01*
X56134372Y-117871864D01*
X55750577Y-117593844D01*
X55419747Y-117257200D01*
X55147524Y-116866500D01*
X54939549Y-116426313D01*
X54842027Y-116117884D01*
X54804993Y-115935343D01*
X54786863Y-115732652D01*
X54785699Y-115482873D01*
X54788935Y-115379500D01*
X54818261Y-115018566D01*
X54882313Y-114705454D01*
X54990461Y-114407205D01*
X55152075Y-114090860D01*
X55158442Y-114079706D01*
X55320913Y-113795913D01*
X54990291Y-113460368D01*
X54681774Y-113090543D01*
X54447786Y-112688207D01*
X54288640Y-112261589D01*
X54204645Y-111818920D01*
X54196745Y-111401892D01*
X54709671Y-111401892D01*
X54719897Y-111791010D01*
X54800418Y-112176253D01*
X54952883Y-112548644D01*
X55178940Y-112899206D01*
X55367007Y-113112005D01*
X55704967Y-113398016D01*
X56084108Y-113615515D01*
X56510499Y-113767259D01*
X56990208Y-113856008D01*
X57007678Y-113857968D01*
X57150330Y-113875617D01*
X57230290Y-113897896D01*
X57269041Y-113938539D01*
X57288065Y-114011278D01*
X57292962Y-114040348D01*
X57317575Y-114208957D01*
X57317693Y-114311130D01*
X57285605Y-114363418D01*
X57213601Y-114382370D01*
X57132557Y-114384666D01*
X56909196Y-114368600D01*
X56642913Y-114325184D01*
X56368095Y-114261594D01*
X56119127Y-114185004D01*
X56050406Y-114158870D01*
X55794121Y-114055352D01*
X55710908Y-114161141D01*
X55540112Y-114434284D01*
X55407292Y-114760988D01*
X55320648Y-115115557D01*
X55288382Y-115472294D01*
X55288338Y-115485333D01*
X55328674Y-115914784D01*
X55446330Y-116317839D01*
X55636279Y-116687778D01*
X55893493Y-117017884D01*
X56212945Y-117301438D01*
X56589606Y-117531722D01*
X56924455Y-117671613D01*
X57105081Y-117727929D01*
X57267498Y-117762568D01*
X57444630Y-117780400D01*
X57669404Y-117786300D01*
X57700333Y-117786435D01*
X58022740Y-117776076D01*
X58272879Y-117742296D01*
X58374282Y-117716159D01*
X58499580Y-117679119D01*
X58585833Y-117657464D01*
X58610815Y-117655060D01*
X58640788Y-117719069D01*
X58681862Y-117828098D01*
X58722594Y-117948770D01*
X58751542Y-118047706D01*
X58758666Y-118086326D01*
X58722023Y-118135995D01*
X58633732Y-118173041D01*
X58632152Y-118173393D01*
X58536566Y-118202519D01*
X58486062Y-118232853D01*
X58500311Y-118282310D01*
X58562017Y-118376141D01*
X58658416Y-118499207D01*
X58776745Y-118636370D01*
X58904240Y-118772489D01*
X59028138Y-118892426D01*
X59080902Y-118938406D01*
X59590912Y-119315346D01*
X60120822Y-119611641D01*
X60677673Y-119830037D01*
X61268504Y-119973283D01*
X61900354Y-120044127D01*
X61915814Y-120044946D01*
X62510027Y-120037910D01*
X63088986Y-119956659D01*
X63638772Y-119803626D01*
X63908818Y-119696354D01*
X64130872Y-119598150D01*
X64005936Y-119340234D01*
X63942836Y-119205662D01*
X63897950Y-119101711D01*
X63881083Y-119051242D01*
X63917235Y-119020401D01*
X64010803Y-118972406D01*
X64111046Y-118929932D01*
X64340925Y-118839699D01*
X64507607Y-119183932D01*
X64759817Y-119609799D01*
X65082450Y-119998462D01*
X65467074Y-120343543D01*
X65905253Y-120638659D01*
X66388555Y-120877430D01*
X66908545Y-121053475D01*
X67013666Y-121079991D01*
X67373589Y-121139431D01*
X67780409Y-121162414D01*
X68204926Y-121149601D01*
X68617939Y-121101652D01*
X68927068Y-121036704D01*
X69462450Y-120853350D01*
X69959129Y-120597814D01*
X70410414Y-120275558D01*
X70809614Y-119892043D01*
X71150037Y-119452731D01*
X71397706Y-119020166D01*
X71495179Y-118800438D01*
X71586265Y-118558946D01*
X71632842Y-118414602D01*
X72187205Y-118414602D01*
X72198810Y-118462012D01*
X72247486Y-118503388D01*
X72347828Y-118552150D01*
X72481094Y-118607965D01*
X72708497Y-118693383D01*
X72941268Y-118761237D01*
X73211343Y-118820209D01*
X73363666Y-118847921D01*
X73492860Y-118858245D01*
X73679624Y-118858407D01*
X73898312Y-118849991D01*
X74123282Y-118834584D01*
X74328887Y-118813771D01*
X74489486Y-118789137D01*
X74549000Y-118774640D01*
X74739500Y-118715615D01*
X74485500Y-118685229D01*
X73903474Y-118590297D01*
X73372533Y-118448213D01*
X72869347Y-118252202D01*
X72676315Y-118160043D01*
X72271430Y-117956981D01*
X72248778Y-118086407D01*
X72222066Y-118229268D01*
X72198074Y-118347736D01*
X72187205Y-118414602D01*
X71632842Y-118414602D01*
X71664044Y-118317910D01*
X71721593Y-118099549D01*
X71751991Y-117926081D01*
X71755000Y-117873206D01*
X71778634Y-117795679D01*
X71862729Y-117763897D01*
X71865426Y-117763561D01*
X71913412Y-117753334D01*
X71923567Y-117731182D01*
X71888253Y-117686484D01*
X71799830Y-117608619D01*
X71688523Y-117517577D01*
X71526983Y-117375159D01*
X71345790Y-117196856D01*
X71162584Y-117001949D01*
X70995007Y-116809717D01*
X70860701Y-116639443D01*
X70793172Y-116539023D01*
X70754256Y-116484687D01*
X70702419Y-116449451D01*
X70617800Y-116426970D01*
X70480534Y-116410895D01*
X70362964Y-116401561D01*
X70020008Y-116362866D01*
X69867018Y-116328816D01*
X71312467Y-116328816D01*
X71326077Y-116380312D01*
X71389740Y-116475944D01*
X71491483Y-116602219D01*
X71619332Y-116745643D01*
X71761315Y-116892723D01*
X71905457Y-117029965D01*
X72026263Y-117133227D01*
X72556006Y-117504464D01*
X73110086Y-117795909D01*
X73684801Y-118006756D01*
X74276450Y-118136198D01*
X74881330Y-118183429D01*
X75495739Y-118147642D01*
X76115975Y-118028031D01*
X76124133Y-118025901D01*
X76305681Y-117973027D01*
X76493639Y-117909471D01*
X76670626Y-117842243D01*
X76819263Y-117778356D01*
X76922169Y-117724820D01*
X76961962Y-117688646D01*
X76962000Y-117687896D01*
X76942996Y-117637620D01*
X76893577Y-117537084D01*
X76835766Y-117428846D01*
X76768982Y-117301442D01*
X76722963Y-117201731D01*
X76708850Y-117157500D01*
X76744701Y-117120647D01*
X76838332Y-117068435D01*
X76940298Y-117024046D01*
X77172430Y-116932926D01*
X77303968Y-117193379D01*
X77583428Y-117655151D01*
X77931917Y-118077345D01*
X78339035Y-118449700D01*
X78794384Y-118761956D01*
X79015166Y-118881586D01*
X79394436Y-119052699D01*
X79753732Y-119172475D01*
X80121189Y-119247464D01*
X80524944Y-119284213D01*
X80772000Y-119290494D01*
X81042584Y-119288314D01*
X81261194Y-119275073D01*
X81460172Y-119247404D01*
X81671861Y-119201943D01*
X81707786Y-119193113D01*
X82263974Y-119013868D01*
X82773754Y-118766023D01*
X83233189Y-118452711D01*
X83638343Y-118077067D01*
X83985280Y-117642224D01*
X84268713Y-117154086D01*
X84406331Y-116831313D01*
X84508520Y-116506456D01*
X84568336Y-116204602D01*
X84581264Y-116025083D01*
X84587934Y-115934412D01*
X84617714Y-115883153D01*
X84686821Y-115865350D01*
X84811469Y-115875047D01*
X84936997Y-115894437D01*
X85101495Y-115921610D01*
X85074847Y-116268297D01*
X85048198Y-116614985D01*
X85164349Y-116668236D01*
X85592440Y-116834050D01*
X86017093Y-116932243D01*
X86470135Y-116969688D01*
X86564051Y-116970499D01*
X86951682Y-116955446D01*
X87291276Y-116906963D01*
X87615385Y-116817569D01*
X87956564Y-116679784D01*
X88078094Y-116622591D01*
X88509868Y-116369330D01*
X88886221Y-116058946D01*
X89204089Y-115699861D01*
X89460412Y-115300502D01*
X89652127Y-114869291D01*
X89776171Y-114414654D01*
X89829483Y-113945014D01*
X89809000Y-113468796D01*
X89711661Y-112994423D01*
X89551997Y-112567740D01*
X89342436Y-112190873D01*
X89077209Y-111835484D01*
X88772045Y-111518467D01*
X88442678Y-111256715D01*
X88193601Y-111109029D01*
X88096221Y-111052484D01*
X88036486Y-111004261D01*
X88033333Y-110999888D01*
X88037209Y-110942512D01*
X88073741Y-110837327D01*
X88116562Y-110744533D01*
X88225160Y-110530225D01*
X88424997Y-110644372D01*
X88911839Y-110967140D01*
X89332317Y-111340278D01*
X89684400Y-111760986D01*
X89966058Y-112226465D01*
X90175260Y-112733915D01*
X90301190Y-113231083D01*
X90336960Y-113389901D01*
X90374565Y-113497678D01*
X90408254Y-113537992D01*
X90408646Y-113538000D01*
X90474728Y-113523724D01*
X90598394Y-113485911D01*
X90758462Y-113432077D01*
X90933751Y-113369742D01*
X91103080Y-113306423D01*
X91245267Y-113249638D01*
X91334166Y-113209493D01*
X91635456Y-113030172D01*
X91946056Y-112801833D01*
X92243773Y-112543738D01*
X92506410Y-112275151D01*
X92711774Y-112015335D01*
X92714233Y-112011709D01*
X92992751Y-111532030D01*
X93189835Y-111034248D01*
X93307643Y-110511307D01*
X93348333Y-109956149D01*
X93348386Y-109938307D01*
X93341947Y-109641343D01*
X93318082Y-109390694D01*
X93270870Y-109148822D01*
X93194395Y-108878190D01*
X93168399Y-108796666D01*
X93117800Y-108655477D01*
X93052929Y-108494770D01*
X92982450Y-108333509D01*
X92915025Y-108190661D01*
X92859320Y-108085191D01*
X92823998Y-108036065D01*
X92820310Y-108034666D01*
X92789162Y-108065816D01*
X92721748Y-108147786D01*
X92632188Y-108263356D01*
X92625155Y-108272655D01*
X92502525Y-108425677D01*
X92368491Y-108578834D01*
X92275263Y-108675826D01*
X92176806Y-108768155D01*
X92116093Y-108808380D01*
X92071076Y-108804343D01*
X92021957Y-108765921D01*
X91936708Y-108676101D01*
X91855029Y-108573220D01*
X91771197Y-108455607D01*
X92027978Y-108181107D01*
X92302351Y-107828324D01*
X92519068Y-107425420D01*
X92673000Y-106988675D01*
X92759022Y-106534371D01*
X92772006Y-106078787D01*
X92752880Y-105879341D01*
X92646296Y-105398030D01*
X92465814Y-104954362D01*
X92215512Y-104554088D01*
X91899468Y-104202960D01*
X91521758Y-103906730D01*
X91238570Y-103743020D01*
X91089293Y-103670858D01*
X90999833Y-103639383D01*
X90956721Y-103646889D01*
X90946485Y-103691665D01*
X90947287Y-103706083D01*
X90938501Y-103747758D01*
X90891643Y-103770319D01*
X90788594Y-103779176D01*
X90699166Y-103780166D01*
X90445166Y-103780166D01*
X90416336Y-103488447D01*
X90331529Y-103047274D01*
X90170535Y-102634115D01*
X89939273Y-102256310D01*
X89643660Y-101921200D01*
X89289616Y-101636126D01*
X88883057Y-101408428D01*
X88668868Y-101320895D01*
X88236955Y-101205744D01*
X87783210Y-101160745D01*
X87326283Y-101184911D01*
X86884823Y-101277255D01*
X86477480Y-101436789D01*
X86477228Y-101436916D01*
X86319289Y-101516226D01*
X86468562Y-101749577D01*
X86705052Y-102193608D01*
X86870994Y-102669058D01*
X86964732Y-103162890D01*
X86984609Y-103662062D01*
X86928971Y-104153536D01*
X86823840Y-104547473D01*
X86747969Y-104767997D01*
X86855381Y-104909082D01*
X86965612Y-105079658D01*
X87086360Y-105309134D01*
X87207393Y-105574323D01*
X87318477Y-105852042D01*
X87409380Y-106119104D01*
X87444981Y-106244925D01*
X87537789Y-106758882D01*
X87561460Y-107299644D01*
X87516720Y-107846186D01*
X87404291Y-108377479D01*
X87367333Y-108500333D01*
X87156552Y-109023645D01*
X86871580Y-109516150D01*
X86519859Y-109969511D01*
X86108830Y-110375389D01*
X85645934Y-110725446D01*
X85138612Y-111011343D01*
X85117765Y-111021202D01*
X84963330Y-111089353D01*
X84797377Y-111152482D01*
X84601640Y-111216619D01*
X84357853Y-111287793D01*
X84084583Y-111362231D01*
X84045069Y-111410033D01*
X84031666Y-111487034D01*
X84017045Y-111618865D01*
X83977707Y-111804944D01*
X83920436Y-112020930D01*
X83852019Y-112242484D01*
X83779242Y-112445267D01*
X83735318Y-112549983D01*
X83477095Y-113019413D01*
X83148858Y-113451402D01*
X82760401Y-113836772D01*
X82321522Y-114166345D01*
X81842015Y-114430943D01*
X81633215Y-114519579D01*
X81110148Y-114679070D01*
X80564092Y-114764042D01*
X80010108Y-114774322D01*
X79463256Y-114709739D01*
X78938599Y-114570121D01*
X78884765Y-114550865D01*
X78746911Y-114496900D01*
X78640398Y-114449058D01*
X78593950Y-114421772D01*
X78532510Y-114387512D01*
X78490087Y-114426817D01*
X78466601Y-114498528D01*
X78431949Y-114588992D01*
X78366141Y-114725193D01*
X78282157Y-114880616D01*
X78264551Y-114911278D01*
X77918793Y-115427597D01*
X77520177Y-115879531D01*
X77073110Y-116264541D01*
X76582000Y-116580083D01*
X76051254Y-116823617D01*
X75485281Y-116992600D01*
X74888486Y-117084491D01*
X74466185Y-117101641D01*
X73837121Y-117060368D01*
X73240524Y-116941105D01*
X72674675Y-116743321D01*
X72137854Y-116466486D01*
X71890555Y-116305765D01*
X71744904Y-116205358D01*
X71655055Y-116148108D01*
X71607542Y-116128480D01*
X71588900Y-116140942D01*
X71585666Y-116179960D01*
X71585666Y-116180469D01*
X71549017Y-116230744D01*
X71460714Y-116268045D01*
X71459152Y-116268393D01*
X71363336Y-116297827D01*
X71312467Y-116328816D01*
X69867018Y-116328816D01*
X69717590Y-116295559D01*
X69413528Y-116189079D01*
X69270502Y-116128055D01*
X69142987Y-116074492D01*
X69028386Y-116036872D01*
X68905137Y-116011362D01*
X68751680Y-115994123D01*
X68546453Y-115981320D01*
X68410666Y-115975080D01*
X67900288Y-115935432D01*
X67443257Y-115859696D01*
X67366115Y-115838558D01*
X70034335Y-115838558D01*
X70107983Y-115864042D01*
X70209833Y-115882038D01*
X70338534Y-115891161D01*
X70514261Y-115890342D01*
X70710037Y-115881259D01*
X70898886Y-115865588D01*
X71053833Y-115845009D01*
X71140790Y-115824143D01*
X71251526Y-115782041D01*
X71094308Y-115593956D01*
X70937089Y-115405872D01*
X70763961Y-115494509D01*
X70636857Y-115553590D01*
X70465419Y-115625592D01*
X70285272Y-115695595D01*
X70273333Y-115700006D01*
X70115021Y-115762240D01*
X70036018Y-115806523D01*
X70034335Y-115838558D01*
X67366115Y-115838558D01*
X67013841Y-115742030D01*
X66586306Y-115576592D01*
X66514929Y-115544648D01*
X66075512Y-115311095D01*
X65641121Y-115017837D01*
X65232545Y-114681696D01*
X64870574Y-114319489D01*
X64621833Y-114013058D01*
X64410166Y-113720801D01*
X64050333Y-113693022D01*
X63548163Y-113618058D01*
X63091854Y-113473081D01*
X62676699Y-113255986D01*
X62297994Y-112964669D01*
X62188743Y-112860444D01*
X61872089Y-112501154D01*
X61634869Y-112131790D01*
X61471867Y-111740760D01*
X61377864Y-111316469D01*
X61350493Y-110998000D01*
X61350579Y-110644250D01*
X61380269Y-110360104D01*
X61393731Y-110294466D01*
X61454101Y-110035432D01*
X61072321Y-110006611D01*
X60425209Y-109918029D01*
X59807247Y-109751271D01*
X59213388Y-109504586D01*
X58638584Y-109176224D01*
X58594171Y-109146972D01*
X58361639Y-108976210D01*
X58111132Y-108765108D01*
X57862092Y-108532369D01*
X57633960Y-108296696D01*
X57446178Y-108076795D01*
X57361666Y-107961250D01*
X57277265Y-107845811D01*
X57205364Y-107765514D01*
X57166122Y-107739424D01*
X57127045Y-107778058D01*
X57097432Y-107886176D01*
X57077675Y-108049080D01*
X57068164Y-108252075D01*
X57069292Y-108480465D01*
X57081450Y-108719555D01*
X57105030Y-108954647D01*
X57129477Y-109114166D01*
X57157841Y-109271380D01*
X57179446Y-109391559D01*
X57190686Y-109454631D01*
X57191500Y-109459437D01*
X57156428Y-109477371D01*
X57067937Y-109509174D01*
X56954151Y-109545927D01*
X56843194Y-109578715D01*
X56763190Y-109598620D01*
X56745003Y-109601000D01*
X56704675Y-109563853D01*
X56670220Y-109472083D01*
X56665007Y-109447760D01*
X56640596Y-109347708D01*
X56599644Y-109310345D01*
X56512687Y-109314686D01*
X56484442Y-109319156D01*
X56371366Y-109349880D01*
X56215200Y-109407824D01*
X56047905Y-109481017D01*
X56032229Y-109488505D01*
X55655291Y-109712361D01*
X55338760Y-109986203D01*
X55084285Y-110301054D01*
X54893513Y-110647937D01*
X54768092Y-111017875D01*
X54709671Y-111401892D01*
X54196745Y-111401892D01*
X54196111Y-111368428D01*
X54263348Y-110918343D01*
X54406667Y-110476896D01*
X54626379Y-110052315D01*
X54849985Y-109739377D01*
X55068988Y-109515165D01*
X55348256Y-109298008D01*
X55663734Y-109102646D01*
X55991371Y-108943817D01*
X56307114Y-108836259D01*
X56335083Y-108829370D01*
X56557333Y-108776630D01*
X56557333Y-108368606D01*
X56559867Y-108176175D01*
X56566655Y-108002898D01*
X56576473Y-107875141D01*
X56581954Y-107837475D01*
X56591551Y-107770445D01*
X56575357Y-107728899D01*
X56516247Y-107700397D01*
X56397097Y-107672504D01*
X56338538Y-107660682D01*
X56179600Y-107617044D01*
X55979297Y-107545316D01*
X55770663Y-107457824D01*
X55678061Y-107414242D01*
X55267093Y-107166393D01*
X54910222Y-106854615D01*
X54610906Y-106482833D01*
X54372602Y-106054972D01*
X54279259Y-105826331D01*
X54231165Y-105685382D01*
X54198867Y-105560100D01*
X54179293Y-105427160D01*
X54169368Y-105263238D01*
X54166020Y-105045008D01*
X54165839Y-104965500D01*
X54177425Y-104603474D01*
X54216978Y-104297605D01*
X54290957Y-104022159D01*
X54405818Y-103751405D01*
X54525981Y-103530274D01*
X54686528Y-103255537D01*
X54355599Y-102919680D01*
X54042065Y-102544661D01*
X53805348Y-102135613D01*
X53646944Y-101696524D01*
X53568348Y-101231381D01*
X53566957Y-101011927D01*
X54070791Y-101011927D01*
X54112531Y-101404646D01*
X54220861Y-101781768D01*
X54391771Y-102134772D01*
X54621253Y-102455140D01*
X54905297Y-102734350D01*
X55239895Y-102963884D01*
X55621039Y-103135221D01*
X55987341Y-103230309D01*
X56169755Y-103259563D01*
X56340323Y-103281384D01*
X56465746Y-103291592D01*
X56477711Y-103291856D01*
X56579252Y-103299928D01*
X56628552Y-103338266D01*
X56653769Y-103432011D01*
X56657161Y-103452083D01*
X56675106Y-103587059D01*
X56683746Y-103703701D01*
X56683867Y-103712331D01*
X56684333Y-103813830D01*
X56273688Y-103784964D01*
X55787065Y-103714815D01*
X55509119Y-103637720D01*
X55155197Y-103519342D01*
X55073946Y-103622635D01*
X54905296Y-103892529D01*
X54773522Y-104216274D01*
X54686840Y-104568054D01*
X54653466Y-104922053D01*
X54653338Y-104944333D01*
X54693318Y-105370864D01*
X54808941Y-105769919D01*
X54993728Y-106134631D01*
X55241203Y-106458135D01*
X55544887Y-106733564D01*
X55898304Y-106954053D01*
X56294975Y-107112735D01*
X56728424Y-107202745D01*
X56790166Y-107209333D01*
X56986071Y-107216217D01*
X57224992Y-107207711D01*
X57473869Y-107186518D01*
X57699645Y-107155341D01*
X57849816Y-107122692D01*
X57906036Y-107120711D01*
X57950113Y-107163975D01*
X57996797Y-107269115D01*
X58008775Y-107301902D01*
X58059301Y-107452947D01*
X58073785Y-107544679D01*
X58047793Y-107596335D01*
X57976889Y-107627147D01*
X57931073Y-107638877D01*
X57780813Y-107674833D01*
X58009700Y-107952132D01*
X58348523Y-108305094D01*
X58752779Y-108629473D01*
X59205297Y-108915264D01*
X59688905Y-109152462D01*
X60186431Y-109331060D01*
X60515500Y-109412257D01*
X60748996Y-109455920D01*
X60943927Y-109483701D01*
X61139668Y-109499878D01*
X61375597Y-109508730D01*
X61410901Y-109509558D01*
X61568648Y-109511548D01*
X61665134Y-109503273D01*
X61723740Y-109476538D01*
X61767847Y-109423148D01*
X61797609Y-109374010D01*
X61881582Y-109231686D01*
X61535913Y-108875758D01*
X61213671Y-108489780D01*
X60970114Y-108077793D01*
X60806509Y-107643081D01*
X60724122Y-107188925D01*
X60722135Y-106950976D01*
X61223159Y-106950976D01*
X61268935Y-107347562D01*
X61294897Y-107456929D01*
X61446726Y-107877055D01*
X61666454Y-108251288D01*
X61947720Y-108574407D01*
X62284166Y-108841190D01*
X62669433Y-109046416D01*
X63097160Y-109184866D01*
X63472395Y-109244657D01*
X63787013Y-109273166D01*
X63812374Y-109426500D01*
X63838726Y-109595236D01*
X63840622Y-109699466D01*
X63804340Y-109753019D01*
X63716156Y-109769727D01*
X63562347Y-109763421D01*
X63483615Y-109757852D01*
X63206198Y-109727399D01*
X62932851Y-109678066D01*
X62689099Y-109615529D01*
X62500462Y-109545462D01*
X62477433Y-109534104D01*
X62399553Y-109500644D01*
X62345613Y-109511231D01*
X62284528Y-109576849D01*
X62258141Y-109611602D01*
X62065581Y-109934578D01*
X61931568Y-110301316D01*
X61860123Y-110690805D01*
X61855265Y-111082036D01*
X61911878Y-111421013D01*
X62063759Y-111831824D01*
X62287118Y-112202292D01*
X62575918Y-112526125D01*
X62924119Y-112797033D01*
X63325684Y-113008726D01*
X63500000Y-113075449D01*
X63743605Y-113134856D01*
X64034505Y-113168235D01*
X64341490Y-113174995D01*
X64633347Y-113154544D01*
X64878867Y-113106292D01*
X64893616Y-113101825D01*
X65018913Y-113064785D01*
X65105167Y-113043131D01*
X65130148Y-113040727D01*
X65160121Y-113104736D01*
X65201195Y-113213765D01*
X65241927Y-113334436D01*
X65270875Y-113433373D01*
X65278000Y-113471993D01*
X65241356Y-113521662D01*
X65153065Y-113558708D01*
X65151485Y-113559060D01*
X65055046Y-113589328D01*
X65003197Y-113622076D01*
X65016822Y-113673719D01*
X65080885Y-113769995D01*
X65183893Y-113897810D01*
X65314351Y-114044066D01*
X65460767Y-114195666D01*
X65611646Y-114339515D01*
X65703382Y-114419899D01*
X66188262Y-114775182D01*
X66711784Y-115061149D01*
X67264447Y-115274838D01*
X67836746Y-115413288D01*
X68419181Y-115473539D01*
X69002247Y-115452630D01*
X69013916Y-115451356D01*
X69518789Y-115372966D01*
X69981995Y-115255905D01*
X70382485Y-115105904D01*
X70650483Y-114984389D01*
X70525408Y-114726186D01*
X70462269Y-114591540D01*
X70417339Y-114487508D01*
X70400417Y-114436908D01*
X70436568Y-114406068D01*
X70530136Y-114358073D01*
X70630379Y-114315599D01*
X70860258Y-114225365D01*
X71026940Y-114569599D01*
X71280102Y-114997616D01*
X71603703Y-115389171D01*
X71988954Y-115737658D01*
X72427065Y-116036468D01*
X72909248Y-116278993D01*
X73426711Y-116458627D01*
X73596500Y-116501332D01*
X73922279Y-116554913D01*
X74291601Y-116581273D01*
X74672845Y-116580386D01*
X75034387Y-116552225D01*
X75319943Y-116502794D01*
X75885814Y-116329553D01*
X76397752Y-116091114D01*
X76855421Y-115787747D01*
X77258489Y-115419723D01*
X77606620Y-114987315D01*
X77899481Y-114490793D01*
X77963003Y-114358881D01*
X78051846Y-114145011D01*
X78134277Y-113907908D01*
X78203371Y-113671627D01*
X78252205Y-113460223D01*
X78273854Y-113297753D01*
X78274333Y-113277228D01*
X78283879Y-113204828D01*
X78322985Y-113166097D01*
X78407354Y-113156849D01*
X78552688Y-113172901D01*
X78623583Y-113184171D01*
X78728603Y-113209598D01*
X78773393Y-113253411D01*
X78782333Y-113329788D01*
X78773332Y-113441825D01*
X78750471Y-113591364D01*
X78735371Y-113668140D01*
X78712620Y-113780561D01*
X78710622Y-113857247D01*
X78741855Y-113912568D01*
X78818796Y-113960891D01*
X78953923Y-114016585D01*
X79078666Y-114063469D01*
X79403520Y-114169065D01*
X79714729Y-114231978D01*
X80050982Y-114258946D01*
X80214051Y-114261166D01*
X80600075Y-114246280D01*
X80938201Y-114198273D01*
X81261001Y-114109638D01*
X81601043Y-113972869D01*
X81732200Y-113911251D01*
X82169385Y-113656161D01*
X82550904Y-113345511D01*
X82873720Y-112987447D01*
X83134794Y-112590110D01*
X83331089Y-112161644D01*
X83459565Y-111710192D01*
X83517185Y-111243898D01*
X83500911Y-110770905D01*
X83407703Y-110299355D01*
X83244331Y-109858407D01*
X83034770Y-109481539D01*
X82769542Y-109126151D01*
X82464379Y-108809134D01*
X82135011Y-108547381D01*
X81885934Y-108399695D01*
X81788555Y-108343151D01*
X81728819Y-108294928D01*
X81725667Y-108290554D01*
X81729542Y-108233179D01*
X81766074Y-108127994D01*
X81808896Y-108035200D01*
X81917494Y-107820892D01*
X82117330Y-107935038D01*
X82604172Y-108257807D01*
X83024650Y-108630945D01*
X83376733Y-109051653D01*
X83658391Y-109517132D01*
X83867594Y-110024582D01*
X83993523Y-110521750D01*
X84029293Y-110680567D01*
X84066898Y-110788345D01*
X84100588Y-110828659D01*
X84100980Y-110828666D01*
X84167062Y-110814391D01*
X84290727Y-110776578D01*
X84450796Y-110722744D01*
X84626085Y-110660409D01*
X84795413Y-110597090D01*
X84937600Y-110540305D01*
X85026500Y-110500160D01*
X85327789Y-110320839D01*
X85638390Y-110092499D01*
X85936106Y-109834405D01*
X86198743Y-109565818D01*
X86404107Y-109306002D01*
X86406566Y-109302376D01*
X86646230Y-108889489D01*
X86842357Y-108432840D01*
X86979802Y-107968434D01*
X86992600Y-107909223D01*
X87018129Y-107725766D01*
X87033662Y-107489501D01*
X87039141Y-107227968D01*
X87034503Y-106968701D01*
X87019688Y-106739239D01*
X86995551Y-106571249D01*
X86945038Y-106371558D01*
X86878823Y-106155016D01*
X86802869Y-105936495D01*
X86723136Y-105730869D01*
X86645586Y-105553011D01*
X86576179Y-105417795D01*
X86520878Y-105340093D01*
X86496973Y-105327265D01*
X86458733Y-105359721D01*
X86384692Y-105444248D01*
X86288922Y-105564500D01*
X86259779Y-105602812D01*
X86138216Y-105753270D01*
X86010852Y-105893528D01*
X85903591Y-105995208D01*
X85895803Y-106001502D01*
X85737881Y-106126578D01*
X85634073Y-106011705D01*
X85533739Y-105900052D01*
X85475920Y-105819463D01*
X85463347Y-105750852D01*
X85498747Y-105675131D01*
X85584849Y-105573216D01*
X85716625Y-105434189D01*
X86012287Y-105062943D01*
X86237492Y-104650462D01*
X86388902Y-104207121D01*
X86463179Y-103743293D01*
X86456983Y-103269355D01*
X86445213Y-103170007D01*
X86338629Y-102688697D01*
X86158147Y-102245029D01*
X85907845Y-101844755D01*
X85591801Y-101493626D01*
X85214091Y-101197397D01*
X84930903Y-101033687D01*
X84781626Y-100961525D01*
X84692166Y-100930050D01*
X84649054Y-100937555D01*
X84638818Y-100982332D01*
X84639620Y-100996750D01*
X84630834Y-101038425D01*
X84583977Y-101060986D01*
X84480927Y-101069842D01*
X84391500Y-101070833D01*
X84137500Y-101070833D01*
X84108670Y-100779114D01*
X84024278Y-100337286D01*
X83865376Y-99926565D01*
X83638389Y-99553198D01*
X83349742Y-99223430D01*
X83005858Y-98943507D01*
X82613164Y-98719674D01*
X82178082Y-98558178D01*
X81731608Y-98468216D01*
X81272363Y-98451145D01*
X80821638Y-98510857D01*
X80389885Y-98642245D01*
X79987555Y-98840201D01*
X79625101Y-99099620D01*
X79312975Y-99415395D01*
X79069104Y-99769083D01*
X78999987Y-99886479D01*
X78947180Y-99967027D01*
X78925051Y-99991333D01*
X78880189Y-99973746D01*
X78783942Y-99928385D01*
X78695690Y-99884498D01*
X78484861Y-99777663D01*
X78555295Y-99641081D01*
X78624160Y-99516041D01*
X78708541Y-99373561D01*
X78731296Y-99336930D01*
X78836863Y-99169360D01*
X78664441Y-99016349D01*
X78335363Y-98779415D01*
X77956236Y-98603696D01*
X77539973Y-98493797D01*
X77099486Y-98454326D01*
X77089000Y-98454283D01*
X76628384Y-98490869D01*
X76197782Y-98599488D01*
X75804454Y-98775377D01*
X75455659Y-99013773D01*
X75158658Y-99309910D01*
X74920710Y-99659025D01*
X74778886Y-99970166D01*
X74725506Y-100100662D01*
X74678078Y-100191568D01*
X74648950Y-100222071D01*
X74588521Y-100214162D01*
X74476642Y-100196480D01*
X74411416Y-100185514D01*
X74289244Y-100156946D01*
X74225584Y-100112097D01*
X74213559Y-100033217D01*
X74246289Y-99902558D01*
X74272263Y-99826450D01*
X74334192Y-99650922D01*
X74155846Y-99520814D01*
X73751320Y-99273685D01*
X73311595Y-99091747D01*
X72851343Y-98978060D01*
X72385238Y-98935686D01*
X71927953Y-98967686D01*
X71712666Y-99011164D01*
X71226423Y-99171621D01*
X70791008Y-99398832D01*
X70402572Y-99694908D01*
X70314240Y-99778083D01*
X70137703Y-99952156D01*
X70018477Y-100079792D01*
X69954213Y-100174630D01*
X69942563Y-100250310D01*
X69981177Y-100320471D01*
X70067707Y-100398751D01*
X70191228Y-100492368D01*
X70323565Y-100595082D01*
X70424951Y-100680779D01*
X70479685Y-100735886D01*
X70485000Y-100746319D01*
X70459503Y-100795038D01*
X70393918Y-100884044D01*
X70334436Y-100956326D01*
X70183873Y-101132225D01*
X69880605Y-100901171D01*
X69401663Y-100588129D01*
X68888637Y-100349100D01*
X68350470Y-100185295D01*
X67796105Y-100097930D01*
X67234485Y-100088217D01*
X66674553Y-100157371D01*
X66125253Y-100306605D01*
X65959335Y-100368992D01*
X65472631Y-100606113D01*
X65032824Y-100903374D01*
X64643805Y-101253105D01*
X64309464Y-101647634D01*
X64033691Y-102079290D01*
X63820376Y-102540400D01*
X63673411Y-103023294D01*
X63596685Y-103520299D01*
X63594090Y-104023744D01*
X63669514Y-104525958D01*
X63732969Y-104759218D01*
X63739295Y-104816730D01*
X63702966Y-104858936D01*
X63607059Y-104901327D01*
X63559536Y-104917968D01*
X63405911Y-104966356D01*
X63312409Y-104979901D01*
X63260554Y-104955233D01*
X63231869Y-104888981D01*
X63224205Y-104856806D01*
X63187903Y-104757359D01*
X63124654Y-104708754D01*
X63020008Y-104707995D01*
X62859515Y-104752088D01*
X62807215Y-104770400D01*
X62395462Y-104960576D01*
X62038419Y-105214265D01*
X61738908Y-105529171D01*
X61570423Y-105775624D01*
X61372741Y-106172098D01*
X61257373Y-106561519D01*
X61223159Y-106950976D01*
X60722135Y-106950976D01*
X60720578Y-106764666D01*
X60768230Y-106426778D01*
X60858648Y-106075827D01*
X60980424Y-105753183D01*
X61024746Y-105661522D01*
X61236935Y-105328018D01*
X61512667Y-105012748D01*
X61835053Y-104729097D01*
X62187206Y-104490448D01*
X62552237Y-104310185D01*
X62849688Y-104215241D01*
X63067209Y-104164543D01*
X63087809Y-103633688D01*
X63120966Y-103200229D01*
X63188644Y-102816903D01*
X63297690Y-102453827D01*
X63432586Y-102128899D01*
X63725756Y-101591381D01*
X64080477Y-101109323D01*
X64491400Y-100686295D01*
X64953177Y-100325864D01*
X65460458Y-100031598D01*
X66007895Y-99807065D01*
X66590140Y-99655834D01*
X67201844Y-99581471D01*
X67255367Y-99578794D01*
X67809373Y-99582411D01*
X68327581Y-99647932D01*
X68836516Y-99779956D01*
X69208586Y-99917326D01*
X69435006Y-100010369D01*
X69521599Y-99884434D01*
X69585886Y-99805190D01*
X69695634Y-99684312D01*
X69835098Y-99538668D01*
X69978458Y-99395000D01*
X70168431Y-99215406D01*
X70333087Y-99079569D01*
X70501619Y-98966462D01*
X70703220Y-98855060D01*
X70787278Y-98812439D01*
X71066610Y-98679012D01*
X71306633Y-98581811D01*
X71531289Y-98515459D01*
X71764516Y-98474582D01*
X72030252Y-98453802D01*
X72352438Y-98447745D01*
X72411166Y-98447784D01*
X72661848Y-98449415D01*
X72849363Y-98454751D01*
X72995210Y-98466674D01*
X73120883Y-98488064D01*
X73247881Y-98521801D01*
X73397699Y-98570767D01*
X73441644Y-98585865D01*
X73755083Y-98704526D01*
X74026836Y-98834145D01*
X74299273Y-98995839D01*
X74407835Y-99067420D01*
X74584170Y-99186139D01*
X74762342Y-98973331D01*
X75077817Y-98659005D01*
X75456636Y-98388876D01*
X75885477Y-98171217D01*
X76272001Y-98035728D01*
X76571673Y-97974961D01*
X76915521Y-97944427D01*
X77270486Y-97944530D01*
X77603508Y-97975676D01*
X77808666Y-98016898D01*
X78153791Y-98131492D01*
X78498580Y-98288547D01*
X78803418Y-98469707D01*
X78837270Y-98493513D01*
X78951252Y-98571807D01*
X79027483Y-98603762D01*
X79079364Y-98580959D01*
X79120296Y-98494980D01*
X79163677Y-98337405D01*
X79178063Y-98279406D01*
X79260799Y-97789937D01*
X79261532Y-97320020D01*
X79179672Y-96865951D01*
X79014624Y-96424023D01*
X78827019Y-96084196D01*
X78637733Y-95829511D01*
X78396327Y-95571260D01*
X78129095Y-95334430D01*
X77862329Y-95144004D01*
X77797460Y-95105831D01*
X77630641Y-95015902D01*
X77523723Y-94968810D01*
X77465132Y-94962005D01*
X77443294Y-94992938D01*
X77442953Y-95027750D01*
X77434167Y-95069425D01*
X77387310Y-95091986D01*
X77284260Y-95100842D01*
X77194833Y-95101833D01*
X76940833Y-95101833D01*
X76912003Y-94810114D01*
X76827284Y-94367813D01*
X76677707Y-93982388D01*
X77264127Y-93982388D01*
X77274933Y-94030438D01*
X77306033Y-94149922D01*
X77328144Y-94244583D01*
X77362159Y-94328932D01*
X77403447Y-94361000D01*
X77470699Y-94380489D01*
X77592195Y-94432503D01*
X77748781Y-94507361D01*
X77921304Y-94595379D01*
X78090611Y-94686877D01*
X78237550Y-94772172D01*
X78315211Y-94821891D01*
X78617504Y-95063793D01*
X78913149Y-95365636D01*
X79182514Y-95703699D01*
X79405961Y-96054258D01*
X79514074Y-96270296D01*
X79652221Y-96667127D01*
X79741574Y-97108206D01*
X79778879Y-97566410D01*
X79760884Y-98014611D01*
X79741041Y-98163347D01*
X79704915Y-98388527D01*
X79910374Y-98285633D01*
X80387481Y-98091012D01*
X80876794Y-97974333D01*
X81369970Y-97932913D01*
X81858667Y-97964067D01*
X82334542Y-98065111D01*
X82789253Y-98233361D01*
X83214457Y-98466132D01*
X83601812Y-98760740D01*
X83942976Y-99114501D01*
X84229606Y-99524730D01*
X84328758Y-99707293D01*
X84408727Y-99877080D01*
X84474800Y-100036250D01*
X84515572Y-100156753D01*
X84520943Y-100179968D01*
X84561789Y-100292357D01*
X84640330Y-100345750D01*
X84652941Y-100349251D01*
X84832004Y-100411669D01*
X85052838Y-100514507D01*
X85291882Y-100644328D01*
X85525578Y-100787698D01*
X85730365Y-100931179D01*
X85855397Y-101035014D01*
X85964628Y-101136405D01*
X86157346Y-101028693D01*
X86555940Y-100848094D01*
X86998511Y-100721061D01*
X87459843Y-100652367D01*
X87914723Y-100646784D01*
X88088434Y-100663190D01*
X88550865Y-100753517D01*
X88994881Y-100899850D01*
X89398412Y-101093839D01*
X89640833Y-101250472D01*
X89810166Y-101374521D01*
X89831333Y-101159177D01*
X89837987Y-101007634D01*
X89835475Y-100812771D01*
X89824370Y-100615374D01*
X89823514Y-100605166D01*
X89794893Y-100394194D01*
X89746356Y-100152562D01*
X89687819Y-99928851D01*
X89680957Y-99906666D01*
X89614159Y-99712170D01*
X89538117Y-99517697D01*
X89460262Y-99339347D01*
X89388026Y-99193219D01*
X89328842Y-99095411D01*
X89290973Y-99061932D01*
X89252733Y-99094388D01*
X89178692Y-99178915D01*
X89082922Y-99299166D01*
X89053779Y-99337478D01*
X88932216Y-99487937D01*
X88804852Y-99628194D01*
X88697591Y-99729874D01*
X88689803Y-99736169D01*
X88531881Y-99861245D01*
X88428073Y-99746372D01*
X88327739Y-99634719D01*
X88269920Y-99554130D01*
X88257347Y-99485518D01*
X88292747Y-99409798D01*
X88378849Y-99307883D01*
X88510625Y-99168856D01*
X88804758Y-98807030D01*
X89020406Y-98420893D01*
X89159847Y-98004179D01*
X89225363Y-97550621D01*
X89228023Y-97197333D01*
X89167048Y-96703758D01*
X89030291Y-96241718D01*
X88821733Y-95817471D01*
X88545353Y-95437271D01*
X88205132Y-95107375D01*
X87805051Y-94834039D01*
X87682570Y-94768354D01*
X87533293Y-94696191D01*
X87443833Y-94664717D01*
X87400721Y-94672222D01*
X87390485Y-94716998D01*
X87391287Y-94731416D01*
X87382501Y-94773092D01*
X87335643Y-94795652D01*
X87232594Y-94804509D01*
X87143166Y-94805500D01*
X86889166Y-94805500D01*
X86861919Y-94530333D01*
X86818824Y-94225322D01*
X86748465Y-93961645D01*
X86638323Y-93697259D01*
X86578329Y-93578074D01*
X86335591Y-93199738D01*
X86038847Y-92879108D01*
X85697180Y-92617428D01*
X85319671Y-92415939D01*
X84915403Y-92275885D01*
X84493460Y-92198507D01*
X84062924Y-92185049D01*
X83632877Y-92236752D01*
X83212402Y-92354860D01*
X82810582Y-92540614D01*
X82436500Y-92795257D01*
X82227825Y-92982939D01*
X82084741Y-93138978D01*
X81946925Y-93311839D01*
X81841631Y-93467048D01*
X81832201Y-93483338D01*
X81760020Y-93606648D01*
X81703942Y-93694007D01*
X81676718Y-93726000D01*
X81631856Y-93708413D01*
X81535608Y-93663051D01*
X81447356Y-93619165D01*
X81236528Y-93512330D01*
X81306962Y-93375748D01*
X81375826Y-93250708D01*
X81460208Y-93108227D01*
X81482963Y-93071597D01*
X81588530Y-92904027D01*
X81416107Y-92751015D01*
X81087029Y-92514082D01*
X80707903Y-92338363D01*
X80291640Y-92228464D01*
X79851153Y-92188993D01*
X79840666Y-92188950D01*
X79482912Y-92206890D01*
X79164988Y-92267991D01*
X78849526Y-92380651D01*
X78716623Y-92441567D01*
X78343192Y-92667322D01*
X78024306Y-92955243D01*
X77766555Y-93298066D01*
X77576529Y-93688529D01*
X77570657Y-93704414D01*
X77516839Y-93842663D01*
X77473921Y-93917475D01*
X77427050Y-93946066D01*
X77362415Y-93945772D01*
X77281982Y-93944997D01*
X77264127Y-93982388D01*
X76677707Y-93982388D01*
X76667074Y-93954990D01*
X76437464Y-93578482D01*
X76144546Y-93245124D01*
X75996319Y-93125161D01*
X76744603Y-93125161D01*
X76903676Y-93346580D01*
X76991077Y-93463029D01*
X77044639Y-93516959D01*
X77076105Y-93517204D01*
X77091984Y-93488249D01*
X77090606Y-93388969D01*
X77065616Y-93345000D01*
X76991517Y-93280329D01*
X76886300Y-93208696D01*
X76877308Y-93203330D01*
X76744603Y-93125161D01*
X75996319Y-93125161D01*
X75794411Y-92961754D01*
X75393151Y-92735206D01*
X74946858Y-92572318D01*
X74908833Y-92562095D01*
X74699138Y-92523851D01*
X74440859Y-92501151D01*
X74164888Y-92494509D01*
X73902118Y-92504436D01*
X73683440Y-92531445D01*
X73638833Y-92541034D01*
X73507400Y-92582126D01*
X73329247Y-92650255D01*
X73133112Y-92734055D01*
X73028749Y-92782342D01*
X72811088Y-92893674D01*
X72636514Y-93004405D01*
X72472290Y-93137836D01*
X72306442Y-93296426D01*
X72156852Y-93454025D01*
X72017510Y-93614917D01*
X71908166Y-93755629D01*
X71864753Y-93821324D01*
X71796915Y-93931834D01*
X71746200Y-94004843D01*
X71728403Y-94022333D01*
X71683530Y-94004746D01*
X71587275Y-93959384D01*
X71499023Y-93915498D01*
X71288194Y-93808663D01*
X71357261Y-93672081D01*
X71430411Y-93545043D01*
X71520507Y-93410169D01*
X71534900Y-93390599D01*
X71643471Y-93245698D01*
X71440246Y-93061707D01*
X71233375Y-92905963D01*
X70973737Y-92757123D01*
X70692762Y-92631006D01*
X70421879Y-92543431D01*
X70400333Y-92538273D01*
X70163141Y-92502642D01*
X69882263Y-92489650D01*
X69595559Y-92499155D01*
X69340887Y-92531018D01*
X69286877Y-92542410D01*
X69019703Y-92628165D01*
X68733109Y-92758473D01*
X68462381Y-92915291D01*
X68254326Y-93070371D01*
X68004978Y-93333533D01*
X67789527Y-93648427D01*
X67629722Y-93982995D01*
X67623190Y-94000748D01*
X67570509Y-94131466D01*
X67523571Y-94222524D01*
X67494617Y-94253071D01*
X67434188Y-94245162D01*
X67322309Y-94227480D01*
X67257083Y-94216514D01*
X67134894Y-94187939D01*
X67071237Y-94143076D01*
X67059226Y-94064174D01*
X67091979Y-93933479D01*
X67117889Y-93857564D01*
X67179778Y-93682151D01*
X66980306Y-93535637D01*
X66642877Y-93333982D01*
X66250765Y-93177675D01*
X65822984Y-93070380D01*
X65378546Y-93015766D01*
X64936465Y-93017497D01*
X64561316Y-93069205D01*
X64148358Y-93188595D01*
X63747718Y-93365685D01*
X63380276Y-93588958D01*
X63066913Y-93846895D01*
X62970945Y-93946484D01*
X62838640Y-94095457D01*
X62762182Y-94199393D01*
X62742361Y-94277574D01*
X62779965Y-94349285D01*
X62875784Y-94433809D01*
X62994561Y-94523368D01*
X63126898Y-94626082D01*
X63228284Y-94711779D01*
X63283018Y-94766886D01*
X63288333Y-94777319D01*
X63262836Y-94826038D01*
X63197251Y-94915044D01*
X63137770Y-94987326D01*
X62987206Y-95163225D01*
X62683939Y-94932171D01*
X62205367Y-94618782D01*
X61695547Y-94380086D01*
X61162953Y-94216610D01*
X60616062Y-94128883D01*
X60063348Y-94117432D01*
X59513288Y-94182786D01*
X58974357Y-94325473D01*
X58455031Y-94546021D01*
X58254668Y-94656172D01*
X57786524Y-94977172D01*
X57384483Y-95350958D01*
X57047425Y-95778838D01*
X56774232Y-96262121D01*
X56664228Y-96517289D01*
X56529501Y-96960022D01*
X56451217Y-97442811D01*
X56430759Y-97941395D01*
X56469513Y-98431511D01*
X56535767Y-98769143D01*
X56545486Y-98837626D01*
X56519135Y-98882445D01*
X56439093Y-98921911D01*
X56362599Y-98949060D01*
X56209962Y-98997251D01*
X56117616Y-99010090D01*
X56067027Y-98983131D01*
X56039660Y-98911928D01*
X56030959Y-98869500D01*
X56000878Y-98776064D01*
X55945397Y-98729070D01*
X55850643Y-98726568D01*
X55702740Y-98766606D01*
X55589905Y-98807499D01*
X55241446Y-98979528D01*
X54910941Y-99217144D01*
X54620216Y-99501907D01*
X54391096Y-99815374D01*
X54385195Y-99825382D01*
X54203114Y-100213775D01*
X54099649Y-100612130D01*
X54070791Y-101011927D01*
X53566957Y-101011927D01*
X53565701Y-100813953D01*
X53618769Y-100435675D01*
X53723443Y-100052453D01*
X53869114Y-99699521D01*
X53941485Y-99566233D01*
X54205716Y-99195193D01*
X54528956Y-98865165D01*
X54896657Y-98587284D01*
X55294265Y-98372688D01*
X55673066Y-98240957D01*
X55901166Y-98182656D01*
X55911546Y-97764078D01*
X55966364Y-97167509D01*
X56097368Y-96600392D01*
X56299733Y-96067558D01*
X56568639Y-95573838D01*
X56899262Y-95124063D01*
X57286779Y-94723064D01*
X57726368Y-94375671D01*
X58213206Y-94086717D01*
X58742471Y-93861031D01*
X59309340Y-93703444D01*
X59908991Y-93618788D01*
X60058701Y-93609794D01*
X60613741Y-93613500D01*
X61133011Y-93679340D01*
X61642809Y-93811870D01*
X62010326Y-93947666D01*
X62235153Y-94040049D01*
X62345585Y-93893607D01*
X62429121Y-93793238D01*
X62550396Y-93659968D01*
X62685955Y-93519410D01*
X62713425Y-93491975D01*
X63118351Y-93149070D01*
X63568649Y-92875597D01*
X64057571Y-92674266D01*
X64578372Y-92547786D01*
X65124303Y-92498864D01*
X65188326Y-92498333D01*
X65748107Y-92533797D01*
X66266926Y-92641265D01*
X66750873Y-92822352D01*
X67084459Y-93001245D01*
X67415833Y-93203062D01*
X67733333Y-92878161D01*
X68110277Y-92544369D01*
X68515243Y-92288688D01*
X68956652Y-92106861D01*
X69442928Y-91994632D01*
X69497507Y-91986633D01*
X69932954Y-91965161D01*
X70379864Y-92014913D01*
X70820692Y-92130279D01*
X71237891Y-92305650D01*
X71613914Y-92535416D01*
X71860481Y-92742117D01*
X71987130Y-92864679D01*
X72244321Y-92662561D01*
X72644038Y-92396170D01*
X73090663Y-92183038D01*
X73427166Y-92070009D01*
X73691916Y-92016323D01*
X73998784Y-91985310D01*
X74319584Y-91977294D01*
X74626128Y-91992600D01*
X74890229Y-92031552D01*
X74972333Y-92052251D01*
X75113624Y-92089896D01*
X75308247Y-92137014D01*
X75526492Y-92186572D01*
X75670833Y-92217576D01*
X76040194Y-92301758D01*
X76345825Y-92388579D01*
X76608525Y-92485481D01*
X76849096Y-92599906D01*
X77032704Y-92704858D01*
X77364166Y-92906728D01*
X77681666Y-92581827D01*
X78055788Y-92249956D01*
X78456922Y-91995683D01*
X78894532Y-91814270D01*
X79378086Y-91700979D01*
X79467203Y-91687929D01*
X79899166Y-91666744D01*
X80341650Y-91712860D01*
X80776487Y-91820958D01*
X81185508Y-91985720D01*
X81550545Y-92201823D01*
X81740499Y-92353560D01*
X81937265Y-92530469D01*
X82084882Y-92405569D01*
X82451378Y-92146640D01*
X82871333Y-91938038D01*
X83326541Y-91785006D01*
X83798795Y-91692786D01*
X84269890Y-91666622D01*
X84574767Y-91688523D01*
%LPC*%
D11*
G36*
X184523549Y-88284160D02*
G01*
X186064272Y-89002611D01*
X185345821Y-90543334D01*
X183805098Y-89824883D01*
X184523549Y-88284160D01*
G37*
G36*
G01*
X182991889Y-87569935D02*
X182991889Y-87569935D01*
G75*
G02*
X183403025Y-88699523I-359226J-770362D01*
G01*
X183403025Y-88699523D01*
G75*
G02*
X182273437Y-89110659I-770362J359226D01*
G01*
X182273437Y-89110659D01*
G75*
G02*
X181862301Y-87981071I359226J770362D01*
G01*
X181862301Y-87981071D01*
G75*
G02*
X182991889Y-87569935I770362J-359226D01*
G01*
G37*
G36*
G01*
X180689867Y-86496484D02*
X180689867Y-86496484D01*
G75*
G02*
X181101003Y-87626072I-359226J-770362D01*
G01*
X181101003Y-87626072D01*
G75*
G02*
X179971415Y-88037208I-770362J359226D01*
G01*
X179971415Y-88037208D01*
G75*
G02*
X179560279Y-86907620I359226J770362D01*
G01*
X179560279Y-86907620D01*
G75*
G02*
X180689867Y-86496484I770362J-359226D01*
G01*
G37*
G36*
G01*
X178387846Y-85423034D02*
X178387846Y-85423034D01*
G75*
G02*
X178798982Y-86552622I-359226J-770362D01*
G01*
X178798982Y-86552622D01*
G75*
G02*
X177669394Y-86963758I-770362J359226D01*
G01*
X177669394Y-86963758D01*
G75*
G02*
X177258258Y-85834170I359226J770362D01*
G01*
X177258258Y-85834170D01*
G75*
G02*
X178387846Y-85423034I770362J-359226D01*
G01*
G37*
D12*
X180500000Y-78620000D03*
X180500000Y-76080000D03*
X180500000Y-73540000D03*
D13*
X180500000Y-71000000D03*
D14*
X58420000Y-115798600D03*
D15*
X60960000Y-115341400D03*
X63500000Y-115798600D03*
X66040000Y-115341400D03*
X68580000Y-115798600D03*
X71120000Y-115341400D03*
X73660000Y-115798600D03*
X76200000Y-115341400D03*
X78740000Y-115798600D03*
X81280000Y-115341400D03*
X83820000Y-115798600D03*
X86360000Y-100558600D03*
X83820000Y-100101400D03*
X81280000Y-100558600D03*
X78740000Y-100101400D03*
X76200000Y-100558600D03*
X73660000Y-100101400D03*
X71120000Y-100558600D03*
X68580000Y-100101400D03*
X66040000Y-100558600D03*
X63500000Y-100101400D03*
X60960000Y-100558600D03*
X86360000Y-115341400D03*
X58420000Y-100101400D03*
D12*
X52070000Y-101600000D03*
X49530000Y-101600000D03*
D13*
X46990000Y-101600000D03*
G36*
G01*
X183046839Y-93490713D02*
X183046839Y-93490713D01*
G75*
G02*
X182635703Y-92361125I359226J770362D01*
G01*
X182635703Y-92361125D01*
G75*
G02*
X183765291Y-91949989I770362J-359226D01*
G01*
X183765291Y-91949989D01*
G75*
G02*
X184176427Y-93079577I-359226J-770362D01*
G01*
X184176427Y-93079577D01*
G75*
G02*
X183046839Y-93490713I-770362J359226D01*
G01*
G37*
G36*
G01*
X180744818Y-92417263D02*
X180744818Y-92417263D01*
G75*
G02*
X180333682Y-91287675I359226J770362D01*
G01*
X180333682Y-91287675D01*
G75*
G02*
X181463270Y-90876539I770362J-359226D01*
G01*
X181463270Y-90876539D01*
G75*
G02*
X181874406Y-92006127I-359226J-770362D01*
G01*
X181874406Y-92006127D01*
G75*
G02*
X180744818Y-92417263I-770362J359226D01*
G01*
G37*
G36*
G01*
X178442796Y-91343812D02*
X178442796Y-91343812D01*
G75*
G02*
X178031660Y-90214224I359226J770362D01*
G01*
X178031660Y-90214224D01*
G75*
G02*
X179161248Y-89803088I770362J-359226D01*
G01*
X179161248Y-89803088D01*
G75*
G02*
X179572384Y-90932676I-359226J-770362D01*
G01*
X179572384Y-90932676D01*
G75*
G02*
X178442796Y-91343812I-770362J359226D01*
G01*
G37*
D11*
G36*
X176911136Y-90629587D02*
G01*
X175370413Y-89911136D01*
X176088864Y-88370413D01*
X177629587Y-89088864D01*
X176911136Y-90629587D01*
G37*
D12*
X93980000Y-109220000D03*
D13*
X96520000Y-109220000D03*
D15*
X165100000Y-96520000D03*
X162560000Y-96520000D03*
X160020000Y-96520000D03*
X160020000Y-93980000D03*
X162560000Y-93980000D03*
X165100000Y-93980000D03*
X170180000Y-91440000D03*
X165100000Y-91440000D03*
X160020000Y-91440000D03*
X167640000Y-91440000D03*
X162560000Y-91440000D03*
X167640000Y-88900000D03*
X160020000Y-88900000D03*
X162560000Y-88900000D03*
X165100000Y-88900000D03*
X160020000Y-86360000D03*
X167640000Y-86360000D03*
X165100000Y-86360000D03*
X162560000Y-86360000D03*
X160020000Y-83820000D03*
X162560000Y-83820000D03*
X165100000Y-83820000D03*
X167640000Y-83820000D03*
X170180000Y-83820000D03*
X170180000Y-86360000D03*
X170180000Y-88900000D03*
X172720000Y-88900000D03*
X172720000Y-86360000D03*
X172720000Y-83820000D03*
X172720000Y-81280000D03*
X170180000Y-81280000D03*
X167640000Y-81280000D03*
X165100000Y-81280000D03*
X162560000Y-81280000D03*
X160020000Y-81280000D03*
D16*
X50800000Y-81010000D03*
D17*
X58420000Y-81010000D03*
D16*
X50800000Y-63230000D03*
D17*
X58420000Y-63230000D03*
D16*
X107950000Y-98690000D03*
D17*
X115570000Y-98690000D03*
D16*
X169279577Y-94185737D03*
D11*
G36*
X165167423Y-99657197D02*
G01*
X166597231Y-100482697D01*
X165771731Y-101912505D01*
X164341923Y-101087005D01*
X165167423Y-99657197D01*
G37*
D16*
X165100000Y-76470000D03*
D17*
X172720000Y-76470000D03*
D16*
X168660886Y-111760000D03*
D11*
G36*
X174132346Y-115872154D02*
G01*
X174957846Y-114442346D01*
X176387654Y-115267846D01*
X175562154Y-116697654D01*
X174132346Y-115872154D01*
G37*
D16*
X146050000Y-97060000D03*
D17*
X153670000Y-97060000D03*
D16*
X146050000Y-79010000D03*
D17*
X153670000Y-79010000D03*
D16*
X151449542Y-104873806D03*
D11*
G36*
X157551946Y-107973379D02*
G01*
X158116621Y-106421946D01*
X159668054Y-106986621D01*
X159103379Y-108538054D01*
X157551946Y-107973379D01*
G37*
D16*
X127000000Y-94520000D03*
D17*
X134620000Y-94520000D03*
D16*
X127000000Y-76470000D03*
D17*
X134620000Y-76470000D03*
D16*
X129955764Y-99876800D03*
D11*
G36*
X136503695Y-101869612D02*
G01*
X136790388Y-100243695D01*
X138416305Y-100530388D01*
X138129612Y-102156305D01*
X136503695Y-101869612D01*
G37*
D16*
X107950000Y-91980000D03*
D17*
X115570000Y-91980000D03*
D16*
X107950000Y-73930000D03*
D17*
X115570000Y-73930000D03*
D16*
X88900000Y-94520000D03*
D17*
X96520000Y-94520000D03*
D16*
X88900000Y-76470000D03*
D17*
X96520000Y-76470000D03*
D16*
X69850000Y-97060000D03*
D17*
X77470000Y-97060000D03*
D16*
X69850000Y-79010000D03*
D17*
X77470000Y-79010000D03*
D16*
X165100000Y-58420000D03*
D17*
X172720000Y-58420000D03*
D16*
X146050000Y-60960000D03*
D17*
X153670000Y-60960000D03*
D16*
X127000000Y-58420000D03*
D17*
X134620000Y-58420000D03*
D16*
X107950000Y-55880000D03*
D17*
X115570000Y-55880000D03*
D16*
X88900000Y-58420000D03*
D17*
X96520000Y-58420000D03*
D16*
X69850000Y-60960000D03*
D17*
X77470000Y-60960000D03*
D18*
X175294118Y-125898222D03*
X165767838Y-120398222D03*
D19*
X167580978Y-128257772D03*
D20*
X170530978Y-123148222D03*
D19*
X172961105Y-128939119D03*
D18*
X157157909Y-116385504D03*
X146821291Y-112623282D03*
D19*
X149971681Y-120048579D03*
D20*
X151989600Y-114504393D03*
D19*
X155388387Y-119785326D03*
D18*
X137631750Y-110186903D03*
X126798864Y-108276773D03*
D19*
X131190783Y-115042204D03*
D20*
X132215307Y-109231838D03*
D19*
X136479483Y-113842348D03*
D18*
X117260000Y-107450000D03*
X106260000Y-107450000D03*
D19*
X111760000Y-113350000D03*
D20*
X111760000Y-107450000D03*
D19*
X116760000Y-111250000D03*
D18*
X172510000Y-106833140D03*
X178010000Y-97306860D03*
D19*
X170150450Y-99120000D03*
D20*
X175260000Y-102070000D03*
D19*
X169469103Y-104500127D03*
D18*
X155360000Y-88170000D03*
X144360000Y-88170000D03*
D19*
X149860000Y-94070000D03*
D20*
X149860000Y-88170000D03*
D19*
X154860000Y-91970000D03*
D18*
X136310000Y-85630000D03*
X125310000Y-85630000D03*
D19*
X130810000Y-91530000D03*
D20*
X130810000Y-85630000D03*
D19*
X135810000Y-89430000D03*
D18*
X117260000Y-83090000D03*
X106260000Y-83090000D03*
D19*
X111760000Y-88990000D03*
D20*
X111760000Y-83090000D03*
D19*
X116760000Y-86890000D03*
D18*
X98210000Y-85630000D03*
X87210000Y-85630000D03*
D19*
X92710000Y-91530000D03*
D20*
X92710000Y-85630000D03*
D19*
X97710000Y-89430000D03*
D18*
X79160000Y-88170000D03*
X68160000Y-88170000D03*
D19*
X73660000Y-94070000D03*
D20*
X73660000Y-88170000D03*
D19*
X78660000Y-91970000D03*
D18*
X174410000Y-67580000D03*
X163410000Y-67580000D03*
D19*
X168910000Y-73480000D03*
D20*
X168910000Y-67580000D03*
D19*
X173910000Y-71380000D03*
D18*
X155360000Y-70120000D03*
X144360000Y-70120000D03*
D19*
X149860000Y-76020000D03*
D20*
X149860000Y-70120000D03*
D19*
X154860000Y-73920000D03*
D18*
X136310000Y-67580000D03*
X125310000Y-67580000D03*
D19*
X130810000Y-73480000D03*
D20*
X130810000Y-67580000D03*
D19*
X135810000Y-71380000D03*
D18*
X117260000Y-65040000D03*
X106260000Y-65040000D03*
D19*
X111760000Y-70940000D03*
D20*
X111760000Y-65040000D03*
D19*
X116760000Y-68840000D03*
D18*
X98210000Y-67580000D03*
X87210000Y-67580000D03*
D19*
X92710000Y-73480000D03*
D20*
X92710000Y-67580000D03*
D19*
X97710000Y-71380000D03*
D18*
X79160000Y-70120000D03*
X68160000Y-70120000D03*
D19*
X73660000Y-76020000D03*
D20*
X73660000Y-70120000D03*
D19*
X78660000Y-73920000D03*
D18*
X60110000Y-89900000D03*
X49110000Y-89900000D03*
D19*
X54610000Y-95800000D03*
D20*
X54610000Y-89900000D03*
D19*
X59610000Y-93700000D03*
D18*
X174410000Y-49530000D03*
X163410000Y-49530000D03*
D19*
X168910000Y-55430000D03*
D20*
X168910000Y-49530000D03*
D19*
X173910000Y-53330000D03*
D18*
X155360000Y-52070000D03*
X144360000Y-52070000D03*
D19*
X149860000Y-57970000D03*
D20*
X149860000Y-52070000D03*
D19*
X154860000Y-55870000D03*
D18*
X136310000Y-49530000D03*
X125310000Y-49530000D03*
D19*
X130810000Y-55430000D03*
D20*
X130810000Y-49530000D03*
D19*
X135810000Y-53330000D03*
D18*
X117260000Y-46990000D03*
X106260000Y-46990000D03*
D19*
X111760000Y-52890000D03*
D20*
X111760000Y-46990000D03*
D19*
X116760000Y-50790000D03*
D18*
X98170701Y-49530000D03*
X87170701Y-49530000D03*
D19*
X92670701Y-55430000D03*
D20*
X92670701Y-49530000D03*
D19*
X97670701Y-53330000D03*
D18*
X79160000Y-52070000D03*
X68160000Y-52070000D03*
D19*
X73660000Y-57970000D03*
D20*
X73660000Y-52070000D03*
D19*
X78660000Y-55870000D03*
D18*
X60110000Y-71850000D03*
X49110000Y-71850000D03*
D19*
X54610000Y-77750000D03*
D20*
X54610000Y-71850000D03*
D19*
X59610000Y-75650000D03*
M02*
