G04 #@! TF.GenerationSoftware,KiCad,Pcbnew,5.1.8-1*
G04 #@! TF.CreationDate,2021-01-06T16:28:38-05:00*
G04 #@! TF.ProjectId,MushyCloud,4d757368-7943-46c6-9f75-642e6b696361,rev?*
G04 #@! TF.SameCoordinates,Original*
G04 #@! TF.FileFunction,Soldermask,Top*
G04 #@! TF.FilePolarity,Negative*
%FSLAX46Y46*%
G04 Gerber Fmt 4.6, Leading zero omitted, Abs format (unit mm)*
G04 Created by KiCad (PCBNEW 5.1.8-1) date 2021-01-06 16:28:38*
%MOMM*%
%LPD*%
G01*
G04 APERTURE LIST*
%ADD10R,1.752600X1.752600*%
%ADD11C,1.752600*%
%ADD12O,1.700000X1.700000*%
%ADD13R,1.700000X1.700000*%
%ADD14C,0.100000*%
%ADD15C,1.700000*%
%ADD16C,1.651000*%
%ADD17R,1.651000X1.651000*%
%ADD18C,2.000000*%
%ADD19C,3.400000*%
G04 APERTURE END LIST*
D10*
X58420000Y-115798600D03*
D11*
X60960000Y-115341400D03*
X63500000Y-115798600D03*
X66040000Y-115341400D03*
X68580000Y-115798600D03*
X71120000Y-115341400D03*
X73660000Y-115798600D03*
X76200000Y-115341400D03*
X78740000Y-115798600D03*
X81280000Y-115341400D03*
X83820000Y-115798600D03*
X86360000Y-100558600D03*
X83820000Y-100101400D03*
X81280000Y-100558600D03*
X78740000Y-100101400D03*
X76200000Y-100558600D03*
X73660000Y-100101400D03*
X71120000Y-100558600D03*
X68580000Y-100101400D03*
X66040000Y-100558600D03*
X63500000Y-100101400D03*
X60960000Y-100558600D03*
X86360000Y-115341400D03*
X58420000Y-100101400D03*
D12*
X52070000Y-101600000D03*
X49530000Y-101600000D03*
D13*
X46990000Y-101600000D03*
G36*
G01*
X183399741Y-91034932D02*
X183399741Y-91034932D01*
G75*
G02*
X182891719Y-89945476I290717J798739D01*
G01*
X182891719Y-89945476D01*
G75*
G02*
X183981175Y-89437454I798739J-290717D01*
G01*
X183981175Y-89437454D01*
G75*
G02*
X184489197Y-90526910I-290717J-798739D01*
G01*
X184489197Y-90526910D01*
G75*
G02*
X183399741Y-91034932I-798739J290717D01*
G01*
G37*
G36*
G01*
X181012922Y-90166201D02*
X181012922Y-90166201D01*
G75*
G02*
X180504900Y-89076745I290717J798739D01*
G01*
X180504900Y-89076745D01*
G75*
G02*
X181594356Y-88568723I798739J-290717D01*
G01*
X181594356Y-88568723D01*
G75*
G02*
X182102378Y-89658179I-290717J-798739D01*
G01*
X182102378Y-89658179D01*
G75*
G02*
X181012922Y-90166201I-798739J290717D01*
G01*
G37*
G36*
G01*
X178626102Y-89297470D02*
X178626102Y-89297470D01*
G75*
G02*
X178118080Y-88208014I290717J798739D01*
G01*
X178118080Y-88208014D01*
G75*
G02*
X179207536Y-87699992I798739J-290717D01*
G01*
X179207536Y-87699992D01*
G75*
G02*
X179715558Y-88789448I-290717J-798739D01*
G01*
X179715558Y-88789448D01*
G75*
G02*
X178626102Y-89297470I-798739J290717D01*
G01*
G37*
D14*
G36*
X177038022Y-88719456D02*
G01*
X175440544Y-88138022D01*
X176021978Y-86540544D01*
X177619456Y-87121978D01*
X177038022Y-88719456D01*
G37*
D12*
X93980000Y-109220000D03*
D13*
X96520000Y-109220000D03*
D11*
X165100000Y-96520000D03*
X162560000Y-96520000D03*
X160020000Y-96520000D03*
X160020000Y-93980000D03*
X162560000Y-93980000D03*
X165100000Y-93980000D03*
X170180000Y-91440000D03*
X165100000Y-91440000D03*
X160020000Y-91440000D03*
X167640000Y-91440000D03*
X162560000Y-91440000D03*
X167640000Y-88900000D03*
X160020000Y-88900000D03*
X162560000Y-88900000D03*
X165100000Y-88900000D03*
X160020000Y-86360000D03*
X167640000Y-86360000D03*
X165100000Y-86360000D03*
X162560000Y-86360000D03*
X160020000Y-83820000D03*
X162560000Y-83820000D03*
X165100000Y-83820000D03*
X167640000Y-83820000D03*
X170180000Y-83820000D03*
X170180000Y-86360000D03*
X170180000Y-88900000D03*
X172720000Y-88900000D03*
X172720000Y-86360000D03*
X172720000Y-83820000D03*
X172720000Y-81280000D03*
X170180000Y-81280000D03*
X167640000Y-81280000D03*
X165100000Y-81280000D03*
X162560000Y-81280000D03*
X160020000Y-81280000D03*
D14*
G36*
X185231039Y-77582321D02*
G01*
X185800441Y-75457284D01*
X188505033Y-76181977D01*
X187935631Y-78307014D01*
X185231039Y-77582321D01*
G37*
G36*
X178600826Y-73735209D02*
G01*
X179170228Y-71610172D01*
X181874820Y-72334865D01*
X181305418Y-74459902D01*
X178600826Y-73735209D01*
G37*
G36*
X176090281Y-83104688D02*
G01*
X176814975Y-80400096D01*
X179519567Y-81124790D01*
X178794873Y-83829382D01*
X176090281Y-83104688D01*
G37*
D15*
X183527048Y-75055185D03*
X181715314Y-81816666D03*
D16*
X50800000Y-81010000D03*
D17*
X58420000Y-81010000D03*
D16*
X50800000Y-63230000D03*
D17*
X58420000Y-63230000D03*
D16*
X107950000Y-98690000D03*
D17*
X115570000Y-98690000D03*
D16*
X169279577Y-94185737D03*
D14*
G36*
X165167423Y-99657197D02*
G01*
X166597231Y-100482697D01*
X165771731Y-101912505D01*
X164341923Y-101087005D01*
X165167423Y-99657197D01*
G37*
D16*
X165100000Y-76470000D03*
D17*
X172720000Y-76470000D03*
D16*
X168660886Y-111760000D03*
D14*
G36*
X174132346Y-115872154D02*
G01*
X174957846Y-114442346D01*
X176387654Y-115267846D01*
X175562154Y-116697654D01*
X174132346Y-115872154D01*
G37*
D16*
X146050000Y-97060000D03*
D17*
X153670000Y-97060000D03*
D16*
X146050000Y-79010000D03*
D17*
X153670000Y-79010000D03*
D16*
X151449542Y-104873806D03*
D14*
G36*
X157551946Y-107973379D02*
G01*
X158116621Y-106421946D01*
X159668054Y-106986621D01*
X159103379Y-108538054D01*
X157551946Y-107973379D01*
G37*
D16*
X127000000Y-94520000D03*
D17*
X134620000Y-94520000D03*
D16*
X127000000Y-76470000D03*
D17*
X134620000Y-76470000D03*
D16*
X129955764Y-99876800D03*
D14*
G36*
X136503695Y-101869612D02*
G01*
X136790388Y-100243695D01*
X138416305Y-100530388D01*
X138129612Y-102156305D01*
X136503695Y-101869612D01*
G37*
D16*
X107950000Y-91980000D03*
D17*
X115570000Y-91980000D03*
D16*
X107950000Y-73930000D03*
D17*
X115570000Y-73930000D03*
D16*
X88900000Y-94520000D03*
D17*
X96520000Y-94520000D03*
D16*
X88900000Y-76470000D03*
D17*
X96520000Y-76470000D03*
D16*
X69850000Y-97060000D03*
D17*
X77470000Y-97060000D03*
D16*
X69850000Y-79010000D03*
D17*
X77470000Y-79010000D03*
D16*
X165100000Y-58420000D03*
D17*
X172720000Y-58420000D03*
D16*
X146050000Y-60960000D03*
D17*
X153670000Y-60960000D03*
D16*
X127000000Y-58420000D03*
D17*
X134620000Y-58420000D03*
D16*
X107950000Y-55880000D03*
D17*
X115570000Y-55880000D03*
D16*
X88900000Y-58420000D03*
D17*
X96520000Y-58420000D03*
D16*
X69850000Y-60960000D03*
D17*
X77470000Y-60960000D03*
D15*
X175294118Y-125898222D03*
X165767838Y-120398222D03*
D18*
X167580978Y-128257772D03*
D19*
X170530978Y-123148222D03*
D18*
X172961105Y-128939119D03*
D15*
X157157909Y-116385504D03*
X146821291Y-112623282D03*
D18*
X149971681Y-120048579D03*
D19*
X151989600Y-114504393D03*
D18*
X155388387Y-119785326D03*
D15*
X137631750Y-110186903D03*
X126798864Y-108276773D03*
D18*
X131190783Y-115042204D03*
D19*
X132215307Y-109231838D03*
D18*
X136479483Y-113842348D03*
D15*
X117260000Y-107450000D03*
X106260000Y-107450000D03*
D18*
X111760000Y-113350000D03*
D19*
X111760000Y-107450000D03*
D18*
X116760000Y-111250000D03*
D15*
X172510000Y-106833140D03*
X178010000Y-97306860D03*
D18*
X170150450Y-99120000D03*
D19*
X175260000Y-102070000D03*
D18*
X169469103Y-104500127D03*
D15*
X155360000Y-88170000D03*
X144360000Y-88170000D03*
D18*
X149860000Y-94070000D03*
D19*
X149860000Y-88170000D03*
D18*
X154860000Y-91970000D03*
D15*
X136310000Y-85630000D03*
X125310000Y-85630000D03*
D18*
X130810000Y-91530000D03*
D19*
X130810000Y-85630000D03*
D18*
X135810000Y-89430000D03*
D15*
X117260000Y-83090000D03*
X106260000Y-83090000D03*
D18*
X111760000Y-88990000D03*
D19*
X111760000Y-83090000D03*
D18*
X116760000Y-86890000D03*
D15*
X98210000Y-85630000D03*
X87210000Y-85630000D03*
D18*
X92710000Y-91530000D03*
D19*
X92710000Y-85630000D03*
D18*
X97710000Y-89430000D03*
D15*
X79160000Y-88170000D03*
X68160000Y-88170000D03*
D18*
X73660000Y-94070000D03*
D19*
X73660000Y-88170000D03*
D18*
X78660000Y-91970000D03*
D15*
X174410000Y-67580000D03*
X163410000Y-67580000D03*
D18*
X168910000Y-73480000D03*
D19*
X168910000Y-67580000D03*
D18*
X173910000Y-71380000D03*
D15*
X155360000Y-70120000D03*
X144360000Y-70120000D03*
D18*
X149860000Y-76020000D03*
D19*
X149860000Y-70120000D03*
D18*
X154860000Y-73920000D03*
D15*
X136310000Y-67580000D03*
X125310000Y-67580000D03*
D18*
X130810000Y-73480000D03*
D19*
X130810000Y-67580000D03*
D18*
X135810000Y-71380000D03*
D15*
X117260000Y-65040000D03*
X106260000Y-65040000D03*
D18*
X111760000Y-70940000D03*
D19*
X111760000Y-65040000D03*
D18*
X116760000Y-68840000D03*
D15*
X98210000Y-67580000D03*
X87210000Y-67580000D03*
D18*
X92710000Y-73480000D03*
D19*
X92710000Y-67580000D03*
D18*
X97710000Y-71380000D03*
D15*
X79160000Y-70120000D03*
X68160000Y-70120000D03*
D18*
X73660000Y-76020000D03*
D19*
X73660000Y-70120000D03*
D18*
X78660000Y-73920000D03*
D15*
X60110000Y-89900000D03*
X49110000Y-89900000D03*
D18*
X54610000Y-95800000D03*
D19*
X54610000Y-89900000D03*
D18*
X59610000Y-93700000D03*
D15*
X174410000Y-49530000D03*
X163410000Y-49530000D03*
D18*
X168910000Y-55430000D03*
D19*
X168910000Y-49530000D03*
D18*
X173910000Y-53330000D03*
D15*
X155360000Y-52070000D03*
X144360000Y-52070000D03*
D18*
X149860000Y-57970000D03*
D19*
X149860000Y-52070000D03*
D18*
X154860000Y-55870000D03*
D15*
X136310000Y-49530000D03*
X125310000Y-49530000D03*
D18*
X130810000Y-55430000D03*
D19*
X130810000Y-49530000D03*
D18*
X135810000Y-53330000D03*
D15*
X117260000Y-46990000D03*
X106260000Y-46990000D03*
D18*
X111760000Y-52890000D03*
D19*
X111760000Y-46990000D03*
D18*
X116760000Y-50790000D03*
D15*
X98170701Y-49530000D03*
X87170701Y-49530000D03*
D18*
X92670701Y-55430000D03*
D19*
X92670701Y-49530000D03*
D18*
X97670701Y-53330000D03*
D15*
X79160000Y-52070000D03*
X68160000Y-52070000D03*
D18*
X73660000Y-57970000D03*
D19*
X73660000Y-52070000D03*
D18*
X78660000Y-55870000D03*
D15*
X60110000Y-71850000D03*
X49110000Y-71850000D03*
D18*
X54610000Y-77750000D03*
D19*
X54610000Y-71850000D03*
D18*
X59610000Y-75650000D03*
M02*
